<svg id="svg" version="1.1" xmlns="http://www.w3.org/2000/svg" xmlns:xlink="http://www.w3.org/1999/xlink" width="400" height="391.7757009345794" viewBox="0, 0, 400,391.7757009345794"><g id="svgg"><path id="path0" d="M214.829 34.517 C 217.636 37.327,219.989 39.626,220.058 39.626 C 220.126 39.626,217.885 37.327,215.078 34.517 C 212.270 31.707,209.917 29.408,209.849 29.408 C 209.780 29.408,212.021 31.707,214.829 34.517 M231.277 79.875 C 230.672 80.492,230.233 80.997,230.301 80.997 C 230.370 80.997,230.921 80.492,231.526 79.875 C 232.132 79.259,232.571 78.754,232.503 78.754 C 232.434 78.754,231.883 79.259,231.277 79.875 M161.121 105.234 L 144.673 121.745 161.184 105.297 C 170.265 96.250,177.695 88.820,177.695 88.786 C 177.695 88.611,176.410 89.885,161.121 105.234 M315.265 134.953 C 320.129 139.819,324.166 143.801,324.234 143.801 C 324.303 143.801,320.379 139.819,315.514 134.953 C 310.649 130.087,306.613 126.106,306.545 126.106 C 306.476 126.106,310.400 130.087,315.265 134.953 M331.462 185.109 L 325.857 190.779 331.526 185.173 C 334.645 182.090,337.196 179.539,337.196 179.504 C 337.196 179.327,336.671 179.841,331.462 185.109 M65.544 200.810 L 55.950 210.467 65.607 200.873 C 70.919 195.597,75.265 191.251,75.265 191.216 C 75.265 191.041,74.461 191.834,65.544 200.810 M179.043 224.798 C 179.043 227.196,179.081 228.178,179.126 226.978 C 179.172 225.779,179.172 223.816,179.126 222.617 C 179.081 221.417,179.043 222.399,179.043 224.798 M315.763 225.421 C 316.228 225.900,316.665 226.293,316.733 226.293 C 316.802 226.293,316.477 225.900,316.012 225.421 C 315.547 224.941,315.111 224.548,315.042 224.548 C 314.974 224.548,315.298 224.941,315.763 225.421 M318.380 228.037 C 318.915 228.586,319.410 229.034,319.478 229.034 C 319.547 229.034,319.165 228.586,318.629 228.037 C 318.094 227.489,317.600 227.040,317.531 227.040 C 317.463 227.040,317.845 227.489,318.380 228.037 M294.455 249.221 C 295.130 249.907,295.738 250.467,295.807 250.467 C 295.875 250.467,295.379 249.907,294.704 249.221 C 294.029 248.536,293.421 247.975,293.352 247.975 C 293.284 247.975,293.780 248.536,294.455 249.221 M86.231 257.321 C 91.095 262.187,95.131 266.168,95.200 266.168 C 95.268 266.168,91.344 262.187,86.480 257.321 C 81.615 252.455,77.579 248.474,77.510 248.474 C 77.442 248.474,81.366 252.455,86.231 257.321 M179.025 251.215 C 179.025 252.243,179.069 252.664,179.122 252.150 C 179.176 251.636,179.176 250.794,179.122 250.280 C 179.069 249.766,179.025 250.187,179.025 251.215 M178.992 270.282 L 178.941 287.230 186.855 295.142 C 191.208 299.493,194.854 303.053,194.958 303.053 C 195.062 303.053,195.121 292.034,195.091 278.567 C 195.060 265.100,194.997 254.838,194.951 255.763 L 194.868 257.445 187.039 257.445 L 179.210 257.445 179.126 255.389 C 179.080 254.259,179.019 260.960,178.992 270.282 M240.248 287.290 L 224.922 302.679 240.312 287.353 C 254.617 273.106,255.813 271.900,255.638 271.900 C 255.603 271.900,248.678 278.826,240.248 287.290 M258.442 303.131 L 234.642 326.879 227.539 328.436 C 223.632 329.292,219.538 330.193,218.440 330.439 L 216.444 330.885 211.462 326.068 L 206.480 321.252 213.831 313.835 L 221.183 306.417 213.707 313.843 L 206.231 321.268 214.330 329.295 C 218.785 333.709,222.744 337.483,223.128 337.682 L 223.827 338.042 253.159 308.710 C 269.292 292.577,282.436 279.379,282.367 279.381 C 282.299 279.382,271.533 290.070,258.442 303.131 M376.248 281.498 C 376.020 281.976,375.885 282.368,375.948 282.368 C 376.118 282.368,376.875 280.842,376.761 280.728 C 376.707 280.674,376.476 281.020,376.248 281.498 M346.028 283.178 L 345.296 283.988 346.106 283.256 C 346.861 282.573,347.030 282.368,346.838 282.368 C 346.795 282.368,346.431 282.732,346.028 283.178 M142.171 284.424 L 140.935 285.732 142.243 284.495 C 143.459 283.346,143.666 283.115,143.480 283.115 C 143.440 283.115,142.852 283.704,142.171 284.424 M371.433 289.782 C 370.696 290.794,370.469 291.309,371.076 290.592 C 371.638 289.928,372.162 289.097,372.018 289.097 C 371.971 289.097,371.707 289.405,371.433 289.782 M369.844 292.087 C 369.551 292.498,369.368 292.835,369.436 292.835 C 369.505 292.835,369.801 292.498,370.093 292.087 C 370.386 291.676,370.570 291.340,370.501 291.340 C 370.433 291.340,370.137 291.676,369.844 292.087 M335.433 293.520 L 334.829 294.206 335.576 293.583 C 335.988 293.240,336.371 292.931,336.428 292.897 C 336.485 292.863,336.420 292.835,336.284 292.835 C 336.148 292.835,335.765 293.143,335.433 293.520 M367.289 295.389 C 366.665 296.109,365.937 296.948,365.669 297.254 C 365.402 297.560,365.131 297.759,365.068 297.696 C 365.005 297.633,340.296 302.778,310.159 309.130 L 255.364 320.679 254.473 320.170 C 253.983 319.890,253.531 319.621,253.469 319.571 C 253.291 319.431,270.470 302.290,271.028 302.052 C 271.361 301.909,271.402 301.833,271.151 301.823 C 270.631 301.801,253.103 319.378,253.310 319.714 C 253.613 320.204,258.677 322.780,258.975 322.596 C 259.146 322.490,259.201 322.523,259.107 322.674 C 258.959 322.913,260.199 323.601,260.584 323.494 C 260.678 323.468,260.823 323.555,260.907 323.687 C 261.326 324.349,270.505 327.735,274.891 328.846 C 301.701 335.636,328.584 329.946,349.989 312.951 C 353.043 310.526,362.416 301.339,362.197 300.984 C 362.111 300.846,362.155 300.803,362.293 300.888 C 362.530 301.035,363.738 299.964,363.738 299.606 C 363.738 299.514,363.811 299.464,363.901 299.493 C 364.038 299.539,364.854 298.618,368.308 294.517 C 368.510 294.277,368.618 294.081,368.549 294.081 C 368.479 294.081,367.912 294.670,367.289 295.389 M325.399 300.216 C 325.009 300.427,324.737 300.646,324.794 300.702 C 324.942 300.850,326.226 300.222,326.229 300.000 C 326.231 299.763,326.240 299.760,325.399 300.216 M361.869 301.382 C 361.869 301.423,361.393 301.900,360.810 302.442 L 359.751 303.427 360.736 302.368 C 361.652 301.383,361.869 301.194,361.869 301.382 M321.931 301.971 C 321.417 302.184,320.997 302.445,320.997 302.550 C 320.997 302.655,321.445 302.519,321.994 302.248 C 323.462 301.522,323.424 301.352,321.931 301.971 M318.255 303.551 C 317.639 303.810,317.260 304.028,317.415 304.036 C 317.768 304.053,319.502 303.338,319.502 303.174 C 319.502 303.020,319.572 302.999,318.255 303.551 M191.884 317.818 C 199.616 325.596,205.886 332.016,205.817 332.085 C 205.748 332.155,199.709 333.671,192.398 335.454 L 179.104 338.698 178.462 338.142 C 178.108 337.836,176.474 336.296,174.829 334.719 C 173.184 333.142,178.231 338.249,186.044 346.068 C 200.852 360.887,203.059 362.884,208.977 366.816 C 235.966 384.749,271.610 383.931,297.570 364.783 C 306.354 358.304,318.573 345.246,323.609 336.954 C 324.776 335.034,324.836 335.066,321.728 335.957 C 313.318 338.367,302.775 339.672,294.222 339.361 L 290.252 339.216 287.902 341.343 C 268.109 359.253,239.568 360.348,218.719 343.996 C 217.744 343.232,208.145 333.847,197.386 323.141 C 183.152 308.977,181.653 307.527,191.884 317.818 M316.137 304.299 C 315.657 304.506,315.658 304.514,316.185 304.531 C 316.485 304.540,316.800 304.436,316.885 304.299 C 317.067 304.004,316.823 304.004,316.137 304.299 M314.143 304.929 C 313.595 305.110,313.371 305.261,313.645 305.266 C 313.919 305.270,314.480 305.119,314.891 304.931 C 315.833 304.500,315.449 304.499,314.143 304.929 M165.968 305.732 L 165.109 306.667 166.044 305.808 C 166.913 305.008,167.093 304.798,166.902 304.798 C 166.861 304.798,166.440 305.218,165.968 305.732 M311.277 305.709 C 311.072 305.778,310.747 305.884,310.556 305.945 C 310.365 306.006,310.263 306.109,310.329 306.175 C 310.395 306.241,310.887 306.134,311.424 305.938 C 312.304 305.615,312.173 305.410,311.277 305.709 M288.847 307.137 C 288.847 307.190,289.184 307.283,289.595 307.343 C 290.006 307.403,290.343 307.360,290.343 307.247 C 290.343 307.133,290.006 307.040,289.595 307.040 C 289.184 307.040,288.847 307.084,288.847 307.137 M291.090 307.429 C 292.016 307.630,293.287 307.666,293.177 307.487 C 293.110 307.378,292.529 307.303,291.886 307.319 C 291.243 307.335,290.885 307.384,291.090 307.429 M300.623 307.462 C 300.863 307.524,301.255 307.524,301.495 307.462 C 301.735 307.399,301.539 307.348,301.059 307.348 C 300.579 307.348,300.383 307.399,300.623 307.462 M163.349 308.349 L 162.617 309.159 163.427 308.427 C 164.182 307.745,164.351 307.539,164.159 307.539 C 164.116 307.539,163.751 307.903,163.349 308.349 M170.218 312.399 C 169.613 313.016,169.173 313.520,169.242 313.520 C 169.311 313.520,169.862 313.016,170.467 312.399 C 171.073 311.782,171.512 311.277,171.443 311.277 C 171.375 311.277,170.823 311.782,170.218 312.399 M164.860 324.984 C 167.187 327.315,169.147 329.221,169.216 329.221 C 169.284 329.221,167.436 327.315,165.109 324.984 C 162.782 322.654,160.822 320.748,160.753 320.748 C 160.685 320.748,162.533 322.654,164.860 324.984 M108.411 336.324 C 108.876 336.804,109.313 337.196,109.381 337.196 C 109.450 337.196,109.125 336.804,108.660 336.324 C 108.195 335.844,107.759 335.452,107.690 335.452 C 107.622 335.452,107.946 335.844,108.411 336.324 M113.403 341.215 C 114.880 342.627,115.643 343.188,114.766 342.216 C 114.355 341.760,113.682 341.159,113.271 340.880 C 112.590 340.419,112.602 340.449,113.403 341.215 M116.429 343.863 C 116.885 344.240,117.296 344.632,117.342 344.735 C 117.387 344.838,117.556 344.920,117.715 344.918 C 118.032 344.914,116.144 343.202,115.806 343.187 C 115.693 343.182,115.973 343.486,116.429 343.863 M120.221 346.625 C 120.807 347.286,122.490 346.807,106.417 350.554 C 98.947 352.296,92.793 353.829,92.742 353.960 C 92.692 354.092,91.290 352.870,89.627 351.244 C 87.965 349.618,88.616 350.328,91.074 352.822 C 93.532 355.315,95.652 357.289,95.785 357.206 C 95.918 357.124,95.959 357.167,95.876 357.302 C 95.601 357.746,100.003 361.716,104.174 364.787 C 129.976 383.778,165.397 384.741,192.253 367.181 L 194.723 365.565 186.002 356.844 L 177.282 348.124 173.438 349.994 C 157.428 357.787,139.565 357.369,124.127 348.839 C 122.832 348.124,121.675 347.570,121.554 347.607 C 121.433 347.645,121.389 347.587,121.456 347.478 C 121.523 347.369,121.167 347.013,120.665 346.688 C 119.820 346.140,119.786 346.135,120.221 346.625 M85.234 346.745 C 85.234 346.788,85.598 347.152,86.044 347.555 L 86.854 348.287 86.122 347.477 C 85.439 346.722,85.234 346.552,85.234 346.745 " stroke="none" fill="#b39b5a" fill-rule="evenodd"></path><path id="path1" d="M232.025 62.679 C 236.890 67.545,240.926 71.526,240.994 71.526 C 241.063 71.526,237.139 67.545,232.274 62.679 C 227.410 57.813,223.373 53.832,223.305 53.832 C 223.236 53.832,227.160 57.813,232.025 62.679 M160.748 71.402 C 158.077 74.075,155.949 76.262,156.017 76.262 C 156.086 76.262,158.327 74.075,160.997 71.402 C 163.667 68.729,165.796 66.542,165.727 66.542 C 165.659 66.542,163.418 68.729,160.748 71.402 M205.483 70.280 C 206.158 70.966,206.766 71.526,206.835 71.526 C 206.903 71.526,206.407 70.966,205.732 70.280 C 205.057 69.595,204.449 69.034,204.380 69.034 C 204.312 69.034,204.808 69.595,205.483 70.280 M127.102 105.109 L 116.511 115.763 127.165 105.172 C 133.025 99.347,137.819 94.553,137.819 94.518 C 137.819 94.343,136.945 95.206,127.102 105.109 M261.797 95.645 C 260.958 96.397,261.172 96.331,262.277 95.496 C 262.672 95.198,262.896 94.956,262.775 94.960 C 262.654 94.964,262.214 95.272,261.797 95.645 M257.695 98.665 C 257.695 99.027,257.215 99.154,248.111 101.210 C 237.644 103.574,239.046 103.569,236.641 101.247 C 235.541 100.186,236.156 100.866,238.006 102.760 C 243.851 108.741,246.738 111.324,247.017 110.825 C 247.489 109.981,250.240 106.443,251.649 104.867 C 252.438 103.985,253.323 102.991,253.615 102.659 C 253.907 102.327,254.495 101.792,254.922 101.469 C 255.348 101.146,255.625 100.764,255.536 100.620 C 255.447 100.477,255.491 100.431,255.634 100.519 C 255.957 100.719,256.512 100.092,256.260 99.813 C 256.158 99.700,256.197 99.678,256.346 99.763 C 256.495 99.848,257.000 99.590,257.467 99.190 C 257.935 98.790,258.178 98.458,258.006 98.452 C 257.835 98.447,257.695 98.543,257.695 98.665 M283.489 114.143 C 291.164 121.819,297.500 128.100,297.568 128.100 C 297.637 128.100,291.413 121.819,283.738 114.143 C 276.063 106.467,269.728 100.187,269.659 100.187 C 269.590 100.187,275.814 106.467,283.489 114.143 M133.083 133.271 L 121.495 144.922 133.146 133.334 C 143.976 122.564,144.909 121.620,144.734 121.620 C 144.699 121.620,139.456 126.863,133.083 133.271 M291.247 155.962 C 310.180 174.906,325.776 190.405,325.903 190.405 C 326.198 190.405,342.679 173.849,342.679 173.553 C 342.679 173.432,333.075 163.688,321.337 151.900 C 309.599 140.112,301.829 132.374,304.070 134.704 C 306.311 137.034,309.603 140.417,311.386 142.222 C 313.169 144.026,314.658 145.596,314.696 145.711 C 314.733 145.825,308.652 147.274,301.181 148.931 L 287.597 151.942 272.210 136.731 C 263.747 128.364,272.313 137.018,291.247 155.962 M333.092 122.999 C 332.866 123.778,332.727 124.461,332.784 124.518 C 332.841 124.575,333.069 123.981,333.292 123.198 C 333.514 122.416,333.653 121.732,333.600 121.679 C 333.547 121.626,333.319 122.220,333.092 122.999 M381.312 124.008 C 381.314 124.271,381.430 124.654,381.569 124.860 C 381.754 125.133,381.777 125.032,381.655 124.486 C 381.450 123.570,381.307 123.371,381.312 124.008 M306.832 125.244 C 306.414 126.161,306.494 126.356,306.945 125.523 C 307.156 125.134,307.282 124.769,307.225 124.712 C 307.168 124.655,306.991 124.895,306.832 125.244 M331.599 127.819 C 331.403 128.437,332.305 128.190,321.800 130.506 L 313.009 132.444 318.678 138.117 C 321.796 141.237,324.425 143.708,324.520 143.608 C 324.789 143.327,328.010 137.365,328.085 137.011 C 328.121 136.839,328.600 135.745,329.149 134.579 C 330.312 132.110,332.033 127.588,331.870 127.426 C 331.809 127.365,331.687 127.541,331.599 127.819 M382.829 130.467 L 382.803 131.215 371.401 133.523 C 358.495 136.136,359.626 135.955,359.626 135.410 C 359.626 135.182,359.570 135.051,359.501 135.120 C 359.433 135.188,359.537 136.315,359.734 137.624 C 361.835 151.621,357.899 166.663,349.250 177.684 C 348.179 179.049,339.300 188.214,328.155 199.460 C 317.570 210.140,308.889 218.949,308.864 219.034 C 308.839 219.120,310.108 220.255,311.685 221.558 C 315.098 224.376,320.569 229.902,323.481 233.472 L 325.576 236.040 343.909 217.771 C 366.827 194.934,366.973 194.776,371.548 187.913 C 378.438 177.578,382.627 165.914,384.077 153.022 C 384.616 148.232,384.331 135.973,383.638 134.081 C 383.562 133.875,383.453 133.202,383.394 132.586 C 383.335 131.969,383.190 131.072,383.071 130.592 L 382.855 129.720 382.829 130.467 M217.885 130.272 C 218.264 130.330,218.825 130.328,219.131 130.269 C 219.438 130.210,219.128 130.163,218.442 130.165 C 217.757 130.167,217.506 130.215,217.885 130.272 M105.421 141.377 C 105.421 141.415,106.290 142.284,107.352 143.308 L 109.283 145.171 107.421 143.240 C 105.690 141.446,105.421 141.195,105.421 141.377 M112.392 153.707 L 110.779 155.389 112.461 153.777 C 114.024 152.279,114.257 152.025,114.074 152.025 C 114.036 152.025,113.279 152.782,112.392 153.707 M57.819 174.393 L 39.751 192.523 57.882 174.455 C 67.854 164.518,76.012 156.359,76.012 156.325 C 76.012 156.150,74.615 157.538,57.819 174.393 M89.838 159.946 C 90.793 160.935,91.607 161.745,91.647 161.745 C 91.879 161.745,90.915 160.687,89.610 159.510 L 88.100 158.147 89.838 159.946 M92.960 162.827 C 93.303 163.216,93.807 163.650,94.081 163.792 C 94.606 164.062,94.590 164.046,93.210 162.864 L 92.338 162.118 92.960 162.827 M81.994 163.069 C 81.994 163.112,82.358 163.476,82.804 163.879 L 83.614 164.611 82.882 163.801 C 82.199 163.046,81.994 162.876,81.994 163.069 M98.669 164.217 C 96.098 164.817,95.715 164.852,95.180 164.537 C 94.718 164.264,94.748 164.329,95.313 164.818 C 95.716 165.167,96.154 165.386,96.286 165.305 C 96.418 165.223,96.452 165.276,96.361 165.422 C 96.271 165.569,96.760 166.101,97.456 166.612 C 98.149 167.120,98.738 167.492,98.766 167.437 C 98.793 167.383,99.655 166.472,100.679 165.413 C 102.816 163.206,102.868 163.236,98.669 164.217 M84.114 182.181 L 75.144 191.277 84.228 182.253 C 89.224 177.290,93.261 173.196,93.198 173.157 C 93.135 173.117,89.047 177.178,84.114 182.181 M196.698 181.106 C 196.938 181.169,197.330 181.169,197.570 181.106 C 197.810 181.044,197.614 180.992,197.134 180.992 C 196.654 180.992,196.458 181.044,196.698 181.106 M198.695 181.113 C 199.074 181.171,199.635 181.169,199.941 181.110 C 200.248 181.051,199.938 181.004,199.252 181.006 C 198.567 181.008,198.316 181.056,198.695 181.113 M205.548 181.111 C 205.858 181.170,206.307 181.168,206.545 181.106 C 206.783 181.043,206.530 180.995,205.981 180.997 C 205.433 181.000,205.238 181.051,205.548 181.111 M32.030 189.153 C 31.785 189.424,31.470 189.575,31.330 189.488 C 31.179 189.395,31.152 189.455,31.265 189.638 C 31.426 189.898,32.648 189.107,32.648 188.742 C 32.648 188.557,32.451 188.688,32.030 189.153 M179.219 211.402 L 179.190 232.523 187.017 232.523 L 194.845 232.523 194.957 231.090 C 195.106 229.191,195.119 190.155,194.970 190.717 C 194.863 191.120,194.278 191.153,187.165 191.153 C 180.052 191.153,179.467 191.120,179.362 190.717 C 179.299 190.477,179.235 199.785,179.219 211.402 M248.029 190.717 C 247.978 191.128,246.839 191.153,228.037 191.153 L 208.100 191.153 208.100 193.880 C 208.100 197.796,205.716 197.383,228.303 197.383 C 250.856 197.383,248.277 197.905,248.162 193.367 C 248.118 191.669,248.059 190.477,248.029 190.717 M38.493 193.707 L 37.508 194.766 38.567 193.781 C 39.552 192.865,39.741 192.648,39.552 192.648 C 39.511 192.648,39.035 193.125,38.493 193.707 M68.260 209.034 C 61.176 216.177,59.065 218.462,59.065 218.991 C 59.065 219.127,75.075 235.149,94.642 254.596 C 114.209 274.043,129.958 289.662,129.641 289.305 L 129.064 288.656 131.012 288.225 C 140.402 286.152,139.962 286.279,140.975 285.347 C 142.792 283.674,146.542 279.548,146.542 279.220 C 146.542 279.137,146.882 278.662,147.298 278.164 C 148.285 276.983,148.369 276.873,148.909 276.048 L 149.367 275.350 134.060 259.980 C 95.106 220.865,75.878 201.620,75.751 201.620 C 75.675 201.620,72.304 204.956,68.260 209.034 M45.112 206.360 C 35.176 208.389,26.961 209.996,26.856 209.932 C 26.682 209.824,26.566 210.205,26.637 210.654 C 26.653 210.757,26.564 210.841,26.439 210.841 C 26.035 210.841,23.347 216.697,21.838 220.867 C 11.297 249.986,18.698 280.416,41.937 303.511 L 45.532 307.084 51.364 305.932 C 57.641 304.692,58.368 304.486,58.197 303.995 C 57.866 303.045,57.751 300.661,57.685 293.385 L 57.613 285.337 55.907 283.541 C 39.978 266.770,36.890 241.401,48.285 220.935 C 50.965 216.121,54.032 212.244,60.156 205.927 C 61.921 204.106,63.323 202.629,63.271 202.644 C 63.220 202.659,55.048 204.332,45.112 206.360 M369.203 203.551 C 368.817 204.065,365.032 207.954,360.790 212.193 L 353.078 219.901 354.599 222.910 C 356.099 225.878,356.830 227.584,357.543 229.782 C 357.743 230.399,358.003 231.128,358.120 231.402 C 358.339 231.914,359.096 234.677,359.273 235.613 C 359.522 236.926,359.615 237.330,359.681 237.381 C 359.719 237.411,364.910 236.335,371.215 234.990 C 377.520 233.646,382.714 232.541,382.757 232.535 C 382.825 232.525,382.621 231.088,382.454 230.405 C 382.420 230.268,382.255 229.483,382.085 228.660 C 381.916 227.838,381.621 226.660,381.429 226.044 C 380.030 221.544,379.658 220.431,378.886 218.442 C 377.862 215.803,375.345 210.597,374.067 208.474 C 373.572 207.651,373.120 206.855,373.063 206.703 C 372.783 205.959,370.431 202.623,370.185 202.620 C 370.030 202.618,369.588 203.037,369.203 203.551 M28.957 206.106 C 28.531 206.791,28.262 207.352,28.359 207.352 C 28.456 207.352,28.851 206.791,29.236 206.106 C 30.140 204.495,29.958 204.495,28.957 206.106 M27.465 208.615 C 27.155 209.154,26.951 209.595,27.013 209.595 C 27.184 209.595,28.232 207.837,28.124 207.729 C 28.072 207.677,27.775 208.076,27.465 208.615 M294.313 233.182 L 285.732 241.786 286.464 242.326 C 288.724 243.993,292.685 247.269,294.171 248.698 C 297.608 252.003,303.359 259.355,304.279 261.620 C 304.461 262.065,304.694 262.430,304.798 262.430 C 304.901 262.430,305.125 262.765,305.295 263.175 C 305.534 263.753,305.723 263.892,306.135 263.795 C 306.427 263.726,311.706 262.548,317.864 261.177 C 324.023 259.806,329.107 258.639,329.162 258.584 C 329.330 258.417,328.174 255.452,327.942 255.452 C 327.823 255.452,327.726 255.296,327.726 255.106 C 327.726 254.630,325.761 250.882,323.826 247.666 C 320.217 241.672,316.268 236.693,311.042 231.550 C 308.745 229.290,304.089 225.234,303.285 224.794 C 302.981 224.627,300.994 226.484,294.313 233.182 M275.498 252.504 C 272.178 255.845,270.964 257.212,271.402 257.113 C 271.745 257.036,275.389 256.232,279.502 255.326 C 288.603 253.321,287.851 253.567,286.973 252.888 C 286.580 252.585,286.028 252.108,285.746 251.829 C 284.896 250.988,281.850 248.720,280.482 247.910 C 280.336 247.824,278.093 249.891,275.498 252.504 M76.465 250.025 C 68.530 263.753,64.340 282.100,65.665 297.321 C 65.855 299.499,66.045 301.144,66.116 301.215 C 66.169 301.268,85.211 296.875,88.847 295.971 C 89.319 295.853,89.348 295.623,89.384 291.662 C 89.456 283.716,91.204 275.360,94.278 268.260 L 95.153 266.240 86.261 257.351 L 77.369 248.462 76.465 250.025 M153.106 283.676 C 141.763 298.709,124.181 307.404,105.109 307.412 C 101.153 307.414,99.689 307.493,99.689 307.704 C 99.688 308.723,102.638 315.378,104.207 317.901 L 105.305 319.665 135.192 313.024 L 165.079 306.384 166.441 305.030 C 167.678 303.801,170.627 300.429,171.813 298.888 L 172.286 298.273 168.324 294.246 C 157.534 283.277,155.380 281.121,155.214 281.121 C 155.115 281.121,154.166 282.271,153.106 283.676 " stroke="none" fill="#c5ad68" fill-rule="evenodd"></path><path id="path2" d="M309.159 38.131 C 310.662 39.639,311.948 40.872,312.016 40.872 C 312.085 40.872,310.911 39.639,309.408 38.131 C 307.905 36.623,306.619 35.389,306.551 35.389 C 306.482 35.389,307.656 36.623,309.159 38.131 M313.146 42.090 C 313.646 42.722,314.982 44.221,316.504 45.857 C 316.989 46.378,316.909 46.227,316.305 45.483 C 315.748 44.798,314.698 43.612,313.971 42.848 C 313.243 42.084,312.872 41.743,313.146 42.090 M304.817 51.120 L 291.504 54.099 290.487 53.160 C 289.928 52.643,291.284 54.069,293.501 56.328 C 311.946 75.126,317.175 99.835,307.730 123.570 L 306.706 126.143 309.857 129.294 L 313.007 132.444 321.800 130.506 C 326.635 129.440,330.772 128.516,330.993 128.453 C 331.481 128.313,332.063 127.015,332.597 124.874 C 332.818 123.991,333.151 122.813,333.339 122.257 C 333.526 121.701,333.733 120.966,333.798 120.623 C 333.863 120.280,334.096 119.271,334.315 118.380 C 334.741 116.648,335.413 113.085,335.584 111.651 C 336.076 107.529,336.206 105.645,336.298 101.308 C 336.548 89.386,334.268 77.848,329.427 66.545 C 327.308 61.599,322.896 53.707,322.416 54.004 C 322.278 54.089,322.236 54.044,322.322 53.905 C 322.544 53.547,318.730 48.066,318.297 48.120 C 318.206 48.132,312.140 49.482,304.817 51.120 M220.556 51.153 C 222.983 53.641,223.302 53.945,223.302 53.765 C 223.302 53.728,222.097 52.523,220.623 51.086 L 217.944 48.474 220.556 51.153 M196.636 61.433 C 200.815 65.614,204.290 69.034,204.358 69.034 C 204.427 69.034,201.064 65.614,196.885 61.433 C 192.706 57.252,189.230 53.832,189.162 53.832 C 189.093 53.832,192.457 57.252,196.636 61.433 M171.711 60.498 L 165.607 66.667 171.776 60.563 C 177.507 54.891,178.056 54.330,177.880 54.330 C 177.844 54.330,175.069 57.106,171.711 60.498 M188.410 64.112 L 195.261 71.027 193.767 72.476 C 192.946 73.274,189.798 76.359,186.772 79.334 L 181.269 84.741 159.986 89.474 C 148.280 92.076,138.645 94.206,138.575 94.206 C 138.505 94.206,140.577 92.047,143.180 89.408 C 145.783 86.769,149.714 82.760,151.915 80.498 C 154.116 78.237,144.428 87.873,130.386 101.912 L 104.855 127.437 105.325 128.324 C 106.569 130.672,110.610 135.600,113.645 138.470 C 116.238 140.922,120.951 144.548,121.545 144.548 C 121.657 144.548,134.340 131.954,149.730 116.562 C 165.121 101.169,177.742 88.604,177.777 88.639 C 177.812 88.674,181.817 84.726,186.677 79.865 L 195.512 71.027 188.535 64.112 L 181.559 57.196 188.410 64.112 M228.027 58.879 C 229.060 59.979,229.283 60.177,229.283 59.990 C 229.283 59.950,228.751 59.417,228.100 58.806 L 226.916 57.695 228.027 58.879 M286.743 61.285 C 286.667 61.409,286.400 61.457,286.150 61.392 C 285.634 61.257,278.346 62.479,277.389 62.861 C 277.043 62.999,276.424 63.147,276.012 63.190 C 275.601 63.232,274.928 63.405,274.517 63.573 C 274.106 63.741,273.657 63.894,273.520 63.914 C 272.272 64.094,271.432 64.395,271.567 64.614 C 271.660 64.765,271.608 64.800,271.442 64.698 C 271.101 64.487,268.384 65.299,268.547 65.564 C 268.610 65.665,268.453 65.694,268.199 65.627 C 267.946 65.561,267.580 65.664,267.387 65.857 C 267.194 66.050,266.897 66.162,266.727 66.105 C 266.557 66.048,266.417 66.130,266.417 66.287 C 266.417 66.443,266.305 66.502,266.168 66.417 C 266.031 66.333,265.919 66.389,265.919 66.542 C 265.919 66.695,265.818 66.758,265.694 66.682 C 265.366 66.479,262.139 67.909,262.364 68.157 C 262.469 68.272,262.418 68.288,262.250 68.192 C 261.927 68.006,260.436 68.666,260.128 69.131 C 260.028 69.284,259.944 69.315,259.942 69.201 C 259.939 69.087,258.520 69.734,256.787 70.638 C 246.824 75.839,236.641 84.407,230.162 93.039 L 229.447 93.991 234.036 98.584 C 236.559 101.111,238.799 103.178,239.011 103.178 C 240.503 103.178,257.695 99.025,257.695 98.665 C 257.695 98.543,257.862 98.442,258.066 98.442 C 258.271 98.442,258.578 98.218,258.749 97.944 C 258.921 97.670,259.193 97.445,259.354 97.445 C 259.515 97.445,259.684 97.361,259.730 97.259 C 259.841 97.008,262.610 94.953,262.836 94.953 C 262.934 94.953,263.191 94.796,263.407 94.605 C 263.624 94.413,264.249 94.001,264.798 93.689 C 268.273 91.711,270.557 90.472,270.732 90.470 C 270.843 90.468,271.516 90.201,272.227 89.876 C 276.413 87.963,282.822 86.083,287.601 85.368 C 291.748 84.747,299.777 84.467,301.443 84.884 C 302.330 85.107,302.248 84.595,300.808 80.959 C 298.138 74.215,294.287 68.295,289.120 62.991 C 287.218 61.038,286.995 60.878,286.743 61.285 M237.496 68.340 C 239.202 70.083,240.544 71.564,240.477 71.631 C 240.411 71.697,234.304 73.098,226.907 74.744 L 213.458 77.737 210.289 74.581 C 208.546 72.846,207.064 71.482,206.996 71.550 C 206.929 71.618,210.662 75.461,215.292 80.090 L 223.712 88.507 225.314 86.539 C 228.036 83.196,231.197 79.755,232.839 78.349 C 233.339 77.920,233.697 77.499,233.634 77.414 C 233.571 77.328,233.592 77.312,233.680 77.376 C 233.767 77.441,234.439 76.946,235.173 76.275 C 235.906 75.605,237.461 74.300,238.627 73.376 C 239.793 72.451,240.748 71.628,240.748 71.545 C 240.748 71.462,239.318 69.994,237.570 68.283 L 234.393 65.171 237.496 68.340 M340.327 73.707 C 342.864 81.932,343.961 89.513,344.078 99.643 L 344.163 106.950 346.064 108.989 C 349.648 112.832,354.099 119.361,355.440 122.741 C 355.658 123.290,356.115 124.355,356.456 125.109 C 357.315 127.005,358.209 129.763,359.009 132.979 C 359.381 134.476,359.720 135.739,359.762 135.786 C 359.803 135.832,365.011 134.823,371.334 133.543 L 382.831 131.215 382.773 130.218 C 382.741 129.670,382.614 128.941,382.491 128.598 C 382.368 128.255,382.227 127.655,382.177 127.263 C 382.127 126.871,381.903 125.918,381.680 125.144 C 381.456 124.371,381.098 123.121,380.884 122.368 C 379.372 117.044,375.920 109.440,372.656 104.241 C 366.181 93.926,353.677 81.304,343.107 74.412 C 339.681 72.178,339.870 72.226,340.327 73.707 M131.112 89.819 C 130.953 90.010,130.603 90.109,130.334 90.039 C 130.064 89.968,129.844 89.967,129.844 90.035 C 129.844 90.420,130.869 90.352,131.239 89.942 C 131.474 89.683,131.606 89.470,131.533 89.470 C 131.460 89.470,131.271 89.627,131.112 89.819 M89.538 95.701 C 89.538 96.318,89.587 96.570,89.646 96.262 C 89.706 95.953,89.706 95.449,89.646 95.140 C 89.587 94.832,89.538 95.084,89.538 95.701 M266.645 101.964 C 262.906 104.525,259.089 108.018,256.106 111.608 C 254.473 113.574,252.424 116.633,252.505 116.983 C 252.550 117.173,260.469 125.115,270.104 134.633 L 287.621 151.937 301.193 148.928 C 308.657 147.273,314.765 145.835,314.765 145.733 C 314.767 145.498,269.649 100.187,269.414 100.187 C 269.319 100.187,268.073 100.987,266.645 101.964 M79.875 104.182 C 75.078 105.263,70.816 106.221,70.405 106.309 L 69.657 106.471 70.530 105.522 L 71.402 104.573 70.405 105.420 C 69.857 105.886,69.439 106.365,69.477 106.485 C 69.514 106.605,69.450 106.645,69.333 106.573 C 68.946 106.333,65.655 109.867,65.971 110.183 C 66.127 110.339,66.196 110.617,66.125 110.801 C 65.824 111.585,67.501 119.890,68.933 124.706 C 73.315 139.447,82.742 154.135,93.708 163.305 C 95.778 165.036,95.434 164.975,98.785 164.205 C 100.447 163.823,101.972 163.505,102.174 163.500 C 102.377 163.494,101.707 164.330,100.685 165.358 C 99.664 166.386,98.891 167.227,98.967 167.227 C 99.043 167.227,102.869 163.424,107.470 158.776 L 115.834 150.324 114.428 149.294 C 100.626 139.186,90.927 122.339,89.816 106.542 C 89.758 105.720,89.639 104.654,89.552 104.174 C 89.465 103.695,89.383 103.080,89.370 102.808 C 89.333 102.060,89.224 102.076,79.875 104.182 M29.316 103.738 L 28.868 104.548 29.382 103.925 C 29.837 103.373,30.040 102.928,29.836 102.928 C 29.797 102.928,29.563 103.293,29.316 103.738 M58.185 106.231 L 56.698 107.788 58.255 106.301 C 59.702 104.919,59.927 104.673,59.743 104.673 C 59.704 104.673,59.003 105.374,58.185 106.231 M54.179 110.467 C 53.415 111.295,52.521 112.475,52.999 112.025 C 53.531 111.523,55.133 109.657,55.031 109.657 C 54.974 109.657,54.590 110.022,54.179 110.467 M24.344 112.784 C 23.758 114.012,23.841 114.221,24.453 113.061 C 24.731 112.534,24.914 112.058,24.860 112.005 C 24.806 111.951,24.574 112.301,24.344 112.784 M51.452 113.876 C 51.233 114.090,23.257 120.082,21.987 120.187 C 21.510 120.227,21.324 120.540,20.809 122.169 C 15.053 140.389,16.479 160.871,24.710 178.193 C 26.468 181.893,28.801 185.965,30.611 188.493 L 31.473 189.697 40.128 181.053 L 48.782 172.409 47.583 170.130 C 40.169 156.037,39.434 138.896,45.627 124.507 C 46.153 123.286,46.515 122.175,46.431 122.039 C 46.347 121.903,46.391 121.862,46.529 121.947 C 46.847 122.144,47.416 120.935,47.191 120.542 C 47.098 120.381,47.116 120.334,47.231 120.438 C 47.415 120.605,48.809 118.401,48.927 117.758 C 48.952 117.621,49.094 117.397,49.244 117.259 C 49.541 116.985,51.862 113.645,51.755 113.645 C 51.718 113.645,51.582 113.749,51.452 113.876 M212.025 130.276 C 212.607 130.328,213.561 130.328,214.143 130.276 C 214.726 130.223,214.249 130.181,213.084 130.181 C 211.919 130.181,211.442 130.223,212.025 130.276 M215.763 130.269 C 216.072 130.329,216.576 130.329,216.885 130.269 C 217.193 130.210,216.941 130.161,216.324 130.161 C 215.707 130.161,215.455 130.210,215.763 130.269 M248.287 137.695 C 248.290 138.243,248.341 138.438,248.401 138.128 C 248.460 137.818,248.458 137.369,248.396 137.131 C 248.333 136.893,248.284 137.146,248.287 137.695 M248.310 141.433 C 248.311 142.530,248.354 142.947,248.407 142.361 C 248.460 141.775,248.459 140.878,248.405 140.367 C 248.352 139.857,248.309 140.336,248.310 141.433 M195.198 144.548 C 195.198 145.028,195.249 145.224,195.312 144.984 C 195.375 144.745,195.375 144.352,195.312 144.112 C 195.249 143.872,195.198 144.069,195.198 144.548 M248.282 144.548 C 248.282 145.028,248.333 145.224,248.396 144.984 C 248.459 144.745,248.459 144.352,248.396 144.112 C 248.333 143.872,248.282 144.069,248.282 144.548 M234.082 152.150 C 234.084 152.698,234.135 152.893,234.195 152.583 C 234.255 152.273,234.252 151.824,234.190 151.586 C 234.128 151.348,234.079 151.601,234.082 152.150 M179.243 170.833 C 179.224 181.383,179.272 190.271,179.351 190.584 L 179.493 191.153 187.163 191.153 L 194.833 191.153 194.983 190.592 C 195.066 190.283,195.135 188.260,195.137 186.095 C 195.142 180.618,194.672 180.976,201.726 181.057 C 208.665 181.135,208.059 180.612,208.145 186.604 L 208.211 191.153 228.066 191.153 L 247.921 191.153 248.053 190.592 C 248.536 188.530,248.232 182.165,247.620 181.554 L 247.001 180.935 241.047 180.935 C 235.641 180.935,235.056 180.893,234.689 180.488 C 234.328 180.090,234.282 178.662,234.257 167.155 L 234.228 154.268 206.847 154.268 L 179.465 154.268 179.372 152.960 C 179.320 152.240,179.262 160.283,179.243 170.833 M56.637 175.763 C 45.912 186.489,36.945 195.545,36.709 195.888 C 36.473 196.231,36.019 196.791,35.699 197.134 C 34.714 198.192,31.402 202.588,31.402 202.838 C 31.402 202.967,31.318 203.111,31.215 203.157 C 31.014 203.246,30.087 204.621,29.142 206.231 C 28.820 206.779,28.468 207.265,28.360 207.310 C 28.251 207.356,28.162 207.526,28.162 207.689 C 28.162 207.851,27.872 208.411,27.517 208.933 C 27.162 209.456,26.910 209.921,26.956 209.967 C 27.026 210.037,61.379 203.153,62.913 202.762 C 63.179 202.694,62.115 203.952,60.547 205.556 C 58.980 207.161,65.632 200.567,75.329 190.904 C 85.026 181.241,92.932 173.269,92.897 173.189 C 92.863 173.109,91.657 172.036,90.218 170.803 C 85.182 166.492,78.804 159.849,76.878 156.909 C 76.644 156.553,76.382 156.262,76.295 156.262 C 76.208 156.262,67.362 165.038,56.637 175.763 " stroke="none" fill="#d3bc74" fill-rule="evenodd"></path><path id="path3" d="M148.910 12.759 C 148.361 12.888,145.670 13.082,142.928 13.190 C 130.723 13.672,117.687 18.258,106.168 26.123 C 97.109 32.308,83.689 46.254,78.518 54.855 C 77.022 57.345,76.879 57.190,79.854 56.305 C 87.301 54.091,94.939 53.048,104.497 52.939 L 111.674 52.857 113.719 50.952 C 131.126 34.734,157.249 32.093,177.695 44.484 C 182.371 47.318,184.545 49.222,195.764 60.312 C 201.797 66.274,208.246 72.633,210.095 74.442 L 213.458 77.731 226.907 74.741 C 234.304 73.097,240.407 71.701,240.470 71.638 C 240.592 71.516,238.236 69.076,226.047 56.698 C 199.893 30.140,198.035 28.464,188.536 22.854 C 179.040 17.245,165.855 13.215,156.993 13.210 C 154.131 13.209,152.399 13.052,150.280 12.603 C 150.075 12.560,149.458 12.630,148.910 12.759 M248.847 12.624 C 235.862 13.216,223.498 16.823,212.666 23.181 C 209.966 24.766,207.371 26.488,207.360 26.701 C 207.356 26.788,211.241 30.726,215.994 35.452 L 224.636 44.045 227.153 42.730 C 232.620 39.876,238.277 38.076,244.860 37.094 C 248.884 36.495,256.985 36.709,261.308 37.531 C 264.840 38.202,266.273 38.584,269.782 39.789 C 272.242 40.634,279.060 43.839,279.681 44.442 C 279.856 44.613,280.607 45.123,281.349 45.576 C 282.090 46.029,282.835 46.530,283.003 46.689 C 283.172 46.848,283.621 47.202,284.001 47.477 C 284.382 47.751,284.835 48.115,285.008 48.287 C 285.181 48.458,285.401 48.598,285.497 48.598 C 285.671 48.598,286.365 49.228,289.720 52.426 C 290.967 53.616,291.606 54.059,291.963 53.981 C 308.834 50.278,317.922 48.234,318.070 48.107 C 318.221 47.979,316.499 45.871,313.655 42.701 C 307.801 36.176,299.321 28.537,294.579 25.517 C 293.963 25.124,293.402 24.739,293.333 24.662 C 292.921 24.198,289.237 22.165,285.483 20.330 C 274.383 14.903,260.929 12.073,248.847 12.624 M158.276 74.182 C 147.433 85.100,138.599 94.071,138.644 94.117 C 138.690 94.163,148.286 92.075,159.969 89.477 L 181.210 84.754 188.113 77.995 C 191.909 74.277,195.016 71.135,195.016 71.012 C 195.016 70.515,178.622 54.330,178.119 54.330 C 178.049 54.330,169.120 63.263,158.276 74.182 M100.062 60.747 C 83.586 61.425,64.976 68.613,51.865 79.362 C 47.086 83.279,37.808 92.466,35.016 96.045 C 34.604 96.572,34.012 97.299,33.699 97.661 C 33.061 98.398,30.087 102.646,29.929 103.045 C 29.873 103.186,29.285 104.101,28.621 105.077 C 27.957 106.053,27.414 106.933,27.414 107.032 C 27.414 107.132,27.182 107.538,26.899 107.937 C 26.615 108.335,26.449 108.660,26.528 108.660 C 26.608 108.660,26.417 109.081,26.103 109.595 C 25.790 110.109,25.410 110.810,25.258 111.153 C 24.221 113.491,23.382 115.456,22.918 116.636 C 22.035 118.882,21.993 118.993,21.940 119.252 C 21.912 119.389,21.781 119.632,21.649 119.791 C 21.137 120.407,22.250 120.214,36.511 117.210 C 51.765 113.996,52.336 113.832,52.336 112.659 C 52.336 112.516,52.424 112.399,52.532 112.399 C 52.639 112.399,52.932 112.052,53.183 111.628 C 53.993 110.256,65.088 99.391,67.144 97.955 C 67.430 97.756,67.776 97.458,67.913 97.294 C 68.050 97.129,69.508 96.101,71.153 95.009 C 79.763 89.291,88.123 86.280,98.941 85.000 C 100.819 84.778,110.736 84.824,111.900 85.060 C 112.243 85.130,113.084 85.256,113.769 85.341 C 115.856 85.599,116.697 85.750,118.255 86.148 C 120.453 86.708,120.709 86.768,121.137 86.826 C 121.351 86.855,121.856 86.998,122.258 87.143 C 122.661 87.288,124.000 87.729,125.234 88.123 C 126.467 88.518,127.514 88.926,127.560 89.031 C 127.605 89.136,127.835 89.221,128.071 89.221 C 128.306 89.221,128.605 89.323,128.735 89.447 C 128.865 89.572,129.414 89.793,129.954 89.939 L 130.937 90.204 139.729 81.444 C 147.976 73.228,148.491 72.663,148.031 72.341 C 141.346 67.659,125.138 62.254,114.642 61.206 C 108.329 60.576,105.999 60.503,100.062 60.747 M88.785 95.210 C 88.477 95.334,88.224 95.369,88.224 95.289 C 88.224 95.208,88.084 95.252,87.913 95.387 C 87.741 95.522,87.265 95.713,86.855 95.811 C 86.125 95.986,83.237 97.271,81.495 98.195 C 81.016 98.449,79.965 99.007,79.162 99.433 C 78.358 99.859,77.537 100.372,77.337 100.571 C 77.137 100.771,76.868 100.935,76.740 100.935 C 76.239 100.935,71.143 104.795,70.156 105.923 L 69.657 106.492 70.280 106.343 C 74.684 105.286,89.050 102.200,89.183 102.281 C 89.279 102.341,89.377 100.717,89.399 98.672 C 89.421 96.627,89.418 94.960,89.392 94.969 C 89.367 94.978,89.093 95.086,88.785 95.210 M184.174 119.027 C 182.066 119.588,180.691 120.552,179.951 121.989 L 179.315 123.226 179.242 136.193 C 179.202 143.324,179.240 150.308,179.328 151.713 L 179.487 154.268 206.815 154.268 L 234.143 154.268 234.202 151.114 C 234.246 148.775,234.360 147.810,234.644 147.376 L 235.027 146.791 241.118 146.791 C 248.090 146.791,248.218 146.754,248.231 144.688 C 248.234 144.132,248.278 141.114,248.329 137.983 C 248.421 132.229,248.276 130.761,247.586 130.496 C 247.378 130.416,238.605 130.344,228.090 130.336 L 208.972 130.321 208.536 130.858 C 208.143 131.341,208.100 132.106,208.100 138.556 C 208.100 145.177,208.065 145.748,207.644 146.130 C 206.920 146.785,196.692 146.745,195.876 146.084 L 195.310 145.626 195.361 134.931 C 195.418 122.815,195.372 122.421,193.715 120.833 C 191.594 118.801,187.754 118.074,184.174 119.027 " stroke="none" fill="#dcbc74" fill-rule="evenodd"></path><path id="path4" d="M222.181 41.869 C 223.409 43.103,224.469 44.112,224.538 44.112 C 224.606 44.112,223.658 43.103,222.430 41.869 C 221.202 40.636,220.141 39.626,220.073 39.626 C 220.004 39.626,220.953 40.636,222.181 41.869 M232.020 96.760 C 234.447 99.249,234.766 99.552,234.766 99.372 C 234.766 99.336,233.561 98.130,232.087 96.693 L 229.408 94.081 232.020 96.760 M245.109 109.907 C 245.784 110.592,246.392 111.153,246.461 111.153 C 246.530 111.153,246.033 110.592,245.358 109.907 C 244.683 109.221,244.075 108.660,244.006 108.660 C 243.938 108.660,244.434 109.221,245.109 109.907 M298.692 129.346 C 299.367 130.031,299.975 130.592,300.044 130.592 C 300.112 130.592,299.616 130.031,298.941 129.346 C 298.266 128.660,297.657 128.100,297.589 128.100 C 297.520 128.100,298.017 128.660,298.692 129.346 M220.000 130.269 C 220.308 130.329,220.813 130.329,221.121 130.269 C 221.430 130.210,221.178 130.161,220.561 130.161 C 219.944 130.161,219.692 130.210,220.000 130.269 M295.078 159.875 C 298.708 163.508,301.735 166.480,301.803 166.480 C 301.872 166.480,298.958 163.508,295.327 159.875 C 291.697 156.243,288.670 153.271,288.602 153.271 C 288.533 153.271,291.447 156.243,295.078 159.875 M335.327 165.981 C 339.300 169.956,342.607 173.209,342.676 173.209 C 342.744 173.209,339.550 169.956,335.576 165.981 C 331.603 162.006,328.296 158.754,328.228 158.754 C 328.159 158.754,331.354 162.006,335.327 165.981 M338.193 178.318 C 337.588 178.935,337.149 179.439,337.217 179.439 C 337.286 179.439,337.837 178.935,338.442 178.318 C 339.048 177.701,339.487 177.196,339.418 177.196 C 339.350 177.196,338.799 177.701,338.193 178.318 M319.625 207.913 L 308.411 219.190 319.688 207.976 C 325.891 201.808,330.966 196.734,330.966 196.699 C 330.966 196.524,330.048 197.431,319.625 207.913 M343.800 217.882 L 325.607 236.137 343.863 217.945 C 360.833 201.033,362.230 199.626,362.055 199.626 C 362.021 199.626,353.806 207.841,343.800 217.882 M364.470 208.411 L 363.738 209.221 364.548 208.489 C 364.994 208.087,365.358 207.722,365.358 207.679 C 365.358 207.487,365.153 207.656,364.470 208.411 M360.234 212.648 L 359.502 213.458 360.312 212.726 C 361.067 212.044,361.236 211.838,361.044 211.838 C 361.001 211.838,360.636 212.202,360.234 212.648 M358.489 214.393 L 357.757 215.202 358.567 214.471 C 359.322 213.788,359.492 213.583,359.299 213.583 C 359.256 213.583,358.892 213.947,358.489 214.393 M179.018 230.405 C 179.019 231.227,179.066 231.534,179.121 231.086 C 179.177 230.638,179.176 229.965,179.119 229.591 C 179.062 229.216,179.017 229.583,179.018 230.405 M194.950 231.215 L 194.891 232.523 187.057 232.523 C 179.812 232.523,179.214 232.556,179.094 232.960 C 179.022 233.199,179.006 237.938,179.059 243.489 C 179.111 249.040,179.162 254.452,179.172 255.514 L 179.190 257.445 187.015 257.445 L 194.840 257.445 195.005 254.143 C 195.095 252.327,195.134 246.131,195.090 240.374 C 195.046 234.617,194.983 230.495,194.950 231.215 M382.731 232.025 C 382.803 232.299,382.821 232.528,382.771 232.535 C 382.720 232.541,377.520 233.644,371.215 234.987 C 363.209 236.692,359.688 237.346,359.544 237.157 C 359.430 237.007,359.413 237.221,359.506 237.632 C 360.020 239.900,360.426 246.365,360.250 249.470 C 359.611 260.722,355.849 270.930,349.037 279.891 C 347.141 282.386,336.105 293.292,333.707 295.041 C 332.542 295.891,331.327 296.807,331.007 297.078 C 330.687 297.349,330.350 297.570,330.259 297.570 C 330.168 297.571,329.447 298.019,328.658 298.567 C 327.868 299.115,327.111 299.564,326.976 299.564 C 326.840 299.564,326.729 299.683,326.729 299.828 C 326.729 299.973,326.626 300.028,326.501 299.951 C 326.376 299.873,326.235 299.899,326.190 300.008 C 326.104 300.210,321.340 302.615,320.857 302.699 C 320.712 302.725,319.952 303.039,319.168 303.398 C 318.384 303.756,317.632 304.050,317.497 304.050 C 317.362 304.050,317.057 304.151,316.819 304.274 C 316.581 304.398,315.769 304.676,315.016 304.892 C 314.262 305.108,313.028 305.474,312.274 305.705 C 311.520 305.936,310.679 306.157,310.405 306.195 C 310.131 306.234,308.953 306.434,307.788 306.639 C 303.127 307.461,302.066 307.551,296.573 307.591 C 292.233 307.623,289.289 307.413,287.103 306.917 C 286.345 306.745,284.244 306.326,283.290 306.156 C 281.925 305.914,275.464 303.815,273.395 302.943 C 272.239 302.455,271.176 302.056,271.034 302.056 C 270.733 302.056,253.300 319.439,253.469 319.571 C 253.531 319.621,253.983 319.890,254.473 320.170 L 255.364 320.679 310.159 309.130 C 340.296 302.778,365.005 297.633,365.068 297.696 C 365.131 297.759,365.402 297.560,365.669 297.254 C 367.855 294.754,368.504 293.975,368.701 293.619 C 368.827 293.393,369.004 293.153,369.095 293.084 C 369.187 293.016,369.995 291.894,370.892 290.592 C 380.544 276.578,385.309 259.609,384.298 242.845 C 384.034 238.471,383.365 233.194,383.059 233.075 C 382.958 233.036,382.927 232.741,382.988 232.419 C 383.050 232.097,382.988 231.765,382.850 231.680 C 382.702 231.588,382.654 231.728,382.731 232.025 M134.081 260.062 C 142.510 268.492,149.463 275.389,149.531 275.389 C 149.600 275.389,142.759 268.492,134.330 260.062 C 125.901 251.632,118.949 244.735,118.880 244.735 C 118.811 244.735,125.652 251.632,134.081 260.062 M243.364 284.258 C 223.215 304.486,206.700 321.114,206.665 321.208 C 206.630 321.303,208.817 323.518,211.525 326.131 L 216.449 330.881 225.459 328.867 L 234.469 326.854 235.801 325.616 C 236.534 324.935,250.588 310.993,267.031 294.634 L 296.929 264.889 296.374 263.846 C 294.550 260.415,288.308 253.339,287.314 253.576 C 285.781 253.941,271.042 257.196,270.921 257.196 C 270.846 257.196,272.906 255.072,275.500 252.475 C 278.094 249.878,280.326 247.821,280.458 247.903 C 280.592 247.985,280.620 247.923,280.522 247.764 C 280.424 247.606,280.267 247.477,280.172 247.478 C 280.077 247.479,263.514 264.030,243.364 284.258 M111.401 271.464 C 122.709 282.807,132.074 292.088,132.211 292.088 C 132.628 292.091,137.152 288.940,138.399 287.779 C 139.042 287.181,139.602 286.726,139.645 286.769 C 139.688 286.811,140.107 286.427,140.578 285.916 C 141.330 285.097,141.343 285.063,140.685 285.630 C 140.071 286.161,138.987 286.484,134.589 287.448 C 131.647 288.093,129.184 288.676,129.117 288.744 C 129.049 288.812,120.409 280.312,109.917 269.854 L 90.841 250.841 111.401 271.464 M285.607 251.685 C 285.607 251.806,285.916 252.103,286.293 252.344 L 286.978 252.782 286.374 252.123 C 285.721 251.411,285.607 251.346,285.607 251.685 M328.743 256.998 C 328.732 257.094,328.853 257.459,329.012 257.809 C 329.408 258.678,330.287 258.412,317.864 261.177 C 311.706 262.548,306.427 263.726,306.135 263.795 C 305.723 263.892,305.534 263.753,305.295 263.175 C 305.125 262.765,304.899 262.430,304.791 262.430 C 304.684 262.430,304.930 263.046,305.338 263.800 C 309.881 272.188,312.451 283.269,312.231 293.521 C 312.186 295.611,312.225 297.321,312.317 297.321 C 315.947 297.314,327.986 290.131,333.878 284.457 L 335.918 282.492 335.664 280.748 C 334.729 274.322,333.155 267.998,331.127 262.523 C 330.029 259.561,328.782 256.668,328.743 256.998 M147.041 278.504 C 146.720 278.846,146.512 279.181,146.580 279.248 C 146.647 279.316,146.950 279.036,147.253 278.626 C 147.923 277.719,147.830 277.665,147.041 278.504 M143.170 283.178 L 141.682 284.735 143.240 283.248 C 144.097 282.430,144.798 281.729,144.798 281.690 C 144.798 281.506,144.552 281.731,143.170 283.178 M89.528 287.352 C 89.528 287.832,89.580 288.028,89.642 287.788 C 89.705 287.548,89.705 287.156,89.642 286.916 C 89.580 286.676,89.528 286.872,89.528 287.352 M65.359 289.470 C 65.362 290.019,65.413 290.214,65.472 289.904 C 65.532 289.594,65.530 289.145,65.467 288.907 C 65.405 288.668,65.356 288.922,65.359 289.470 M89.279 291.090 C 89.279 291.570,89.330 291.766,89.393 291.526 C 89.456 291.287,89.456 290.894,89.393 290.654 C 89.330 290.414,89.279 290.611,89.279 291.090 M168.224 294.206 C 170.346 296.330,172.137 298.069,172.206 298.069 C 172.274 298.069,170.595 296.330,168.474 294.206 C 166.352 292.081,164.561 290.343,164.492 290.343 C 164.423 290.343,166.103 292.081,168.224 294.206 M65.388 293.084 C 65.388 294.523,65.429 295.112,65.480 294.393 C 65.530 293.673,65.530 292.495,65.480 291.776 C 65.429 291.056,65.388 291.645,65.388 293.084 M77.632 298.585 C 71.327 300.078,66.148 301.301,66.124 301.304 C 66.100 301.306,66.021 301.112,65.948 300.872 C 65.875 300.632,65.870 300.829,65.937 301.308 C 66.004 301.788,66.058 302.405,66.058 302.679 C 66.052 311.069,72.549 328.387,79.787 339.270 C 82.911 343.967,92.259 354.599,92.688 353.943 C 92.769 353.820,99.003 352.283,106.542 350.526 C 121.909 346.945,121.060 347.227,119.592 346.194 C 118.994 345.774,118.369 345.315,118.204 345.176 C 118.038 345.036,117.834 344.922,117.750 344.922 C 117.666 344.922,117.456 344.782,117.285 344.611 C 117.113 344.439,116.431 343.850,115.768 343.302 C 112.448 340.556,104.237 331.984,101.709 328.625 C 95.142 319.898,90.509 307.998,89.802 298.044 C 89.705 296.669,89.541 295.834,89.371 295.848 C 89.220 295.861,83.938 297.093,77.632 298.585 M57.638 297.570 C 57.638 298.187,57.687 298.439,57.746 298.131 C 57.805 297.822,57.805 297.318,57.746 297.009 C 57.687 296.701,57.638 296.953,57.638 297.570 M43.230 304.932 C 49.610 311.312,60.974 320.418,61.678 319.714 C 61.727 319.664,61.490 318.671,61.151 317.507 C 60.315 314.635,59.132 309.307,58.736 306.625 C 58.486 304.935,58.327 304.446,58.052 304.521 C 57.856 304.575,54.958 305.173,51.613 305.851 L 45.532 307.084 41.635 303.261 C 39.491 301.159,40.209 301.911,43.230 304.932 M57.877 301.059 C 57.877 301.539,57.928 301.735,57.991 301.495 C 58.054 301.255,58.054 300.863,57.991 300.623 C 57.928 300.383,57.877 300.579,57.877 301.059 M360.736 302.368 L 359.751 303.427 360.810 302.442 C 361.795 301.525,361.984 301.308,361.795 301.308 C 361.754 301.308,361.278 301.785,360.736 302.368 M57.986 302.928 C 58.175 304.160,58.319 304.370,58.314 303.406 C 58.312 303.006,58.203 302.511,58.072 302.305 C 57.909 302.051,57.882 302.249,57.986 302.928 M167.586 303.863 L 166.854 304.673 167.664 303.941 C 168.109 303.538,168.474 303.174,168.474 303.131 C 168.474 302.938,168.268 303.108,167.586 303.863 M176.947 304.985 C 173.582 309.496,167.167 315.836,161.955 319.800 L 160.795 320.682 168.654 328.574 C 172.976 332.914,177.100 336.966,177.817 337.579 L 179.121 338.693 192.406 335.452 C 199.713 333.670,205.748 332.154,205.817 332.085 C 205.887 332.016,199.615 325.627,191.881 317.888 L 177.819 303.816 176.947 304.985 M165.132 306.228 C 165.031 306.330,151.526 309.397,135.122 313.044 L 105.296 319.674 104.590 318.466 C 104.202 317.802,103.827 317.259,103.756 317.259 C 103.541 317.259,104.958 319.606,105.374 319.938 C 105.589 320.109,105.683 320.249,105.584 320.249 C 105.321 320.249,107.255 323.060,109.014 325.234 C 111.196 327.929,114.383 331.200,114.724 331.091 C 114.884 331.040,115.632 330.932,116.386 330.851 C 126.743 329.740,140.064 324.939,149.988 318.741 C 155.066 315.571,164.305 308.120,165.308 306.388 C 165.524 306.016,165.430 305.931,165.132 306.228 " stroke="none" fill="#bca45c" fill-rule="evenodd"></path></g></svg>