<svg id="svg" version="1.1" xmlns="http://www.w3.org/2000/svg" xmlns:xlink="http://www.w3.org/1999/xlink" width="400" height="400" viewBox="0, 0, 400,400"><g id="svgg"><path id="path0" d="M218.909 120.522 C 218.721 120.613,218.467 120.852,218.345 121.052 C 218.140 121.388,218.161 121.384,218.603 121.002 C 218.867 120.775,219.155 120.531,219.242 120.461 C 219.448 120.295,219.333 120.316,218.909 120.522 M217.083 122.245 C 216.037 123.368,215.212 123.587,214.212 123.005 C 213.609 122.654,213.621 122.677,214.494 123.570 C 215.580 124.678,215.512 124.666,216.058 123.841 C 216.298 123.479,216.832 122.823,217.244 122.383 C 217.872 121.714,218.152 121.304,217.958 121.341 C 217.935 121.346,217.542 121.752,217.083 122.245 M210.208 130.782 C 210.369 130.823,210.631 130.823,210.792 130.782 C 210.952 130.740,210.821 130.705,210.500 130.705 C 210.179 130.705,210.048 130.740,210.208 130.782 M212.627 130.785 C 212.834 130.824,213.134 130.823,213.294 130.781 C 213.453 130.739,213.283 130.707,212.917 130.709 C 212.550 130.711,212.420 130.745,212.627 130.785 M237.917 135.333 C 239.473 136.892,240.784 138.167,240.830 138.167 C 240.875 138.167,239.640 136.892,238.083 135.333 C 236.527 133.775,235.216 132.500,235.170 132.500 C 235.125 132.500,236.360 133.775,237.917 135.333 M240.285 133.997 C 241.130 134.861,241.843 135.534,241.870 135.492 C 241.897 135.451,241.206 134.744,240.335 133.921 L 238.750 132.425 240.285 133.997 M167.833 134.719 C 167.833 134.748,168.077 134.991,168.375 135.260 L 168.917 135.750 168.427 135.208 C 167.971 134.703,167.833 134.590,167.833 134.719 M137.709 135.917 C 137.711 136.283,137.745 136.414,137.785 136.206 C 137.824 135.999,137.823 135.699,137.781 135.540 C 137.739 135.380,137.707 135.550,137.709 135.917 M262.000 135.917 C 262.000 136.276,262.067 136.478,262.167 136.417 C 262.258 136.360,262.333 136.135,262.333 135.917 C 262.333 135.698,262.258 135.473,262.167 135.417 C 262.067 135.355,262.000 135.557,262.000 135.917 M227.333 136.417 C 227.644 136.737,227.936 137.000,227.982 137.000 C 228.028 137.000,227.811 136.737,227.500 136.417 C 227.189 136.096,226.897 135.833,226.851 135.833 C 226.805 135.833,227.022 136.096,227.333 136.417 M213.208 136.619 C 213.460 136.658,213.873 136.658,214.125 136.619 C 214.377 136.581,214.171 136.550,213.667 136.550 C 213.162 136.550,212.956 136.581,213.208 136.619 M262.000 137.083 C 262.000 137.232,261.848 137.332,261.625 137.331 C 261.419 137.329,260.556 137.479,259.708 137.664 C 257.479 138.150,255.167 138.629,254.542 138.734 L 254.000 138.825 253.975 137.954 C 253.961 137.457,253.923 137.298,253.888 137.583 C 253.640 139.567,252.831 142.354,252.057 143.889 C 250.873 146.239,250.176 147.039,243.358 153.877 C 236.099 161.157,236.258 160.970,236.940 161.416 C 237.695 161.911,240.319 164.508,241.295 165.727 L 242.211 166.871 248.700 160.394 C 257.679 151.431,259.070 149.617,260.822 144.586 C 261.641 142.231,262.535 136.833,262.105 136.833 C 262.047 136.833,262.000 136.946,262.000 137.083 M159.333 137.500 C 159.529 137.775,159.727 138.000,159.773 138.000 C 159.819 138.000,159.696 137.775,159.500 137.500 C 159.304 137.225,159.106 137.000,159.061 137.000 C 159.015 137.000,159.138 137.225,159.333 137.500 M171.000 137.502 C 171.201 137.634,170.686 138.227,168.373 140.525 C 166.790 142.098,165.519 143.408,165.547 143.436 C 165.576 143.465,166.899 142.186,168.487 140.596 C 171.121 137.959,171.598 137.328,170.948 137.336 C 170.829 137.337,170.849 137.403,171.000 137.502 M241.833 139.187 C 241.833 139.242,242.245 139.729,242.749 140.269 C 243.581 141.160,243.630 141.254,243.291 141.298 C 243.085 141.325,242.317 141.486,241.583 141.657 C 240.850 141.829,239.500 142.134,238.583 142.335 C 237.667 142.537,236.499 142.807,235.989 142.934 C 234.676 143.263,234.522 143.237,233.906 142.583 C 233.603 142.262,233.257 142.000,233.137 142.000 C 233.017 142.000,235.018 144.100,237.583 146.667 C 240.149 149.233,242.322 151.333,242.412 151.333 C 242.690 151.333,248.000 145.808,248.000 145.519 C 248.000 145.369,246.612 143.861,244.917 142.167 C 243.221 140.473,241.833 139.132,241.833 139.187 M216.062 150.750 C 216.063 151.758,216.090 152.149,216.123 151.619 C 216.157 151.088,216.156 150.263,216.123 149.786 C 216.089 149.308,216.062 149.742,216.062 150.750 M155.664 153.292 L 153.917 155.083 155.708 153.336 C 157.372 151.714,157.576 151.500,157.455 151.500 C 157.431 151.500,156.625 152.306,155.664 153.292 M198.000 153.250 L 198.000 154.000 195.435 154.000 L 192.869 154.000 192.750 154.458 C 192.623 154.943,192.527 169.158,192.627 172.625 L 192.686 174.667 195.343 174.667 C 196.804 174.667,198.005 174.648,198.011 174.625 C 198.088 174.320,198.183 152.500,198.106 152.500 C 198.048 152.500,198.000 152.837,198.000 153.250 M202.338 153.115 C 202.333 153.328,202.619 153.554,202.959 153.606 C 203.074 153.623,203.125 153.568,203.073 153.483 C 203.020 153.398,202.912 153.368,202.832 153.417 C 202.752 153.467,202.610 153.374,202.515 153.212 C 202.421 153.049,202.341 153.006,202.338 153.115 M206.073 153.517 C 206.020 153.603,207.135 153.661,208.698 153.654 C 210.193 153.646,211.342 153.615,211.250 153.584 C 210.837 153.444,206.155 153.384,206.073 153.517 M203.877 153.620 C 204.131 153.658,204.506 153.657,204.711 153.617 C 204.916 153.578,204.708 153.546,204.250 153.548 C 203.792 153.549,203.624 153.581,203.877 153.620 M212.625 153.618 C 212.831 153.657,213.169 153.657,213.375 153.618 C 213.581 153.578,213.412 153.545,213.000 153.545 C 212.588 153.545,212.419 153.578,212.625 153.618 M214.127 153.618 C 214.334 153.658,214.634 153.656,214.794 153.615 C 214.953 153.573,214.783 153.540,214.417 153.542 C 214.050 153.544,213.920 153.578,214.127 153.618 M157.312 155.292 C 157.102 155.559,157.109 155.563,157.389 155.343 C 157.668 155.124,157.767 155.179,158.516 155.968 C 158.968 156.444,159.390 156.833,159.455 156.833 C 159.519 156.833,159.165 156.421,158.667 155.917 C 157.656 154.894,157.633 154.883,157.312 155.292 M254.315 158.297 L 251.380 161.250 251.956 162.325 C 254.317 166.736,254.557 172.343,252.592 177.217 C 252.019 178.639,251.882 178.903,251.020 180.250 C 249.464 182.682,243.893 188.000,242.901 188.000 C 242.787 188.000,242.669 188.066,242.639 188.146 C 242.507 188.493,239.015 189.981,237.667 190.265 C 237.438 190.313,236.912 190.433,236.500 190.531 C 234.431 191.024,229.804 190.958,228.002 190.409 C 227.499 190.256,226.899 190.096,226.669 190.054 C 226.438 190.013,225.931 189.838,225.542 189.665 C 225.152 189.493,224.833 189.387,224.833 189.430 C 224.833 189.473,224.598 189.387,224.310 189.238 L 223.786 188.967 220.809 191.941 C 217.841 194.906,217.833 194.915,218.203 195.194 C 218.407 195.348,218.632 195.438,218.704 195.394 C 218.775 195.350,218.833 195.393,218.833 195.490 C 218.833 195.587,218.946 195.667,219.083 195.667 C 219.221 195.667,219.333 195.746,219.333 195.843 C 219.333 195.940,219.402 195.977,219.487 195.925 C 219.571 195.873,219.740 195.926,219.862 196.044 C 220.192 196.363,221.088 196.277,223.833 195.663 C 224.612 195.489,226.037 195.187,227.000 194.992 C 228.649 194.658,229.791 194.414,233.167 193.675 C 233.946 193.504,235.371 193.204,236.333 193.009 C 238.356 192.597,240.613 192.123,242.750 191.662 C 245.502 191.068,247.235 190.701,249.000 190.340 C 249.963 190.143,251.371 189.833,252.131 189.652 C 252.890 189.470,253.581 189.364,253.667 189.417 C 253.752 189.470,253.918 189.360,254.035 189.173 C 254.151 188.986,254.330 188.833,254.432 188.833 C 254.534 188.833,254.789 188.608,255.000 188.333 C 255.211 188.058,255.489 187.833,255.618 187.833 C 255.747 187.833,255.815 187.772,255.769 187.698 C 255.723 187.623,255.963 187.255,256.301 186.880 C 256.640 186.505,256.992 186.087,257.083 185.952 C 257.175 185.816,257.523 185.303,257.856 184.811 C 258.481 183.887,259.833 181.540,259.833 181.378 C 259.833 181.328,259.974 180.978,260.146 180.602 C 260.793 179.186,261.274 177.635,261.885 175.000 C 262.247 173.439,262.116 166.591,261.691 164.917 C 260.718 161.074,258.115 155.304,257.370 155.339 C 257.304 155.342,255.929 156.673,254.315 158.297 M154.432 158.107 C 152.176 160.358,151.637 161.000,152.004 161.000 C 152.104 161.000,152.133 161.087,152.067 161.192 C 151.994 161.312,152.022 161.340,152.141 161.266 C 152.247 161.201,152.333 161.217,152.333 161.303 C 152.333 161.551,176.674 185.755,176.869 185.701 C 177.910 185.410,180.923 182.581,182.286 180.614 L 182.727 179.978 171.405 168.646 C 165.178 162.413,159.933 157.232,159.750 157.134 C 159.380 156.935,159.596 157.201,160.980 158.646 L 161.710 159.409 160.730 159.702 C 160.191 159.863,159.600 159.995,159.417 159.993 C 159.065 159.991,156.877 160.490,154.917 161.019 C 153.540 161.391,152.614 161.422,152.351 161.104 C 152.128 160.836,152.288 160.286,152.543 160.443 C 152.646 160.507,152.669 160.471,152.598 160.358 C 152.526 160.241,152.632 160.102,152.864 160.009 C 153.076 159.924,153.176 159.850,153.086 159.844 C 152.996 159.838,153.820 158.933,154.917 157.833 C 156.014 156.733,156.866 155.833,156.811 155.833 C 156.756 155.833,155.686 156.857,154.432 158.107 M140.451 158.784 C 140.196 159.293,140.013 159.736,140.045 159.767 C 140.076 159.798,140.312 159.409,140.569 158.902 C 140.825 158.395,141.008 157.953,140.975 157.919 C 140.942 157.886,140.706 158.275,140.451 158.784 M150.695 158.183 C 150.387 158.677,150.524 158.714,150.883 158.234 C 151.047 158.013,151.122 157.833,151.048 157.833 C 150.974 157.833,150.815 157.991,150.695 158.183 M149.029 160.176 C 148.816 160.446,148.717 160.667,148.809 160.667 C 148.902 160.667,149.138 160.442,149.333 160.167 C 149.792 159.523,149.539 159.531,149.029 160.176 M139.413 161.010 C 139.266 161.476,139.382 161.561,139.628 161.167 C 139.741 160.986,139.761 160.808,139.675 160.755 C 139.592 160.704,139.474 160.819,139.413 161.010 M148.485 161.101 C 148.200 161.445,147.867 162.006,147.736 162.363 C 147.635 162.641,147.072 162.793,142.917 163.668 C 142.092 163.842,140.830 164.107,140.114 164.259 C 138.638 164.570,138.560 164.546,138.805 163.842 C 138.903 163.562,138.926 163.333,138.857 163.333 C 138.570 163.333,138.048 165.947,137.908 168.083 C 137.854 168.908,137.787 169.771,137.761 170.000 C 137.564 171.678,138.268 176.299,139.107 178.833 C 139.585 180.279,141.629 184.500,141.851 184.500 C 141.933 184.500,142.000 184.579,142.000 184.676 C 142.000 185.828,148.286 192.122,151.792 194.479 C 152.993 195.287,152.979 195.319,152.435 193.066 C 151.854 190.664,151.591 188.395,151.587 185.750 L 151.583 183.417 151.034 182.833 C 146.459 177.970,144.784 170.218,147.083 164.542 C 147.240 164.153,147.325 163.717,147.270 163.575 C 147.215 163.433,147.235 163.356,147.314 163.405 C 147.393 163.454,147.760 162.895,148.128 162.164 C 148.816 160.798,148.870 160.637,148.485 161.101 M139.098 162.143 C 138.767 162.679,138.687 163.167,138.931 163.167 C 139.071 163.167,139.144 163.098,139.092 163.014 C 139.040 162.930,139.071 162.668,139.161 162.431 C 139.319 162.017,139.281 161.846,139.098 162.143 M231.581 165.669 C 229.810 167.442,228.659 168.716,228.755 168.797 C 228.844 168.873,229.358 169.266,229.898 169.671 C 234.686 173.271,237.522 179.173,237.656 185.823 C 237.673 186.696,237.712 187.434,237.742 187.464 C 237.827 187.549,240.889 186.326,241.167 186.096 C 241.304 185.982,241.810 185.652,242.291 185.363 C 243.205 184.813,243.707 184.413,245.050 183.163 L 245.860 182.408 245.508 180.579 C 244.742 176.603,243.559 173.550,241.417 170.024 C 240.363 168.290,236.735 164.286,235.159 163.117 L 234.568 162.679 231.581 165.669 M214.199 183.125 L 201.844 195.583 202.987 196.667 C 203.616 197.262,204.661 198.246,205.310 198.852 C 205.959 199.458,206.447 199.997,206.395 200.050 C 206.288 200.157,208.169 199.744,208.875 199.506 C 209.484 199.300,209.453 199.439,208.711 200.243 C 208.369 200.614,213.615 195.409,220.369 188.677 C 227.151 181.916,232.599 176.358,232.539 176.260 C 231.158 174.007,227.764 170.667,226.855 170.667 C 226.677 170.667,221.497 175.765,214.199 183.125 M157.015 172.899 C 156.457 174.036,156.000 175.028,156.000 175.105 C 156.000 175.181,155.855 175.620,155.678 176.080 C 153.505 181.722,153.507 189.675,155.681 195.231 C 155.857 195.678,156.000 196.113,156.000 196.197 C 156.000 196.559,157.786 199.889,158.799 201.414 C 159.876 203.036,160.167 203.425,160.976 204.317 C 161.192 204.555,161.567 204.975,161.810 205.251 C 162.053 205.527,162.582 206.014,162.986 206.334 C 163.995 207.135,164.482 207.629,164.371 207.740 C 164.320 207.791,164.365 207.833,164.472 207.833 C 164.579 207.833,164.667 207.765,164.667 207.681 C 164.667 207.598,164.985 207.479,165.375 207.418 C 165.765 207.356,166.579 207.162,167.185 206.986 C 167.790 206.810,168.475 206.667,168.705 206.667 C 168.936 206.667,169.453 206.549,169.854 206.405 C 170.255 206.261,170.963 206.080,171.426 206.002 C 172.894 205.757,174.111 205.342,174.111 205.087 C 174.111 204.956,174.049 204.887,173.972 204.934 C 173.896 204.981,173.833 204.936,173.833 204.833 C 173.833 204.731,173.768 204.688,173.688 204.737 C 173.438 204.892,171.334 203.205,169.362 201.270 C 162.620 194.653,160.629 186.292,163.842 178.083 L 164.298 176.917 161.276 173.875 C 159.613 172.202,158.203 170.833,158.142 170.833 C 158.080 170.833,157.573 171.763,157.015 172.899 M183.881 182.653 C 181.670 185.593,178.614 187.878,174.663 189.544 C 172.928 190.276,170.616 190.692,168.128 190.721 C 165.433 190.753,165.520 190.709,165.916 191.832 C 166.672 193.975,168.151 196.325,169.820 198.037 L 170.750 198.991 171.917 198.813 C 178.062 197.878,184.019 194.759,188.335 190.218 C 189.205 189.302,190.026 188.348,190.160 188.097 L 190.404 187.641 187.588 184.848 C 184.497 181.781,184.524 181.798,183.881 182.653 M191.750 190.208 C 190.683 191.502,187.666 194.435,186.589 195.226 C 186.370 195.387,186.957 196.038,190.367 199.417 C 192.588 201.617,194.231 203.216,194.017 202.970 L 193.630 202.523 194.273 202.354 C 194.627 202.261,195.142 202.139,195.417 202.083 C 196.035 201.956,198.193 201.409,199.750 200.984 C 200.392 200.809,201.074 200.666,201.267 200.666 C 202.196 200.668,203.003 200.127,202.333 199.952 C 202.150 199.904,202.000 199.745,202.000 199.599 C 202.000 199.453,201.875 199.333,201.722 199.333 C 201.569 199.333,201.493 199.284,201.553 199.224 C 201.613 199.165,200.397 197.833,198.851 196.266 C 197.305 194.699,195.231 192.573,194.242 191.542 C 192.202 189.413,192.343 189.489,191.750 190.208 M126.542 276.955 C 126.885 276.991,127.448 276.991,127.792 276.955 C 128.135 276.919,127.854 276.889,127.167 276.889 C 126.479 276.889,126.198 276.919,126.542 276.955 M143.794 276.951 C 144.001 276.991,144.301 276.990,144.460 276.948 C 144.620 276.906,144.450 276.874,144.083 276.875 C 143.717 276.877,143.586 276.911,143.794 276.951 M146.107 276.961 C 146.064 277.032,146.322 277.061,146.681 277.027 C 147.040 276.993,147.333 276.935,147.333 276.899 C 147.333 276.775,146.186 276.833,146.107 276.961 M179.904 276.956 C 180.271 277.010,180.333 277.065,180.154 277.178 C 179.960 277.301,179.970 277.329,180.208 277.331 C 180.369 277.332,180.500 277.221,180.500 277.083 C 180.500 276.907,180.340 276.841,179.958 276.858 L 179.417 276.883 179.904 276.956 M124.260 277.182 C 124.311 277.265,124.436 277.333,124.538 277.333 C 124.640 277.333,124.880 277.465,125.070 277.625 C 125.414 277.914,125.414 277.913,125.114 277.558 C 124.820 277.209,124.073 276.881,124.260 277.182 M213.627 277.118 C 213.834 277.158,214.134 277.156,214.294 277.115 C 214.453 277.073,214.283 277.040,213.917 277.042 C 213.550 277.044,213.420 277.078,213.627 277.118 M216.551 277.154 C 216.569 277.208,216.283 277.541,215.917 277.893 C 215.262 278.523,215.266 278.522,216.125 277.824 C 217.110 277.025,217.085 277.056,216.759 277.056 C 216.627 277.056,216.533 277.100,216.551 277.154 M143.991 277.517 C 144.215 277.607,144.481 277.733,144.582 277.798 C 144.683 277.863,144.623 277.785,144.448 277.625 C 144.273 277.465,144.007 277.338,143.857 277.344 C 143.684 277.351,143.733 277.414,143.991 277.517 M204.162 278.250 C 204.658 278.800,205.097 279.287,205.138 279.333 C 205.178 279.379,205.132 279.267,205.035 279.083 C 204.938 278.900,204.499 278.412,204.060 278.000 L 203.261 277.250 204.162 278.250 M230.667 277.397 C 230.667 277.433,230.873 277.594,231.125 277.757 L 231.583 278.052 231.266 277.692 C 230.985 277.375,230.667 277.218,230.667 277.397 M127.667 281.000 C 127.667 284.069,127.690 284.332,127.958 284.320 C 128.133 284.312,128.166 284.273,128.042 284.223 C 127.885 284.160,127.833 283.355,127.833 281.000 C 127.833 278.645,127.885 277.840,128.042 277.777 C 128.166 277.727,128.133 277.688,127.958 277.680 C 127.690 277.668,127.667 277.931,127.667 281.000 M146.735 280.500 C 146.735 282.012,146.760 282.631,146.791 281.875 C 146.822 281.119,146.822 279.881,146.791 279.125 C 146.760 278.369,146.735 278.987,146.735 280.500 M264.042 277.948 C 264.202 277.990,264.465 277.990,264.625 277.948 C 264.785 277.906,264.654 277.872,264.333 277.872 C 264.012 277.872,263.881 277.906,264.042 277.948 M268.750 278.140 C 269.025 278.308,269.538 278.726,269.891 279.068 C 270.243 279.411,270.567 279.655,270.611 279.611 C 270.722 279.500,268.695 277.833,268.450 277.834 C 268.340 277.834,268.475 277.972,268.750 278.140 M187.459 278.375 C 187.244 278.581,187.183 278.667,187.325 278.565 C 187.467 278.463,187.733 278.297,187.917 278.195 C 188.100 278.093,188.160 278.008,188.051 278.005 C 187.941 278.002,187.675 278.169,187.459 278.375 M193.408 283.833 C 193.408 287.087,193.431 288.419,193.458 286.792 C 193.485 285.165,193.485 282.502,193.458 280.875 C 193.431 279.248,193.408 280.579,193.408 283.833 M247.909 284.000 C 247.909 287.346,247.931 288.715,247.958 287.042 C 247.985 285.369,247.985 282.631,247.958 280.958 C 247.931 279.285,247.909 280.654,247.909 284.000 M260.908 283.500 C 260.908 286.571,260.931 287.827,260.958 286.292 C 260.986 284.756,260.986 282.244,260.958 280.708 C 260.931 279.173,260.908 280.429,260.908 283.500 M130.921 278.640 C 131.100 278.855,131.340 279.230,131.455 279.473 C 131.660 279.909,131.662 279.909,131.565 279.500 C 131.510 279.271,131.270 278.896,131.031 278.667 C 130.644 278.295,130.632 278.293,130.921 278.640 M266.333 278.469 C 266.333 278.548,266.521 278.699,266.750 278.803 C 266.979 278.907,267.167 278.966,267.167 278.932 C 267.167 278.899,266.979 278.749,266.750 278.599 C 266.521 278.449,266.333 278.390,266.333 278.469 M241.223 279.093 C 241.168 279.236,241.017 279.312,240.887 279.261 C 240.755 279.211,240.695 279.244,240.751 279.335 C 240.912 279.595,241.139 279.529,241.333 279.167 C 241.431 278.983,241.469 278.833,241.417 278.833 C 241.365 278.833,241.278 278.950,241.223 279.093 M207.583 279.833 C 207.726 280.108,207.879 280.333,207.925 280.333 C 207.971 280.333,207.892 280.108,207.750 279.833 C 207.608 279.558,207.454 279.333,207.408 279.333 C 207.362 279.333,207.441 279.558,207.583 279.833 M214.333 279.440 C 214.333 279.529,214.078 279.880,213.767 280.220 C 213.455 280.560,213.151 280.969,213.090 281.128 C 212.963 281.461,213.026 281.397,213.912 280.287 C 214.261 279.850,214.499 279.443,214.440 279.385 C 214.381 279.326,214.333 279.351,214.333 279.440 M163.094 279.983 C 163.043 280.065,163.114 280.175,163.251 280.227 C 163.402 280.285,163.500 280.227,163.500 280.078 C 163.500 279.809,163.240 279.747,163.094 279.983 M206.182 280.708 C 206.479 281.144,206.751 281.500,206.784 281.500 C 206.897 281.500,206.519 280.920,206.078 280.417 C 205.747 280.038,205.772 280.109,206.182 280.708 M207.337 282.458 C 207.339 282.527,207.494 282.771,207.680 283.000 L 208.020 283.417 207.756 282.875 C 207.505 282.360,207.329 282.185,207.337 282.458 M131.984 284.335 C 131.539 284.804,131.491 284.961,131.760 285.064 C 131.916 285.124,131.975 285.094,131.909 284.988 C 131.849 284.891,131.933 284.667,132.094 284.488 C 132.455 284.089,132.353 283.947,131.984 284.335 M146.734 286.750 C 146.734 288.217,146.760 288.794,146.791 288.034 C 146.822 287.273,146.822 286.073,146.790 285.367 C 146.759 284.661,146.734 285.283,146.734 286.750 M270.042 284.917 C 270.044 285.283,270.078 285.414,270.118 285.206 C 270.158 284.999,270.156 284.699,270.115 284.540 C 270.073 284.380,270.040 284.550,270.042 284.917 M210.900 287.500 C 210.900 288.829,210.925 289.373,210.957 288.708 C 210.989 288.044,210.989 286.956,210.957 286.292 C 210.925 285.627,210.900 286.171,210.900 287.500 M167.091 286.042 C 167.153 286.248,167.273 286.490,167.357 286.580 C 167.440 286.669,167.425 286.500,167.322 286.205 C 167.110 285.599,166.916 285.461,167.091 286.042 M130.826 286.583 C 131.228 287.042,131.592 287.454,131.634 287.500 C 131.677 287.546,131.633 287.433,131.536 287.250 C 131.440 287.067,131.076 286.654,130.728 286.333 C 130.126 285.779,130.131 285.791,130.826 286.583 M132.000 288.167 C 132.196 288.442,132.394 288.667,132.439 288.667 C 132.485 288.667,132.362 288.442,132.167 288.167 C 131.971 287.892,131.773 287.667,131.727 287.667 C 131.681 287.667,131.804 287.892,132.000 288.167 M184.163 288.875 C 184.000 289.211,184.006 289.220,184.216 288.961 C 184.344 288.802,184.498 288.721,184.558 288.780 C 184.618 288.840,184.667 288.801,184.667 288.694 C 184.667 288.367,184.356 288.478,184.163 288.875 M270.167 289.083 C 269.952 289.311,269.808 289.527,269.847 289.561 C 269.885 289.595,270.091 289.408,270.304 289.145 C 270.782 288.556,270.697 288.518,270.167 289.083 M133.000 289.443 C 133.000 289.534,133.206 289.790,133.458 290.013 L 133.917 290.417 133.500 289.917 C 133.271 289.642,133.065 289.385,133.042 289.347 C 133.019 289.309,133.000 289.352,133.000 289.443 M146.925 289.710 C 147.015 289.947,147.662 290.394,147.764 290.291 C 147.800 290.256,147.607 290.062,147.336 289.862 C 147.065 289.661,146.879 289.593,146.925 289.710 M184.539 290.000 C 184.539 290.321,184.573 290.452,184.615 290.292 C 184.657 290.131,184.657 289.869,184.615 289.708 C 184.573 289.548,184.539 289.679,184.539 290.000 M237.167 290.167 C 236.846 290.342,236.643 290.489,236.717 290.493 C 236.893 290.502,237.833 290.013,237.833 289.912 C 237.833 289.803,237.824 289.807,237.167 290.167 M158.242 290.180 C 158.180 290.279,157.895 290.504,157.607 290.680 C 157.319 290.855,157.154 290.999,157.240 290.999 C 157.457 291.000,158.497 290.278,158.499 290.125 C 158.501 289.944,158.370 289.972,158.242 290.180 M166.891 290.391 C 166.905 290.634,166.973 290.833,167.042 290.833 C 167.211 290.833,167.195 290.470,167.013 290.183 C 166.908 290.015,166.873 290.075,166.891 290.391 M124.917 290.729 C 124.577 291.060,124.528 291.157,124.764 291.033 C 125.127 290.843,125.595 290.355,125.482 290.284 C 125.446 290.262,125.192 290.462,124.917 290.729 M248.536 290.708 C 248.794 290.960,249.135 291.162,249.294 291.156 C 249.493 291.149,249.454 291.094,249.167 290.979 C 248.938 290.888,248.597 290.687,248.409 290.532 C 248.221 290.377,248.278 290.456,248.536 290.708 M128.212 290.667 C 128.445 290.850,128.690 291.000,128.757 291.000 C 128.824 291.000,128.688 290.850,128.455 290.667 C 128.221 290.483,127.976 290.333,127.910 290.333 C 127.843 290.333,127.979 290.483,128.212 290.667 M181.127 290.618 C 181.334 290.658,181.634 290.656,181.794 290.615 C 181.953 290.573,181.783 290.540,181.417 290.542 C 181.050 290.544,180.920 290.578,181.127 290.618 M235.460 290.618 C 235.668 290.658,235.968 290.656,236.127 290.615 C 236.286 290.573,236.117 290.540,235.750 290.542 C 235.383 290.544,235.253 290.578,235.460 290.618 M143.864 291.009 C 143.484 291.162,143.498 291.502,143.885 291.497 C 144.004 291.496,143.984 291.430,143.833 291.333 C 143.631 291.203,143.655 291.171,143.958 291.169 C 144.165 291.168,144.333 291.092,144.333 291.000 C 144.333 290.908,144.315 290.838,144.292 290.844 C 144.269 290.850,144.076 290.924,143.864 291.009 M126.794 291.285 C 127.001 291.324,127.301 291.323,127.460 291.281 C 127.620 291.239,127.450 291.207,127.083 291.209 C 126.717 291.211,126.586 291.245,126.794 291.285 M167.958 291.284 C 168.165 291.324,168.502 291.324,168.708 291.284 C 168.915 291.245,168.746 291.212,168.333 291.212 C 167.921 291.212,167.752 291.245,167.958 291.284 M177.208 291.282 C 177.369 291.323,177.631 291.323,177.792 291.282 C 177.952 291.240,177.821 291.205,177.500 291.205 C 177.179 291.205,177.048 291.240,177.208 291.282 M178.544 291.286 C 178.797 291.325,179.172 291.324,179.377 291.284 C 179.582 291.244,179.375 291.213,178.917 291.214 C 178.458 291.216,178.291 291.248,178.544 291.286 M181.460 291.285 C 181.668 291.324,181.968 291.323,182.127 291.281 C 182.286 291.239,182.117 291.207,181.750 291.209 C 181.383 291.211,181.253 291.245,181.460 291.285 M192.211 291.286 C 192.464 291.325,192.839 291.324,193.044 291.284 C 193.249 291.244,193.042 291.213,192.583 291.214 C 192.125 291.216,191.957 291.248,192.211 291.286 M232.458 291.284 C 232.665 291.324,233.002 291.324,233.208 291.284 C 233.415 291.245,233.246 291.212,232.833 291.212 C 232.421 291.212,232.252 291.245,232.458 291.284 M235.042 291.282 C 235.202 291.323,235.465 291.323,235.625 291.282 C 235.785 291.240,235.654 291.205,235.333 291.205 C 235.012 291.205,234.881 291.240,235.042 291.282 M236.208 291.282 C 236.369 291.323,236.631 291.323,236.792 291.282 C 236.952 291.240,236.821 291.205,236.500 291.205 C 236.179 291.205,236.048 291.240,236.208 291.282 M258.377 291.286 C 258.631 291.325,259.006 291.324,259.211 291.284 C 259.416 291.244,259.208 291.213,258.750 291.214 C 258.292 291.216,258.124 291.248,258.377 291.286 M149.455 291.454 C 149.750 291.490,150.275 291.491,150.621 291.455 C 150.967 291.419,150.725 291.389,150.083 291.388 C 149.442 291.387,149.159 291.417,149.455 291.454 M260.708 291.448 C 260.869 291.490,261.131 291.490,261.292 291.448 C 261.452 291.406,261.321 291.372,261.000 291.372 C 260.679 291.372,260.548 291.406,260.708 291.448 M262.875 291.619 C 263.127 291.658,263.540 291.658,263.792 291.619 C 264.044 291.581,263.837 291.550,263.333 291.550 C 262.829 291.550,262.623 291.581,262.875 291.619 M178.998 301.752 L 178.261 302.503 178.713 302.955 C 179.156 303.398,179.170 303.401,179.457 303.088 C 179.737 302.782,179.737 302.778,179.449 302.995 C 179.188 303.193,179.101 303.176,178.788 302.862 L 178.428 302.502 179.166 301.751 C 179.571 301.338,179.865 301.000,179.819 301.000 C 179.774 301.000,179.404 301.338,178.998 301.752 M181.204 303.861 C 181.184 305.481,181.118 306.943,181.059 307.111 C 180.979 307.338,181.001 307.371,181.146 307.238 C 181.285 307.110,181.327 306.177,181.292 303.988 L 181.242 300.917 181.204 303.861 M187.492 301.621 C 187.446 302.008,187.472 302.261,187.550 302.184 C 187.627 302.106,187.665 301.789,187.633 301.480 C 187.576 300.931,187.573 300.934,187.492 301.621 M203.635 301.458 C 203.341 301.800,203.121 302.167,203.209 302.167 C 203.243 302.167,203.437 301.942,203.640 301.667 C 204.042 301.123,204.038 300.988,203.635 301.458 M217.417 301.667 C 217.274 301.942,217.196 302.167,217.241 302.167 C 217.287 302.167,217.441 301.942,217.583 301.667 C 217.726 301.392,217.804 301.167,217.759 301.167 C 217.713 301.167,217.559 301.392,217.417 301.667 M180.066 305.000 C 180.066 306.329,180.092 306.873,180.124 306.208 C 180.155 305.544,180.155 304.456,180.124 303.792 C 180.092 303.127,180.066 303.671,180.066 305.000 M185.111 302.778 C 184.840 303.049,185.025 303.332,185.458 303.311 C 185.870 303.290,185.877 303.280,185.529 303.214 C 185.278 303.166,185.173 303.057,185.232 302.903 C 185.330 302.647,185.287 302.602,185.111 302.778 M207.217 303.500 C 207.217 304.004,207.248 304.210,207.286 303.958 C 207.324 303.706,207.324 303.294,207.286 303.042 C 207.248 302.790,207.217 302.996,207.217 303.500 M186.581 303.536 C 186.763 303.641,187.049 303.883,187.216 304.072 L 187.519 304.417 187.339 304.045 C 187.240 303.841,187.016 303.598,186.840 303.504 C 186.402 303.269,186.171 303.298,186.581 303.536 M204.045 304.000 C 204.045 304.412,204.078 304.581,204.118 304.375 C 204.157 304.169,204.157 303.831,204.118 303.625 C 204.078 303.419,204.045 303.587,204.045 304.000 M199.336 304.125 C 199.338 304.523,199.389 304.671,199.477 304.531 C 199.606 304.328,199.542 303.500,199.397 303.500 C 199.362 303.500,199.334 303.781,199.336 304.125 M193.768 304.417 C 193.905 305.029,194.001 305.163,193.997 304.736 C 193.996 304.560,193.919 304.304,193.826 304.167 C 193.702 303.984,193.687 304.052,193.768 304.417 M184.458 304.451 C 184.665 304.491,185.002 304.491,185.208 304.451 C 185.415 304.411,185.246 304.379,184.833 304.379 C 184.421 304.379,184.252 304.411,184.458 304.451 M190.958 304.451 C 191.165 304.491,191.502 304.491,191.708 304.451 C 191.915 304.411,191.746 304.379,191.333 304.379 C 190.921 304.379,190.752 304.411,190.958 304.451 M183.503 305.458 C 183.504 305.650,183.548 305.683,183.629 305.555 C 183.697 305.448,184.015 305.329,184.335 305.290 C 184.889 305.223,184.883 305.219,184.208 305.193 C 183.634 305.172,183.500 305.222,183.503 305.458 M204.167 305.287 C 204.167 305.384,204.321 305.640,204.510 305.857 L 204.853 306.250 204.560 305.750 C 204.175 305.092,204.167 305.082,204.167 305.287 M197.672 305.605 C 197.664 305.880,198.121 306.212,198.369 306.112 C 198.507 306.057,198.482 306.022,198.300 306.013 C 198.144 306.006,197.940 305.869,197.847 305.708 C 197.753 305.548,197.675 305.501,197.672 305.605 M190.007 305.892 C 189.999 306.245,191.020 307.334,191.358 307.333 C 191.482 307.332,191.335 307.181,191.032 306.996 C 190.729 306.811,190.376 306.418,190.247 306.122 C 190.097 305.776,190.011 305.694,190.007 305.892 M191.333 305.940 C 191.333 306.103,191.971 306.287,192.151 306.176 C 192.296 306.087,192.197 306.018,191.850 305.967 C 191.566 305.925,191.333 305.913,191.333 305.940 " stroke="none" fill="#c1a964" fill-rule="evenodd"></path><path id="path1" d="M231.667 106.417 C 232.165 106.921,232.609 107.333,232.655 107.333 C 232.701 107.333,232.331 106.921,231.833 106.417 C 231.335 105.912,230.891 105.500,230.845 105.500 C 230.799 105.500,231.169 105.912,231.667 106.417 M198.045 179.833 C 198.045 180.246,198.078 180.415,198.118 180.208 C 198.157 180.002,198.157 179.665,198.118 179.458 C 198.078 179.252,198.045 179.421,198.045 179.833 M233.750 230.661 C 231.525 230.973,226.667 233.164,226.667 233.855 C 226.667 233.935,226.583 234.000,226.482 234.000 C 225.706 234.000,222.886 237.819,221.781 240.366 C 219.852 244.813,220.709 251.499,223.711 255.417 C 228.759 262.005,237.340 263.672,244.664 259.486 C 251.246 255.725,253.931 246.505,250.534 239.323 C 249.571 237.285,248.551 235.997,246.188 233.833 C 243.533 231.402,238.190 230.040,233.750 230.661 M91.167 246.250 L 91.167 261.333 99.667 261.333 L 108.167 261.333 108.167 258.583 L 108.167 255.833 102.333 255.833 L 96.500 255.833 96.500 243.500 L 96.500 231.167 93.833 231.167 L 91.167 231.167 91.167 246.250 M110.333 246.250 L 110.333 261.333 120.500 261.333 L 130.667 261.333 130.667 258.583 L 130.667 255.833 123.167 255.833 L 115.667 255.833 115.667 252.333 L 115.667 248.833 121.833 248.833 L 128.000 248.833 128.000 248.413 C 128.000 248.182,127.843 247.413,127.651 246.705 C 127.459 245.996,127.184 244.985,127.041 244.458 L 126.781 243.500 121.224 243.500 L 115.667 243.500 115.667 240.000 L 115.667 236.500 123.167 236.500 L 130.667 236.500 130.667 233.833 L 130.667 231.167 120.500 231.167 L 110.333 231.167 110.333 246.250 M145.393 231.458 C 145.339 231.619,145.086 232.200,144.830 232.750 C 144.575 233.300,143.759 235.118,143.018 236.790 C 142.278 238.462,141.607 239.962,141.527 240.123 C 141.348 240.487,140.720 241.859,140.326 242.750 C 139.808 243.918,139.285 245.074,139.138 245.377 C 139.059 245.538,138.397 247.019,137.667 248.667 C 136.936 250.315,136.274 251.795,136.195 251.957 C 135.953 252.455,135.379 253.703,134.910 254.750 C 134.664 255.300,134.325 256.050,134.157 256.417 C 132.803 259.369,132.050 261.161,132.129 261.240 C 132.180 261.291,133.503 261.332,135.069 261.331 L 137.917 261.328 138.284 260.539 C 139.095 258.795,139.810 257.217,140.056 256.625 L 140.316 256.000 146.491 256.000 C 152.773 256.000,153.059 255.972,152.513 255.408 C 152.429 255.321,151.913 254.237,151.368 253.000 L 150.375 250.750 146.518 250.705 L 142.660 250.661 142.977 250.039 C 143.150 249.697,143.445 249.079,143.631 248.667 C 143.817 248.254,144.124 247.579,144.313 247.167 C 144.502 246.754,144.876 245.929,145.144 245.333 C 145.411 244.737,145.826 243.819,146.065 243.292 C 146.304 242.765,146.693 241.902,146.929 241.375 C 147.337 240.461,147.746 239.578,148.322 238.365 C 148.522 237.942,148.597 237.884,148.643 238.115 C 148.676 238.281,148.762 238.492,148.836 238.583 C 148.909 238.675,149.583 240.137,150.334 241.833 C 151.793 245.131,152.598 246.904,152.849 247.377 C 152.935 247.538,153.603 249.019,154.333 250.667 C 155.064 252.315,155.726 253.795,155.805 253.957 C 155.883 254.118,156.116 254.625,156.322 255.083 C 156.528 255.542,156.850 256.254,157.038 256.667 C 157.225 257.079,157.512 257.717,157.674 258.083 C 158.333 259.569,158.730 260.438,158.932 260.833 L 159.145 261.250 162.073 261.296 C 165.057 261.342,165.158 261.321,164.860 260.706 C 164.782 260.547,164.563 260.079,164.372 259.667 C 163.029 256.770,162.667 255.972,162.667 255.910 C 162.667 255.871,162.365 255.182,161.995 254.378 C 160.828 251.838,160.644 251.433,160.341 250.750 C 159.950 249.868,159.320 248.489,159.141 248.125 C 159.062 247.965,158.248 246.146,157.333 244.083 C 156.418 242.021,155.606 240.202,155.528 240.042 C 155.450 239.881,155.229 239.412,155.038 239.000 C 153.696 236.103,153.333 235.305,153.333 235.243 C 153.333 235.205,153.030 234.515,152.658 233.712 C 152.287 232.908,151.876 232.006,151.744 231.708 L 151.505 231.167 148.497 231.167 C 145.781 231.167,145.480 231.195,145.393 231.458 M166.667 246.238 L 166.667 261.333 169.333 261.333 L 172.000 261.333 172.000 248.899 L 172.000 236.465 176.625 236.538 C 181.564 236.615,182.287 236.733,183.692 237.697 C 183.936 237.864,184.216 238.000,184.314 238.000 C 184.589 238.000,187.070 240.516,187.355 241.083 C 187.492 241.358,187.685 241.733,187.782 241.917 C 189.885 245.877,188.552 251.233,184.786 253.961 C 182.880 255.341,181.100 255.833,178.015 255.833 L 175.828 255.833 175.599 256.375 C 175.473 256.673,175.212 257.310,175.019 257.792 C 174.825 258.273,174.508 259.060,174.314 259.542 C 174.121 260.023,173.896 260.547,173.814 260.706 C 173.478 261.366,173.538 261.376,177.375 261.292 C 182.001 261.191,183.870 260.788,186.480 259.326 C 186.882 259.101,187.405 258.811,187.643 258.681 C 189.082 257.897,192.096 254.246,192.949 252.250 C 194.257 249.194,194.538 244.733,193.606 241.845 C 192.966 239.860,191.236 236.667,190.801 236.667 C 190.727 236.667,190.667 236.588,190.667 236.492 C 190.667 236.265,189.069 234.667,188.841 234.667 C 188.745 234.667,188.667 234.602,188.667 234.522 C 188.667 234.394,187.868 233.799,186.917 233.218 C 186.227 232.797,184.707 232.121,183.500 231.699 L 182.250 231.261 174.458 231.202 L 166.667 231.143 166.667 246.238 M196.500 246.243 L 196.500 261.342 199.208 261.296 L 201.917 261.250 201.959 248.859 L 202.002 236.468 205.709 236.526 L 209.417 236.583 210.333 237.144 C 212.480 238.457,213.762 241.061,213.176 242.918 C 212.178 246.082,210.527 247.333,207.348 247.333 L 205.492 247.333 205.326 247.792 C 205.234 248.044,205.092 248.400,205.008 248.583 C 204.925 248.767,204.657 249.404,204.414 250.000 C 204.170 250.596,203.827 251.404,203.652 251.796 C 203.182 252.847,203.164 252.833,205.125 252.835 L 206.917 252.836 207.667 254.011 C 208.079 254.656,208.529 255.359,208.667 255.573 C 208.804 255.787,209.099 256.270,209.322 256.647 C 209.545 257.025,209.789 257.333,209.864 257.333 C 209.939 257.333,210.000 257.412,210.000 257.508 C 210.000 257.604,210.300 258.135,210.667 258.687 C 211.033 259.239,211.333 259.719,211.333 259.753 C 211.333 259.788,211.564 260.158,211.845 260.575 L 212.357 261.333 215.512 261.333 C 219.078 261.333,218.946 261.405,218.000 259.980 C 217.633 259.428,217.333 258.952,217.333 258.922 C 217.333 258.866,215.778 256.471,214.647 254.786 C 214.291 254.256,214.000 253.791,214.000 253.753 C 214.000 253.629,212.939 252.087,212.759 251.950 C 212.644 251.862,212.691 251.747,212.893 251.616 C 213.064 251.507,213.522 251.210,213.912 250.958 C 214.762 250.407,216.667 248.524,216.667 248.234 C 216.667 248.121,216.727 248.003,216.800 247.972 C 217.097 247.849,217.833 246.249,218.257 244.809 C 219.653 240.066,217.373 234.754,212.917 232.365 C 210.791 231.226,211.089 231.263,203.458 231.201 L 196.500 231.144 196.500 246.243 M254.667 246.250 L 254.667 261.333 257.333 261.333 L 260.000 261.333 260.000 246.250 L 260.000 231.167 257.333 231.167 L 254.667 231.167 254.667 246.250 M262.167 233.833 L 262.167 236.500 266.583 236.500 L 271.000 236.500 271.000 248.917 L 271.000 261.333 273.750 261.333 L 276.500 261.333 276.500 248.917 L 276.500 236.500 280.833 236.500 L 285.167 236.500 285.167 233.833 L 285.167 231.167 273.667 231.167 L 262.167 231.167 262.167 233.833 M286.667 233.833 L 286.667 236.500 290.999 236.500 L 295.331 236.500 295.374 248.875 L 295.417 261.250 298.083 261.250 L 300.750 261.250 300.793 248.875 L 300.835 236.500 305.168 236.500 L 309.500 236.500 309.500 233.833 L 309.500 231.167 298.083 231.167 L 286.667 231.167 286.667 233.833 M239.583 236.362 C 241.523 237.122,242.011 237.418,243.383 238.667 C 246.686 241.672,247.684 247.301,245.539 250.824 C 244.210 253.008,242.841 254.354,241.047 255.241 C 231.607 259.909,222.226 249.357,227.881 240.430 C 228.096 240.091,230.112 238.034,230.513 237.746 C 232.984 235.966,237.008 235.352,239.583 236.362 " stroke="none" fill="#2c4463" fill-rule="evenodd"></path><path id="path2" d="M181.667 90.957 C 180.921 90.996,177.990 91.321,177.504 91.417 C 176.841 91.549,174.065 92.376,173.789 92.523 C 173.618 92.615,173.337 92.717,173.165 92.750 C 172.992 92.784,172.318 93.078,171.667 93.405 C 171.015 93.732,170.373 94.000,170.241 94.000 C 170.108 94.000,170.000 94.062,170.000 94.139 C 170.000 94.215,169.794 94.383,169.542 94.514 C 168.855 94.868,167.591 95.718,167.528 95.868 C 167.497 95.941,167.393 96.000,167.296 96.000 C 167.010 96.000,165.065 97.740,162.794 100.028 C 161.627 101.204,160.711 102.167,160.760 102.167 C 160.870 102.167,158.962 104.563,158.792 104.639 C 158.723 104.669,158.667 104.814,158.667 104.959 C 158.667 105.105,158.542 105.361,158.390 105.530 C 157.937 106.030,158.252 106.071,159.706 105.702 C 162.171 105.077,164.365 104.790,167.190 104.723 L 169.963 104.658 170.773 103.862 C 172.368 102.293,175.665 100.442,177.667 99.990 C 177.987 99.918,178.730 99.739,179.316 99.592 C 181.756 98.982,187.694 99.457,188.767 100.347 C 188.895 100.454,189.000 100.485,189.000 100.417 C 189.000 100.348,189.112 100.386,189.250 100.500 C 189.387 100.614,189.500 100.661,189.500 100.603 C 189.500 100.546,189.780 100.649,190.123 100.833 C 190.465 101.017,190.793 101.167,190.851 101.167 C 191.047 101.167,193.410 102.649,193.917 103.090 C 195.518 104.482,197.180 106.037,199.457 108.272 C 201.486 110.264,202.103 110.780,202.389 110.722 C 202.587 110.682,203.350 110.509,204.083 110.339 C 204.817 110.169,206.092 109.880,206.917 109.698 C 210.384 108.930,211.000 108.771,211.000 108.638 C 211.000 108.506,209.462 106.902,204.430 101.784 C 203.277 100.611,202.333 99.580,202.333 99.492 C 202.333 99.405,202.240 99.352,202.125 99.375 C 202.010 99.398,201.935 99.323,201.958 99.208 C 201.981 99.094,201.944 99.019,201.875 99.042 C 201.806 99.065,201.727 99.008,201.698 98.917 C 201.670 98.825,201.496 98.694,201.313 98.626 C 201.129 98.558,201.025 98.427,201.082 98.335 C 201.140 98.242,201.095 98.167,200.983 98.167 C 200.871 98.167,200.586 97.953,200.348 97.691 C 200.111 97.430,199.429 96.860,198.833 96.425 C 198.237 95.989,197.713 95.584,197.667 95.525 C 197.621 95.465,197.358 95.296,197.083 95.148 C 196.808 95.001,196.058 94.577,195.417 94.207 C 194.775 93.837,194.192 93.530,194.121 93.525 C 194.049 93.520,193.637 93.335,193.204 93.114 C 190.563 91.765,185.226 90.767,181.667 90.957 M216.417 90.950 C 215.718 90.993,212.698 91.318,212.026 91.423 C 211.644 91.482,211.125 91.632,208.750 92.368 C 207.530 92.746,204.874 93.988,203.695 94.732 C 203.316 94.971,202.942 95.167,202.862 95.167 C 202.783 95.167,202.577 95.323,202.405 95.513 C 202.092 95.858,202.104 95.873,204.843 98.555 C 208.340 101.978,208.046 101.753,208.572 101.409 C 208.807 101.254,209.000 101.186,209.000 101.257 C 209.000 101.327,209.131 101.270,209.292 101.130 C 209.522 100.929,210.458 100.535,211.000 100.412 C 211.046 100.401,211.271 100.308,211.500 100.205 C 213.478 99.313,218.610 98.947,220.667 99.552 C 221.171 99.701,221.771 99.855,222.000 99.895 C 222.813 100.037,223.333 100.204,223.333 100.324 C 223.333 100.390,223.427 100.453,223.542 100.462 C 223.982 100.500,224.276 100.603,224.943 100.951 C 225.323 101.149,225.668 101.277,225.710 101.235 C 225.752 101.193,225.881 101.273,225.997 101.413 C 226.113 101.552,226.299 101.667,226.411 101.667 C 226.523 101.667,226.751 101.817,226.917 102.000 C 227.083 102.183,227.313 102.333,227.429 102.333 C 227.545 102.333,227.962 102.652,228.356 103.042 C 228.749 103.431,229.013 103.656,228.942 103.542 C 228.714 103.172,229.032 103.320,229.481 103.792 C 229.721 104.044,229.918 104.325,229.920 104.417 C 229.924 104.629,230.160 104.660,230.583 104.503 C 230.767 104.435,231.292 104.300,231.750 104.202 C 234.263 103.667,236.053 103.265,237.167 102.985 C 237.854 102.813,238.628 102.652,238.887 102.627 L 239.356 102.583 238.984 102.167 C 238.780 101.938,238.418 101.532,238.181 101.266 C 237.944 101.000,237.862 100.836,238.000 100.903 C 238.137 100.970,238.100 100.910,237.917 100.769 C 237.733 100.629,237.508 100.427,237.417 100.321 C 236.957 99.791,235.401 98.336,235.292 98.335 C 235.223 98.334,235.167 98.221,235.167 98.083 C 235.167 97.946,235.102 97.833,235.022 97.833 C 234.943 97.833,234.474 97.460,233.981 97.004 C 233.487 96.549,233.032 96.174,232.970 96.171 C 232.908 96.169,232.757 96.067,232.635 95.944 C 232.512 95.822,231.888 95.394,231.248 94.993 C 230.607 94.593,230.037 94.199,229.981 94.118 C 229.925 94.038,229.826 93.990,229.760 94.013 C 229.694 94.035,229.065 93.785,228.362 93.456 C 224.636 91.713,219.964 90.733,216.417 90.950 M191.136 106.226 C 185.131 112.269,182.126 115.366,182.333 115.299 C 182.741 115.167,184.633 114.717,186.417 114.329 C 187.333 114.129,188.683 113.829,189.417 113.662 C 190.150 113.496,191.500 113.196,192.417 112.996 C 193.333 112.796,194.538 112.523,195.095 112.390 C 195.651 112.256,196.238 112.127,196.399 112.103 C 196.931 112.025,198.060 110.797,197.755 110.626 C 197.611 110.546,197.544 110.398,197.606 110.297 C 197.668 110.197,197.650 110.156,197.567 110.207 C 197.485 110.257,197.167 110.044,196.861 109.732 C 196.555 109.421,196.354 109.167,196.413 109.167 C 196.473 109.167,195.612 108.267,194.500 107.167 C 192.124 104.816,192.448 104.906,191.136 106.226 M167.154 107.229 C 167.115 107.264,166.221 107.334,165.167 107.384 C 162.654 107.502,159.461 108.212,157.372 109.118 C 156.890 109.327,156.440 109.482,156.372 109.462 C 156.305 109.442,156.048 109.561,155.800 109.726 C 155.553 109.892,155.252 110.041,155.131 110.059 C 155.010 110.077,154.641 110.258,154.311 110.462 C 153.981 110.666,153.659 110.833,153.597 110.833 C 153.534 110.833,152.868 111.238,152.116 111.733 C 151.365 112.228,150.712 112.627,150.667 112.621 C 150.621 112.614,150.356 112.828,150.078 113.096 C 149.800 113.364,149.125 113.957,148.578 114.414 C 147.597 115.234,144.591 118.167,144.732 118.167 C 144.808 118.167,144.085 119.030,143.297 119.882 C 143.047 120.152,142.799 120.513,142.744 120.686 C 142.689 120.859,142.588 121.000,142.520 121.000 C 142.451 121.000,142.100 121.597,141.739 122.326 C 141.378 123.056,140.982 123.656,140.857 123.660 C 140.733 123.664,140.671 123.770,140.719 123.896 C 140.768 124.023,140.723 124.210,140.620 124.313 C 140.382 124.552,140.465 124.548,141.716 124.269 C 143.487 123.872,145.844 123.371,147.667 123.003 C 148.629 122.808,149.992 122.512,150.695 122.344 C 151.650 122.116,152.024 122.087,152.178 122.228 C 152.318 122.358,152.350 122.359,152.280 122.233 C 152.136 121.975,152.925 121.267,153.180 121.425 C 153.314 121.508,153.342 121.482,153.261 121.351 C 153.188 121.233,153.315 120.973,153.569 120.719 C 153.806 120.482,154.001 120.354,154.003 120.436 C 154.004 120.517,154.060 120.507,154.128 120.413 C 154.527 119.858,155.740 119.015,155.862 119.207 C 155.957 119.358,155.996 119.334,155.997 119.125 C 156.000 118.863,156.185 118.757,156.542 118.814 C 156.610 118.824,156.667 118.754,156.667 118.657 C 156.667 118.560,156.753 118.534,156.859 118.599 C 156.971 118.668,157.007 118.645,156.944 118.544 C 156.806 118.321,157.576 117.809,157.877 117.924 C 158.002 117.972,158.240 117.862,158.405 117.679 C 158.571 117.497,159.071 117.226,159.518 117.077 C 159.964 116.929,160.372 116.739,160.425 116.654 C 160.477 116.569,160.706 116.500,160.935 116.500 C 161.163 116.500,161.571 116.386,161.841 116.246 C 162.112 116.106,162.577 115.972,162.876 115.947 C 163.175 115.923,163.494 115.859,163.585 115.806 C 163.676 115.753,163.881 115.731,164.042 115.757 C 164.202 115.783,164.333 115.754,164.333 115.694 C 164.333 115.577,164.695 115.559,167.972 115.511 C 169.402 115.491,170.103 115.544,170.276 115.688 C 170.477 115.855,170.555 115.848,170.677 115.656 C 170.760 115.524,170.830 115.492,170.831 115.583 C 170.833 115.675,171.115 115.770,171.459 115.795 C 171.802 115.819,172.107 115.909,172.136 115.994 C 172.165 116.078,172.297 116.106,172.430 116.055 C 172.562 116.004,172.784 116.057,172.923 116.172 C 173.061 116.287,173.222 116.334,173.279 116.276 C 173.337 116.219,173.490 116.302,173.621 116.461 C 173.751 116.620,173.811 116.656,173.753 116.542 C 173.690 116.417,173.756 116.333,173.917 116.333 C 174.078 116.333,174.139 116.411,174.067 116.526 C 173.997 116.640,174.021 116.673,174.127 116.608 C 174.225 116.547,174.518 116.584,174.778 116.690 C 175.409 116.946,176.667 117.062,176.667 116.864 C 176.667 116.777,176.817 116.666,177.000 116.618 C 177.183 116.570,177.333 116.420,177.333 116.285 C 177.333 116.150,177.483 116.000,177.667 115.952 C 177.850 115.904,178.000 115.763,178.000 115.638 C 178.000 115.514,178.169 115.336,178.375 115.242 C 178.581 115.148,178.729 114.975,178.704 114.857 C 178.679 114.738,178.725 114.683,178.807 114.734 C 179.008 114.858,179.533 114.259,179.375 114.085 C 179.306 114.009,179.334 113.994,179.436 114.053 C 179.666 114.184,180.215 113.609,180.042 113.418 C 179.973 113.342,179.997 113.326,180.096 113.382 C 180.195 113.438,180.743 113.012,181.315 112.435 L 182.355 111.386 181.969 111.146 C 181.757 111.015,181.283 110.759,180.917 110.578 C 180.550 110.398,180.213 110.212,180.167 110.167 C 180.121 110.121,179.976 110.060,179.845 110.032 C 179.714 110.003,179.396 109.830,179.138 109.646 C 178.880 109.463,178.612 109.348,178.542 109.391 C 178.472 109.434,178.117 109.325,177.754 109.148 C 177.390 108.971,176.941 108.795,176.755 108.757 C 176.569 108.719,175.987 108.533,175.462 108.344 C 174.938 108.155,174.324 108.000,174.098 108.000 C 173.873 108.000,173.494 107.926,173.256 107.836 C 172.601 107.587,172.050 107.503,170.500 107.417 C 169.721 107.373,168.665 107.298,168.154 107.250 C 167.644 107.203,167.194 107.193,167.154 107.229 M161.918 119.042 C 161.837 119.238,161.669 119.310,161.402 119.262 C 161.184 119.222,160.962 119.261,160.908 119.348 C 160.854 119.434,160.753 119.470,160.683 119.427 C 160.613 119.383,160.556 119.450,160.556 119.574 C 160.556 119.764,160.674 119.765,161.294 119.578 C 162.153 119.320,162.230 119.263,162.120 118.969 C 162.061 118.810,162.005 118.831,161.918 119.042 M193.806 127.187 C 192.644 127.700,192.632 127.762,192.695 133.191 L 192.750 137.917 202.000 137.917 L 211.250 137.917 211.250 137.338 C 211.250 136.485,211.681 136.335,214.000 136.379 L 215.917 136.417 216.029 135.667 C 216.235 134.296,216.184 131.421,215.949 131.099 C 215.747 130.823,215.270 130.800,209.263 130.784 C 201.540 130.763,202.307 130.462,202.341 133.500 C 202.354 134.646,202.357 135.754,202.349 135.963 C 202.333 136.340,202.316 136.343,200.292 136.297 L 198.250 136.250 198.164 132.250 C 198.116 130.050,198.014 128.117,197.936 127.954 C 197.447 126.932,195.291 126.532,193.806 127.187 " stroke="none" fill="#dcc179" fill-rule="evenodd"></path><path id="path3" d="M235.179 98.125 C 235.185 98.194,235.467 98.471,235.804 98.741 L 236.417 99.232 235.842 98.616 C 235.249 97.979,235.158 97.912,235.179 98.125 M216.877 99.286 C 217.131 99.325,217.506 99.324,217.711 99.284 C 217.916 99.244,217.708 99.213,217.250 99.214 C 216.792 99.216,216.624 99.248,216.877 99.286 M238.181 101.281 C 238.418 101.539,238.779 101.938,238.984 102.167 L 239.355 102.583 238.636 102.681 C 238.240 102.735,237.392 102.911,236.750 103.072 C 236.108 103.233,235.012 103.508,234.313 103.682 C 233.615 103.857,232.865 104.001,232.647 104.002 C 232.428 104.004,231.800 104.141,231.250 104.309 L 230.250 104.613 229.625 103.945 C 229.281 103.578,228.961 103.316,228.914 103.363 C 228.867 103.410,229.550 104.154,230.432 105.016 C 233.440 107.958,234.750 109.813,236.245 113.250 C 237.767 116.749,238.048 122.387,236.893 126.246 C 236.673 126.981,236.344 127.980,236.163 128.465 C 235.982 128.949,235.833 129.409,235.833 129.487 C 235.833 129.564,237.187 130.923,238.841 132.507 L 241.848 135.386 242.129 134.986 C 242.283 134.766,242.421 134.501,242.437 134.398 C 242.452 134.294,242.595 134.010,242.754 133.767 C 243.129 133.195,244.010 131.333,243.906 131.333 C 243.862 131.333,243.975 131.042,244.156 130.687 C 244.338 130.331,244.523 129.836,244.568 129.587 C 244.614 129.337,244.794 128.672,244.970 128.108 C 247.348 120.483,244.937 108.270,240.054 103.204 C 239.941 103.088,239.501 102.549,239.076 102.008 C 238.651 101.467,238.179 100.976,238.027 100.918 C 237.848 100.849,237.902 100.977,238.181 101.281 M205.500 102.917 C 205.811 103.237,206.103 103.500,206.149 103.500 C 206.195 103.500,205.978 103.237,205.667 102.917 C 205.356 102.596,205.064 102.333,205.018 102.333 C 204.972 102.333,205.189 102.596,205.500 102.917 M208.167 105.575 C 209.221 106.671,210.290 107.778,210.542 108.035 C 211.283 108.792,211.538 108.675,206.917 109.698 C 206.092 109.880,204.817 110.169,204.083 110.339 C 203.350 110.509,202.586 110.682,202.386 110.723 C 202.097 110.781,201.512 110.293,199.552 108.357 C 198.193 107.015,196.894 105.770,196.666 105.591 C 196.437 105.412,198.800 107.831,201.916 110.966 C 205.032 114.101,207.657 116.666,207.749 116.665 C 207.841 116.665,208.292 116.208,208.750 115.650 C 209.729 114.459,211.762 112.494,212.873 111.667 C 213.304 111.346,213.659 111.045,213.662 110.999 C 213.664 110.952,211.998 109.264,209.959 107.249 C 207.920 105.233,207.113 104.480,208.167 105.575 M178.723 118.542 C 168.224 129.061,167.383 129.945,167.544 130.292 C 167.639 130.498,167.781 130.667,167.859 130.667 C 167.936 130.667,168.000 130.752,168.000 130.857 C 168.000 131.483,172.495 135.833,173.142 135.833 C 173.202 135.833,178.867 130.217,185.731 123.352 C 198.161 110.922,198.211 110.869,197.939 110.482 C 197.789 110.268,197.667 110.147,197.667 110.213 C 197.667 110.279,197.529 110.202,197.360 110.042 C 197.191 109.881,197.090 109.682,197.136 109.599 C 197.181 109.516,197.139 109.497,197.043 109.557 C 196.947 109.616,196.825 109.553,196.773 109.416 C 196.720 109.279,196.590 109.167,196.483 109.167 C 196.376 109.167,196.666 109.539,197.128 109.994 L 197.968 110.821 197.330 111.440 C 196.979 111.781,196.560 112.079,196.399 112.103 C 196.238 112.127,195.651 112.256,195.095 112.390 C 194.538 112.523,193.333 112.796,192.417 112.996 C 191.500 113.196,190.150 113.496,189.417 113.662 C 188.683 113.829,187.333 114.129,186.417 114.329 C 184.633 114.717,182.741 115.167,182.333 115.299 C 182.196 115.344,183.883 113.566,186.083 111.349 C 190.679 106.717,190.242 107.167,190.149 107.167 C 190.109 107.167,184.967 112.285,178.723 118.542 M228.333 107.451 C 226.250 107.815,223.154 108.679,221.583 109.336 C 219.828 110.070,216.984 111.599,216.861 111.875 C 216.831 111.944,216.731 112.000,216.640 112.000 C 215.838 112.000,209.667 117.830,209.667 118.588 C 209.667 118.831,213.825 122.821,214.377 123.106 C 215.316 123.591,215.995 123.323,217.496 121.874 C 221.869 117.652,227.509 115.318,232.841 115.525 C 233.765 115.561,234.333 115.520,234.331 115.417 C 234.327 115.168,233.857 113.862,233.574 113.315 C 233.438 113.052,233.317 112.780,233.306 112.710 C 233.294 112.640,233.108 112.304,232.892 111.962 C 232.677 111.620,232.500 111.295,232.500 111.241 C 232.500 110.784,229.398 107.324,229.017 107.356 C 228.870 107.369,228.563 107.411,228.333 107.451 M247.174 111.792 C 247.934 114.195,248.346 116.975,248.437 120.319 L 248.512 123.055 249.258 123.903 C 250.603 125.429,250.808 125.716,251.669 127.269 C 253.320 130.250,254.018 133.059,254.015 136.703 L 254.012 138.823 254.548 138.733 C 255.197 138.624,257.518 138.144,259.667 137.674 C 260.537 137.484,261.419 137.329,261.625 137.331 C 261.831 137.332,262.006 137.240,262.013 137.125 C 262.154 134.952,261.957 131.813,261.576 130.167 C 261.418 129.479,261.296 128.899,261.307 128.876 C 261.508 128.452,258.201 121.448,257.509 120.833 C 257.458 120.787,256.969 120.192,256.424 119.509 C 254.916 117.621,252.758 115.439,251.000 114.024 C 250.129 113.323,249.379 112.708,249.333 112.656 C 249.137 112.434,247.367 111.333,247.206 111.333 C 247.089 111.333,247.078 111.489,247.174 111.792 M149.384 113.595 L 148.917 114.024 149.458 113.647 C 149.756 113.440,150.000 113.247,150.000 113.219 C 150.000 113.087,149.816 113.200,149.384 113.595 M169.125 115.618 C 169.331 115.657,169.669 115.657,169.875 115.618 C 170.081 115.578,169.912 115.545,169.500 115.545 C 169.087 115.545,168.919 115.578,169.125 115.618 M171.167 115.831 C 171.304 115.921,171.598 115.996,171.819 115.997 C 172.354 116.001,172.219 115.906,171.500 115.774 C 171.090 115.699,170.991 115.716,171.167 115.831 M173.757 116.511 C 173.817 116.609,173.906 116.649,173.954 116.601 C 174.003 116.553,174.265 116.628,174.537 116.769 C 174.809 116.910,175.070 116.986,175.117 116.939 C 175.205 116.850,174.083 116.333,173.803 116.333 C 173.717 116.333,173.696 116.413,173.757 116.511 M176.667 116.855 C 176.667 116.979,176.438 117.013,176.000 116.954 C 175.339 116.866,175.090 117.038,175.597 117.232 C 176.071 117.414,176.443 117.339,176.750 117.000 C 176.921 116.811,176.968 116.667,176.859 116.667 C 176.753 116.667,176.667 116.752,176.667 116.855 M157.083 118.260 C 156.808 118.493,156.733 118.611,156.917 118.521 C 157.410 118.279,157.942 117.845,157.750 117.839 C 157.658 117.837,157.358 118.026,157.083 118.260 M143.684 119.256 C 143.206 119.801,143.082 120.000,143.222 120.000 C 143.253 120.000,143.519 119.700,143.813 119.333 C 144.476 118.509,144.387 118.455,143.684 119.256 M162.167 119.083 C 162.167 119.221,162.148 119.334,162.125 119.335 C 162.102 119.336,161.719 119.448,161.273 119.583 C 160.560 119.799,160.488 119.799,160.667 119.583 C 160.843 119.370,160.802 119.362,160.352 119.518 C 160.067 119.618,159.833 119.751,159.833 119.814 C 159.833 119.877,159.683 119.940,159.498 119.954 C 159.314 119.968,158.958 120.115,158.706 120.281 C 158.454 120.447,158.099 120.670,157.916 120.776 C 157.733 120.882,157.604 121.057,157.629 121.164 C 157.654 121.271,157.598 121.311,157.504 121.253 C 157.410 121.194,157.333 121.231,157.333 121.333 C 157.333 121.436,157.263 121.476,157.178 121.424 C 157.093 121.371,156.917 121.479,156.788 121.663 C 156.659 121.847,156.515 121.959,156.467 121.911 C 156.419 121.864,155.872 122.297,155.251 122.874 L 154.121 123.924 154.379 125.254 C 154.521 125.985,154.684 126.864,154.742 127.207 C 155.592 132.227,159.768 139.000,164.227 142.588 L 165.371 143.509 168.269 140.638 C 169.863 139.060,171.162 137.727,171.157 137.676 C 171.151 137.625,170.548 137.096,169.817 136.500 C 167.136 134.316,164.896 131.198,163.711 128.000 C 162.786 125.507,162.249 122.309,162.374 120.042 C 162.411 119.377,162.379 118.833,162.304 118.833 C 162.228 118.833,162.167 118.946,162.167 119.083 M154.987 119.622 C 154.582 119.964,154.204 120.307,154.148 120.386 C 154.092 120.464,153.979 120.539,153.898 120.552 C 153.817 120.564,153.395 120.909,152.962 121.319 C 152.528 121.728,152.040 122.082,151.878 122.106 C 151.716 122.129,151.096 122.261,150.500 122.398 C 149.904 122.535,148.629 122.807,147.667 123.002 C 145.833 123.373,143.465 123.877,141.716 124.269 C 140.431 124.556,140.413 124.556,140.667 124.250 C 140.781 124.112,140.800 124.000,140.710 124.000 C 140.180 124.000,138.155 130.200,137.988 132.333 C 137.445 139.284,138.360 143.812,141.405 149.250 C 141.863 150.068,142.515 151.000,142.627 150.998 C 142.695 150.996,144.058 149.689,145.657 148.093 L 148.564 145.190 148.023 144.079 C 144.972 137.823,145.547 130.696,149.523 125.461 C 150.062 124.753,150.483 124.078,150.459 123.961 C 150.436 123.845,150.501 123.766,150.604 123.785 C 150.706 123.804,151.165 123.429,151.624 122.951 C 152.670 121.861,155.084 119.711,155.819 119.214 C 155.858 119.188,155.852 119.130,155.807 119.084 C 155.761 119.039,155.393 119.281,154.987 119.622 M222.237 121.203 C 221.207 121.876,218.580 124.484,217.841 125.566 L 217.284 126.382 225.150 134.191 C 229.477 138.486,233.093 142.000,233.186 142.000 C 233.279 142.000,233.603 142.262,233.906 142.583 C 234.522 143.237,234.676 143.263,235.989 142.934 C 236.499 142.807,237.667 142.537,238.583 142.335 C 239.500 142.134,240.850 141.829,241.583 141.657 C 242.317 141.486,243.085 141.325,243.291 141.298 C 243.631 141.254,243.583 141.163,242.764 140.285 C 242.269 139.755,241.822 139.211,241.771 139.077 C 241.719 138.943,241.562 138.833,241.422 138.833 C 241.282 138.833,241.167 138.774,241.167 138.701 C 241.167 138.518,223.389 120.667,223.206 120.667 C 223.124 120.667,222.688 120.908,222.237 121.203 M141.418 122.521 C 141.089 123.082,140.860 123.582,140.910 123.632 C 141.018 123.740,140.966 123.821,141.621 122.542 C 142.303 121.211,142.192 121.199,141.418 122.521 M204.958 130.784 C 205.165 130.824,205.502 130.824,205.708 130.784 C 205.915 130.745,205.746 130.712,205.333 130.712 C 204.921 130.712,204.752 130.745,204.958 130.784 M206.796 130.789 C 207.188 130.824,207.788 130.824,208.129 130.788 C 208.471 130.752,208.150 130.723,207.417 130.724 C 206.683 130.724,206.404 130.754,206.796 130.789 M214.127 130.785 C 214.334 130.824,214.634 130.823,214.794 130.781 C 214.953 130.739,214.783 130.707,214.417 130.709 C 214.050 130.711,213.920 130.745,214.127 130.785 M216.039 135.667 C 216.039 135.987,216.073 136.119,216.115 135.958 C 216.157 135.798,216.157 135.535,216.115 135.375 C 216.073 135.215,216.039 135.346,216.039 135.667 M211.680 136.547 C 211.458 136.659,211.243 136.862,211.202 137.000 C 211.158 137.151,211.227 137.122,211.378 136.924 C 211.602 136.633,211.841 136.599,213.648 136.599 C 214.758 136.599,215.667 136.556,215.667 136.504 C 215.667 136.307,212.081 136.345,211.680 136.547 M192.686 146.250 C 192.697 150.833,192.740 154.452,192.782 154.292 C 192.850 154.030,193.120 154.000,195.429 154.000 L 198.000 154.000 198.008 153.292 C 198.026 151.550,198.188 148.434,198.266 148.307 C 198.314 148.230,199.206 148.167,200.249 148.167 C 202.506 148.167,202.333 147.943,202.360 150.903 C 202.377 152.744,202.422 153.068,202.702 153.385 C 202.880 153.586,202.971 153.645,202.904 153.516 C 202.821 153.356,202.847 153.322,202.986 153.408 C 203.274 153.586,205.882 153.659,206.086 153.494 C 206.179 153.419,207.566 153.409,209.169 153.471 C 212.986 153.620,215.651 153.583,215.855 153.378 C 216.033 153.200,216.089 148.445,215.917 148.167 C 215.857 148.070,214.920 148.000,213.675 148.000 C 211.062 148.000,211.333 148.614,211.333 142.695 L 211.333 137.917 202.000 137.917 L 192.667 137.917 192.686 146.250 M151.167 146.141 C 147.637 149.687,144.487 152.915,144.167 153.314 C 143.846 153.713,143.506 154.124,143.411 154.228 C 143.316 154.332,142.978 154.792,142.661 155.250 C 142.343 155.708,142.040 156.121,141.987 156.167 C 141.766 156.358,139.654 160.624,139.700 160.786 C 139.721 160.858,139.640 161.092,139.522 161.306 C 139.301 161.705,139.129 162.355,139.107 162.875 C 139.101 163.035,138.980 163.173,138.839 163.180 C 138.687 163.188,138.662 163.225,138.780 163.273 C 138.924 163.332,138.930 163.485,138.802 163.852 C 138.560 164.545,138.641 164.570,140.114 164.259 C 140.830 164.107,142.092 163.842,142.917 163.668 C 147.072 162.793,147.635 162.641,147.736 162.363 C 147.939 161.808,148.336 161.251,148.500 161.292 C 148.592 161.315,148.658 161.277,148.647 161.208 C 148.636 161.140,148.645 161.027,148.668 160.958 C 148.690 160.890,148.718 160.775,148.729 160.704 C 148.767 160.470,149.418 159.722,149.670 159.623 C 149.805 159.570,149.832 159.520,149.728 159.513 C 149.624 159.506,149.830 159.191,150.186 158.813 C 150.542 158.435,150.833 158.060,150.833 157.979 C 150.833 157.899,150.895 157.833,150.970 157.833 C 151.045 157.833,153.914 155.059,157.345 151.669 L 163.583 145.504 162.777 144.770 C 160.766 142.940,158.500 140.636,158.500 140.421 C 158.500 140.279,157.845 139.665,157.708 139.680 C 157.640 139.688,154.696 142.595,151.167 146.141 M155.311 157.432 C 154.086 158.678,153.102 159.766,153.125 159.849 C 153.148 159.932,153.053 160.000,152.914 160.000 C 152.658 160.000,151.963 160.972,152.082 161.165 C 152.230 161.405,153.780 161.329,154.892 161.027 C 156.853 160.496,159.061 159.991,159.417 159.993 C 159.600 159.995,160.191 159.863,160.730 159.702 L 161.710 159.409 160.980 158.646 C 159.834 157.449,159.397 156.935,159.651 157.082 C 159.808 157.174,159.846 157.155,159.766 157.026 C 159.701 156.920,159.575 156.833,159.488 156.833 C 159.400 156.833,158.978 156.458,158.551 156.000 C 157.570 154.947,157.896 154.803,155.311 157.432 M151.108 276.793 C 151.056 276.878,150.241 276.935,149.298 276.920 C 148.355 276.904,147.230 276.942,146.798 277.003 C 146.366 277.065,146.042 277.066,146.079 277.006 C 146.116 276.947,145.514 276.902,144.741 276.907 C 143.321 276.917,142.979 277.115,143.949 277.367 C 144.837 277.597,144.825 277.504,144.837 284.143 C 144.850 290.870,144.836 290.976,143.907 291.212 C 143.729 291.258,145.360 291.303,147.531 291.314 L 151.480 291.333 151.607 290.542 C 151.677 290.106,151.739 289.712,151.744 289.667 C 151.750 289.621,151.801 289.508,151.857 289.417 C 151.913 289.325,151.904 289.100,151.837 288.917 C 151.724 288.606,151.471 288.970,151.425 289.512 C 151.379 290.046,149.929 290.718,149.014 290.630 C 146.944 290.430,146.667 289.961,146.667 286.659 L 146.667 284.167 147.375 284.138 C 149.494 284.054,150.051 284.233,150.421 285.119 C 150.751 285.910,150.996 285.671,151.069 284.485 C 151.099 283.989,151.178 283.456,151.243 283.300 C 151.456 282.795,151.195 282.650,150.554 282.918 C 150.163 283.081,149.395 283.167,148.313 283.167 L 146.667 283.167 146.667 280.542 L 146.667 277.917 148.348 277.918 C 149.747 277.919,150.064 277.968,150.239 278.207 C 150.355 278.365,150.489 278.456,150.536 278.408 C 150.584 278.361,150.668 278.549,150.724 278.828 C 150.890 279.660,151.096 279.406,151.295 278.125 C 151.462 277.045,151.368 276.373,151.108 276.793 M241.150 277.388 C 241.025 277.770,240.918 278.196,240.913 278.334 C 240.908 278.471,240.842 278.684,240.767 278.806 C 240.492 279.251,240.981 279.433,241.293 279.003 C 241.702 278.439,241.696 278.444,242.250 278.167 C 242.616 277.984,243.185 277.929,244.375 277.964 L 246.000 278.012 246.000 284.141 C 246.000 290.736,246.021 290.577,245.102 291.041 C 244.660 291.264,244.828 291.284,247.185 291.288 C 248.950 291.291,249.585 291.246,249.222 291.145 C 248.932 291.064,248.501 290.767,248.264 290.486 L 247.833 289.974 247.833 283.987 L 247.833 278.000 249.439 278.000 C 251.308 278.000,252.108 278.334,252.279 279.185 C 252.499 280.286,252.828 279.494,252.831 277.854 L 252.833 276.792 252.297 276.899 C 251.412 277.076,242.293 277.040,241.814 276.858 C 241.403 276.701,241.366 276.731,241.150 277.388 M124.246 276.994 C 124.305 277.089,124.457 277.167,124.585 277.167 C 124.712 277.167,125.008 277.418,125.242 277.725 L 125.668 278.283 125.679 283.933 C 125.685 287.041,125.640 289.733,125.579 289.917 C 125.518 290.100,125.440 290.343,125.406 290.457 C 125.372 290.571,125.125 290.798,124.856 290.962 C 124.373 291.255,124.398 291.259,126.862 291.255 C 128.677 291.251,129.250 291.205,128.966 291.083 C 127.799 290.584,127.766 290.496,127.701 287.708 L 127.649 285.500 128.480 285.500 C 130.020 285.500,130.633 285.930,132.044 288.000 C 132.512 288.688,132.975 289.333,133.073 289.435 C 133.170 289.537,133.452 289.837,133.698 290.102 C 135.036 291.541,136.190 291.917,137.924 291.481 C 138.816 291.256,138.760 291.077,137.752 290.926 C 137.260 290.852,136.753 290.614,136.291 290.241 C 135.902 289.927,135.412 289.581,135.202 289.472 C 134.992 289.363,134.858 289.175,134.905 289.054 C 134.951 288.932,134.879 288.833,134.745 288.833 C 134.610 288.833,134.500 288.718,134.500 288.578 C 134.500 288.438,134.395 288.283,134.267 288.233 C 134.139 288.184,133.824 287.812,133.567 287.405 C 133.310 286.999,133.040 286.667,132.967 286.667 C 132.893 286.667,132.832 286.573,132.831 286.458 C 132.830 286.344,132.534 285.933,132.174 285.545 L 131.519 284.840 131.968 284.374 C 132.865 283.443,133.956 281.500,133.760 281.183 C 133.706 281.095,133.724 280.984,133.801 280.937 C 133.878 280.889,133.921 280.596,133.896 280.286 C 133.778 278.790,133.071 277.920,131.419 277.239 C 130.615 276.907,126.164 276.776,125.688 277.070 C 125.610 277.118,125.498 277.109,125.439 277.051 C 125.249 276.860,124.131 276.807,124.246 276.994 M163.193 277.181 C 163.109 277.402,163.032 277.640,163.022 277.709 C 163.012 277.778,162.883 278.116,162.736 278.459 C 162.589 278.802,162.332 279.458,162.166 279.917 C 160.836 283.584,160.291 285.142,160.213 285.500 C 160.163 285.729,160.070 285.992,160.006 286.083 C 159.943 286.175,159.758 286.625,159.597 287.083 C 158.398 290.479,158.270 290.681,157.125 291.004 C 156.179 291.270,156.319 291.296,158.708 291.293 C 160.451 291.291,160.829 291.252,160.500 291.108 C 159.759 290.784,159.681 290.086,160.238 288.753 C 160.382 288.408,160.500 288.003,160.500 287.853 C 160.500 287.703,160.684 287.234,160.910 286.811 C 161.135 286.388,161.291 286.013,161.256 285.979 C 161.222 285.945,162.161 285.940,163.344 285.968 C 164.526 285.996,165.483 286.071,165.470 286.134 C 165.446 286.250,165.701 286.953,165.996 287.583 C 166.804 289.313,167.250 290.833,166.949 290.833 C 166.829 290.833,166.594 290.933,166.428 291.054 C 166.172 291.241,166.484 291.275,168.480 291.278 C 169.774 291.279,170.833 291.217,170.833 291.140 C 170.833 291.063,170.635 291.000,170.393 291.000 C 169.580 291.000,168.116 288.646,166.765 285.167 C 166.604 284.754,166.329 284.117,166.153 283.750 C 165.977 283.383,165.833 282.970,165.833 282.831 C 165.833 282.692,165.688 282.306,165.509 281.974 C 165.331 281.642,165.231 281.324,165.287 281.268 C 165.343 281.212,165.297 281.167,165.185 281.167 C 165.072 281.167,165.023 281.098,165.074 281.015 C 165.126 280.931,165.059 280.650,164.926 280.390 C 164.643 279.837,163.811 277.679,163.763 277.373 C 163.686 276.886,163.348 276.772,163.193 277.181 M186.813 277.000 C 186.786 277.213,186.720 277.477,186.667 277.583 C 186.497 277.923,186.297 279.185,186.397 279.286 C 186.453 279.342,186.788 279.076,187.141 278.694 L 187.782 278.000 189.641 278.000 L 191.500 278.000 191.520 283.958 C 191.531 287.235,191.523 289.992,191.502 290.083 C 191.482 290.175,191.452 290.325,191.436 290.417 C 191.375 290.770,191.134 291.000,190.823 291.000 C 190.646 291.000,190.500 291.056,190.500 291.125 C 190.500 291.194,191.569 291.259,192.875 291.271 L 195.250 291.292 194.542 290.986 C 194.152 290.818,193.833 290.571,193.833 290.437 C 193.833 290.304,193.740 290.163,193.625 290.125 C 193.465 290.072,193.406 288.668,193.369 284.028 L 193.321 278.000 194.955 278.000 C 196.737 278.000,197.833 278.443,197.833 279.163 C 197.833 279.624,198.124 279.732,198.254 279.319 C 198.675 277.993,198.333 276.505,197.697 276.898 C 197.499 277.020,187.833 277.055,187.711 276.934 C 187.546 276.768,186.835 276.821,186.813 277.000 M232.250 277.000 C 230.728 277.059,230.207 277.126,230.500 277.228 C 231.023 277.410,231.518 277.836,231.410 278.011 C 231.365 278.084,231.385 278.179,231.456 278.222 C 231.526 278.266,231.546 281.017,231.500 284.336 L 231.417 290.370 230.881 290.818 L 230.344 291.265 234.506 291.260 L 238.667 291.255 238.832 290.752 C 239.034 290.139,239.218 288.667,239.092 288.667 C 239.042 288.667,238.645 289.034,238.209 289.483 C 236.760 290.977,234.707 291.021,233.762 289.578 C 233.504 289.184,233.385 284.048,233.498 278.124 C 233.502 277.913,234.332 277.256,234.719 277.157 C 235.438 276.974,234.491 276.914,232.250 277.000 M257.553 277.074 C 257.582 277.161,257.825 277.291,258.094 277.363 C 259.003 277.606,259.000 277.586,259.000 283.938 C 259.000 290.260,258.961 290.581,258.168 290.858 C 257.892 290.954,257.707 291.097,257.756 291.176 C 257.804 291.254,257.951 291.278,258.081 291.228 C 258.211 291.178,259.240 291.220,260.367 291.321 C 262.662 291.527,264.872 291.566,265.500 291.412 C 265.729 291.355,266.235 291.268,266.625 291.216 C 267.015 291.165,267.333 291.073,267.333 291.012 C 267.333 290.950,267.615 290.799,267.958 290.676 C 269.695 290.052,271.624 287.619,271.740 285.907 C 271.759 285.626,271.812 285.326,271.858 285.240 C 272.165 284.667,271.734 281.165,271.326 280.912 C 271.235 280.856,271.199 280.749,271.246 280.673 C 271.337 280.526,269.063 278.167,268.830 278.167 C 268.753 278.167,268.591 278.067,268.470 277.946 C 268.189 277.665,266.171 276.978,265.978 277.097 C 265.899 277.146,265.833 277.119,265.833 277.037 C 265.833 276.954,264.011 276.895,261.667 276.903 C 259.130 276.911,257.521 276.978,257.553 277.074 M175.560 277.115 C 175.623 277.179,175.838 277.256,176.037 277.286 C 176.996 277.432,176.999 277.455,177.013 283.951 C 177.020 287.232,176.968 290.067,176.897 290.250 C 176.732 290.679,176.413 291.000,176.151 291.000 C 176.037 291.000,175.992 291.047,176.049 291.105 C 176.107 291.162,177.991 291.226,180.236 291.247 L 184.318 291.284 184.398 290.851 C 184.742 288.994,184.610 288.104,184.146 289.154 C 184.027 289.423,183.870 289.606,183.798 289.561 C 183.726 289.517,183.667 289.563,183.667 289.664 C 183.667 289.919,182.020 290.663,181.453 290.665 C 180.799 290.667,179.904 290.261,179.425 289.743 L 179.017 289.303 179.005 283.893 C 178.991 277.959,179.046 277.578,179.963 277.215 C 180.321 277.073,179.890 277.032,177.931 277.018 C 176.563 277.008,175.496 277.052,175.560 277.115 M203.000 277.187 C 203.000 277.267,203.097 277.333,203.215 277.333 C 203.648 277.333,206.833 281.074,206.833 281.583 C 206.833 281.701,206.936 281.837,207.062 281.885 C 207.187 281.933,207.475 282.344,207.701 282.797 C 207.927 283.250,208.281 283.895,208.488 284.230 C 208.694 284.564,208.880 284.947,208.899 285.081 C 208.919 285.214,208.968 285.357,209.009 285.397 C 209.225 285.611,208.905 290.531,208.667 290.667 C 207.569 291.296,207.633 291.323,210.232 291.318 C 212.760 291.313,213.112 291.187,211.796 290.758 C 210.939 290.479,210.822 290.052,210.882 287.417 C 210.911 286.133,210.980 284.933,211.035 284.750 C 211.217 284.143,212.063 282.595,212.619 281.851 C 212.920 281.448,213.167 281.066,213.167 281.002 C 213.167 280.823,214.120 279.736,215.500 278.344 L 216.750 277.082 214.885 277.083 L 213.021 277.083 213.342 277.425 C 213.747 277.857,213.594 278.485,212.783 279.720 C 211.385 281.851,210.910 282.624,210.648 283.188 C 210.374 283.779,210.000 284.171,210.000 283.866 C 210.000 283.782,209.815 283.440,209.588 283.107 C 209.362 282.773,209.231 282.499,209.297 282.497 C 209.363 282.496,209.340 282.440,209.246 282.372 C 208.578 281.892,206.537 277.896,206.817 277.616 C 207.258 277.175,206.955 277.083,204.999 277.062 C 203.899 277.050,203.000 277.106,203.000 277.187 M129.792 277.697 C 129.906 277.711,130.000 277.785,130.000 277.861 C 130.000 277.938,130.077 278.000,130.171 278.000 C 130.973 278.000,132.050 280.109,131.978 281.537 C 131.867 283.736,130.729 284.633,128.375 284.376 L 127.667 284.298 127.667 280.994 C 127.667 277.157,127.497 277.419,129.792 277.697 M264.251 277.853 C 264.709 277.881,265.271 277.995,265.500 278.107 C 265.729 278.219,266.029 278.334,266.167 278.364 C 269.546 279.081,271.256 285.138,269.003 288.412 C 267.479 290.628,261.927 291.624,261.049 289.839 C 260.877 289.490,260.780 278.002,260.948 277.994 C 261.504 277.969,263.096 277.781,263.148 277.734 C 263.184 277.702,263.260 277.704,263.316 277.739 C 263.373 277.775,263.794 277.826,264.251 277.853 M163.500 280.125 C 163.500 280.285,163.650 280.810,163.833 281.292 C 164.016 281.773,164.125 282.167,164.077 282.167 C 164.028 282.167,164.067 282.314,164.164 282.494 C 164.260 282.675,164.480 283.275,164.652 283.828 L 164.965 284.833 163.320 284.833 L 161.675 284.833 161.781 284.292 C 161.839 283.994,162.022 283.431,162.187 283.042 C 162.353 282.652,162.454 282.333,162.412 282.333 C 162.370 282.333,162.520 281.846,162.744 281.250 C 162.968 280.654,163.113 280.167,163.066 280.167 C 163.019 280.167,163.027 280.092,163.083 280.000 C 163.249 279.732,163.500 279.808,163.500 280.125 M198.083 300.956 C 196.208 301.227,195.606 305.324,197.212 306.896 C 198.116 307.781,200.437 306.863,200.523 305.585 C 200.670 303.390,200.486 302.129,199.938 301.581 C 199.728 301.371,198.722 300.814,198.633 300.858 C 198.606 300.872,198.358 300.916,198.083 300.956 M204.393 301.005 C 202.583 301.702,202.409 306.029,204.150 307.050 C 205.845 308.043,207.362 306.514,207.220 303.954 C 207.090 301.603,205.945 300.409,204.393 301.005 M179.166 301.751 L 178.428 302.502 178.781 302.855 C 179.113 303.187,179.157 303.192,179.521 302.937 C 180.147 302.499,180.167 302.561,180.167 305.000 L 180.167 307.333 180.566 307.333 C 181.133 307.333,181.167 307.139,181.167 303.903 L 181.167 301.000 180.535 301.000 C 180.006 301.000,179.783 301.122,179.166 301.751 M184.461 301.292 C 184.319 301.452,184.151 301.902,184.087 302.291 C 184.023 302.680,183.903 303.041,183.819 303.092 C 183.182 303.486,183.969 304.257,185.143 304.389 C 186.169 304.503,186.500 304.716,186.500 305.259 C 186.500 306.135,185.576 306.444,185.030 305.750 C 184.660 305.280,183.667 305.149,183.667 305.570 C 183.667 306.878,185.580 307.713,186.788 306.931 C 188.439 305.863,187.587 303.333,185.575 303.333 C 185.024 303.333,184.817 303.072,185.125 302.764 C 185.194 302.695,185.250 302.551,185.250 302.444 C 185.250 302.320,185.657 302.232,186.375 302.201 L 187.500 302.151 187.500 301.576 L 187.500 301.000 186.109 301.000 C 184.994 301.000,184.667 301.058,184.461 301.292 M190.813 301.083 C 190.801 301.129,190.777 301.223,190.760 301.292 C 190.604 301.910,190.251 302.949,190.152 303.083 C 189.827 303.522,190.464 304.333,191.134 304.333 C 192.534 304.333,193.236 304.973,192.706 305.767 C 192.250 306.450,191.167 306.206,191.167 305.421 C 191.167 305.209,190.295 305.211,190.032 305.423 C 189.873 305.550,190.540 306.685,190.920 306.934 C 191.405 307.252,192.667 307.400,192.667 307.140 C 192.667 307.052,192.730 307.020,192.808 307.068 C 193.017 307.197,193.829 306.285,193.920 305.820 C 194.193 304.413,193.176 303.213,191.792 303.307 C 191.285 303.342,191.240 303.220,191.527 302.591 C 191.704 302.202,191.808 302.167,192.758 302.167 C 193.809 302.167,194.492 301.391,193.707 301.090 C 193.412 300.977,190.841 300.971,190.813 301.083 M211.085 302.042 C 210.363 303.299,210.177 303.608,209.772 304.220 C 209.215 305.062,209.748 307.083,210.528 307.083 C 210.589 307.083,210.685 307.129,210.741 307.185 C 211.431 307.875,213.500 306.544,213.500 305.411 C 213.500 304.602,212.583 303.070,212.233 303.292 C 211.686 303.638,211.765 302.606,212.318 302.167 C 212.424 302.083,212.833 301.216,212.833 301.075 C 212.833 301.034,212.575 301.000,212.258 301.000 C 211.728 301.000,211.637 301.081,211.085 302.042 M217.603 301.542 C 217.192 302.303,216.819 302.964,216.308 303.833 C 215.393 305.392,215.929 307.192,217.315 307.211 C 218.686 307.229,218.821 307.180,219.332 306.475 C 220.200 305.278,219.693 303.667,218.367 303.403 C 217.877 303.305,217.843 303.264,218.054 303.022 C 218.184 302.872,218.421 302.469,218.581 302.125 C 218.741 301.781,218.935 301.500,219.014 301.500 C 219.092 301.500,219.113 301.387,219.060 301.250 C 218.869 300.752,217.927 300.941,217.603 301.542 M199.024 302.309 C 199.276 302.604,199.612 304.066,199.507 304.417 C 199.480 304.508,199.461 304.696,199.465 304.833 C 199.513 306.426,197.853 306.595,197.527 305.031 C 197.125 303.102,198.133 301.269,199.024 302.309 M205.529 302.238 C 206.118 302.494,206.353 304.868,205.871 305.693 C 204.991 307.201,203.557 304.981,204.168 303.055 C 204.467 302.110,204.790 301.916,205.529 302.238 M212.284 305.046 C 212.356 305.588,212.082 306.167,211.752 306.167 C 210.832 306.167,210.313 305.211,210.909 304.615 C 211.316 304.208,212.209 304.488,212.284 305.046 M218.413 304.664 C 218.553 304.779,218.667 305.043,218.667 305.250 C 218.667 306.076,217.443 306.380,217.029 305.657 C 216.527 304.782,217.615 304.001,218.413 304.664 " stroke="none" fill="#d4bc74" fill-rule="evenodd"></path><path id="path4" d="M192.552 156.917 C 192.553 157.467,192.584 157.672,192.621 157.372 C 192.658 157.072,192.657 156.622,192.619 156.372 C 192.581 156.122,192.551 156.367,192.552 156.917 M262.209 170.417 C 262.211 170.783,262.245 170.914,262.285 170.706 C 262.324 170.499,262.323 170.199,262.281 170.040 C 262.239 169.880,262.207 170.050,262.209 170.417 M198.062 172.417 C 198.063 173.425,198.090 173.816,198.123 173.286 C 198.157 172.755,198.156 171.930,198.123 171.452 C 198.089 170.974,198.062 171.408,198.062 172.417 M192.536 177.419 L 192.500 184.087 195.250 186.833 L 198.000 189.580 198.000 185.581 C 198.001 183.382,198.039 179.933,198.085 177.917 C 198.132 175.900,198.125 174.344,198.071 174.458 C 197.998 174.612,197.279 174.667,195.325 174.667 L 192.677 174.667 192.624 172.708 C 192.595 171.631,192.556 173.751,192.536 177.419 M258.956 183.043 L 258.662 183.583 258.998 183.190 C 259.283 182.855,259.436 182.497,259.292 182.501 C 259.269 182.502,259.118 182.745,258.956 183.043 M243.917 184.167 C 243.571 184.442,243.354 184.664,243.435 184.660 C 243.598 184.652,244.796 183.667,244.642 183.667 C 244.589 183.667,244.263 183.892,243.917 184.167 M257.759 184.986 C 257.532 185.345,257.269 185.687,257.173 185.746 C 257.078 185.805,257.002 185.942,257.004 186.052 C 257.008 186.275,257.502 185.688,257.994 184.875 C 258.461 184.104,258.254 184.201,257.759 184.986 M256.187 187.000 C 255.627 187.696,255.625 187.945,256.184 187.292 C 256.539 186.878,256.879 186.333,256.784 186.333 C 256.750 186.333,256.481 186.633,256.187 187.000 M239.333 186.917 C 239.104 187.048,238.992 187.155,239.083 187.155 C 239.175 187.155,239.438 187.048,239.667 186.917 C 239.896 186.786,240.008 186.678,239.917 186.678 C 239.825 186.678,239.563 186.786,239.333 186.917 M208.994 188.292 L 208.083 189.250 209.042 188.339 C 209.569 187.838,210.000 187.407,210.000 187.381 C 210.000 187.257,209.841 187.401,208.994 188.292 M255.000 188.333 C 254.789 188.608,254.534 188.833,254.432 188.833 C 254.330 188.833,254.151 188.986,254.035 189.173 C 253.918 189.360,253.752 189.470,253.667 189.417 C 253.581 189.364,252.890 189.470,252.131 189.652 C 251.371 189.833,249.963 190.143,249.000 190.340 C 247.235 190.701,245.502 191.068,242.750 191.662 C 240.613 192.123,238.356 192.597,236.333 193.009 C 235.371 193.204,233.946 193.504,233.167 193.675 C 229.791 194.414,228.649 194.658,227.000 194.992 C 226.037 195.187,224.612 195.489,223.833 195.663 C 221.453 196.195,220.000 196.382,220.000 196.156 C 220.000 196.090,219.887 195.992,219.750 195.940 C 219.612 195.887,219.500 195.910,219.500 195.990 C 219.500 196.222,220.969 196.872,221.188 196.737 C 221.306 196.664,221.341 196.687,221.275 196.793 C 221.096 197.082,225.198 198.389,227.167 198.671 C 227.762 198.756,228.700 198.902,229.250 198.995 C 235.643 200.080,244.656 197.530,250.333 193.032 C 251.212 192.335,251.133 192.409,253.385 190.197 C 255.523 188.097,255.764 187.833,255.551 187.833 C 255.459 187.833,255.211 188.058,255.000 188.333 M240.583 189.094 C 240.125 189.315,239.862 189.493,240.000 189.490 C 240.137 189.487,240.588 189.304,241.000 189.083 C 241.969 188.564,241.667 188.572,240.583 189.094 M220.707 191.877 C 217.233 195.354,217.449 195.008,218.405 195.567 C 219.220 196.045,219.333 196.078,219.333 195.833 C 219.333 195.742,219.221 195.667,219.083 195.667 C 218.946 195.667,218.833 195.592,218.833 195.500 C 218.833 195.408,218.777 195.349,218.708 195.369 C 218.640 195.388,218.405 195.305,218.186 195.184 C 217.744 194.940,223.473 188.890,223.967 189.080 C 224.086 189.125,224.138 189.089,224.082 188.998 C 223.898 188.700,223.774 188.806,220.707 191.877 M204.832 192.458 L 201.750 195.583 204.875 192.502 C 207.778 189.639,208.075 189.333,207.957 189.333 C 207.933 189.333,206.527 190.740,204.832 192.458 M237.417 190.175 C 237.156 190.294,237.205 190.312,237.641 190.259 C 237.947 190.221,238.241 190.148,238.293 190.095 C 238.442 189.947,237.788 190.006,237.417 190.175 M187.906 190.708 L 187.417 191.250 187.958 190.760 C 188.463 190.304,188.577 190.167,188.448 190.167 C 188.419 190.167,188.175 190.410,187.906 190.708 M233.875 190.782 C 234.035 190.823,234.298 190.823,234.458 190.782 C 234.619 190.740,234.487 190.705,234.167 190.705 C 233.846 190.705,233.715 190.740,233.875 190.782 M195.840 193.197 C 195.882 193.259,197.209 194.616,198.789 196.213 C 200.370 197.809,201.613 199.165,201.553 199.224 C 201.493 199.284,201.561 199.333,201.703 199.333 C 201.845 199.333,202.000 199.483,202.048 199.667 C 202.096 199.850,202.255 200.000,202.401 200.000 C 202.547 200.000,202.667 200.068,202.667 200.150 C 202.667 200.331,201.756 200.667,201.267 200.666 C 201.074 200.666,200.392 200.809,199.750 200.984 C 198.193 201.409,196.035 201.956,195.417 202.083 C 193.805 202.413,193.618 202.504,193.901 202.816 C 194.047 202.978,194.111 203.173,194.042 203.249 C 193.973 203.325,194.010 203.333,194.125 203.267 C 194.240 203.201,194.333 203.219,194.333 203.306 C 194.333 203.847,202.472 211.333,203.060 211.333 C 203.111 211.333,203.409 211.508,203.723 211.721 C 204.316 212.123,205.812 212.877,207.250 213.499 C 212.918 215.947,221.093 216.007,226.917 213.641 C 230.989 211.987,234.249 209.620,238.014 205.583 C 239.411 204.086,239.765 203.669,240.349 202.833 C 240.702 202.329,241.218 201.595,241.495 201.202 C 242.258 200.123,242.202 200.013,241.089 200.401 C 238.989 201.134,233.361 201.816,231.265 201.591 C 230.404 201.499,230.184 201.528,229.993 201.758 C 229.568 202.270,226.485 204.667,226.251 204.667 C 226.198 204.667,225.955 204.798,225.710 204.958 C 225.465 205.119,225.037 205.336,224.757 205.441 C 224.478 205.546,223.725 205.831,223.083 206.075 C 218.913 207.657,213.867 207.362,209.500 205.280 C 207.000 204.088,206.441 203.622,200.590 197.847 C 197.935 195.227,195.797 193.134,195.840 193.197 M204.618 198.477 C 207.613 201.459,207.823 201.604,208.141 200.907 C 208.257 200.653,208.412 200.529,208.526 200.600 C 208.636 200.667,208.673 200.645,208.613 200.548 C 208.506 200.374,209.048 199.770,209.187 199.909 C 209.229 199.951,209.274 199.851,209.286 199.685 C 209.308 199.397,209.265 199.397,208.200 199.692 C 206.699 200.109,206.631 200.098,205.805 199.319 C 205.408 198.944,204.671 198.247,204.167 197.769 C 201.788 195.515,202.040 195.911,204.618 198.477 M167.124 198.930 C 167.693 199.714,171.162 203.052,172.250 203.863 C 173.556 204.836,173.841 204.987,173.346 204.444 C 173.124 204.200,172.872 204.000,172.786 204.000 C 172.498 204.000,170.935 202.621,168.844 200.523 C 167.703 199.379,166.929 198.662,167.124 198.930 M173.836 204.758 C 173.834 204.855,173.916 205.016,174.017 205.117 C 174.218 205.318,172.971 205.744,171.426 206.002 C 170.963 206.080,170.255 206.261,169.854 206.405 C 169.453 206.549,168.936 206.667,168.705 206.667 C 168.475 206.667,167.790 206.810,167.185 206.986 C 166.579 207.162,165.765 207.356,165.375 207.418 C 164.985 207.479,164.667 207.598,164.667 207.681 C 164.667 207.765,164.579 207.833,164.472 207.833 C 164.365 207.833,164.320 207.791,164.371 207.740 C 164.483 207.629,163.961 207.091,163.124 206.457 C 162.791 206.204,162.252 205.716,161.927 205.373 C 161.602 205.030,161.336 204.799,161.335 204.860 C 161.333 205.014,165.045 208.667,165.203 208.667 C 165.275 208.667,165.333 208.731,165.333 208.809 C 165.333 208.984,167.048 210.341,168.412 211.245 C 175.085 215.668,185.009 216.656,192.417 213.634 C 193.753 213.089,196.667 211.599,196.667 211.460 C 196.667 211.390,196.760 211.331,196.875 211.327 C 196.990 211.324,197.297 211.147,197.558 210.933 L 198.032 210.545 195.086 207.647 C 191.595 204.215,192.139 204.491,190.458 205.297 C 187.833 206.554,185.410 207.097,182.583 207.061 C 180.036 207.029,178.245 206.655,175.750 205.631 C 174.390 205.074,174.090 204.926,173.961 204.750 C 173.880 204.641,173.838 204.643,173.836 204.758 M191.408 283.833 C 191.408 287.087,191.431 288.419,191.458 286.792 C 191.485 285.165,191.485 282.502,191.458 280.875 C 191.431 279.248,191.408 280.579,191.408 283.833 M258.908 283.833 C 258.908 286.904,258.931 288.160,258.958 286.625 C 258.986 285.090,258.986 282.577,258.958 281.042 C 258.931 279.506,258.908 280.762,258.908 283.833 M185.792 302.287 C 186.090 302.324,186.577 302.324,186.875 302.287 C 187.173 302.250,186.929 302.220,186.333 302.220 C 185.737 302.220,185.494 302.250,185.792 302.287 M192.121 302.287 C 192.417 302.324,192.942 302.324,193.288 302.288 C 193.634 302.252,193.392 302.222,192.750 302.221 C 192.108 302.221,191.825 302.250,192.121 302.287 " stroke="none" fill="#ac9454" fill-rule="evenodd"></path></g></svg>