<svg id="svg" version="1.1" xmlns="http://www.w3.org/2000/svg" xmlns:xlink="http://www.w3.org/1999/xlink" width="400" height="404.4006948465547" viewBox="0, 0, 400,404.4006948465547"><g id="svgg"><path id="path0" d="M258.599 259.666 C 238.960 262.496,228.999 285.723,240.439 302.013 C 252.207 318.770,277.945 316.820,286.936 298.489 C 296.553 278.882,280.250 256.546,258.599 259.666 M10.423 286.624 L 10.423 312.681 25.130 312.681 L 39.838 312.681 39.838 308.049 L 39.838 303.416 29.647 303.416 L 19.456 303.416 19.456 281.992 L 19.456 260.567 14.939 260.567 L 10.423 260.567 10.423 286.624 M43.775 286.624 L 43.775 312.681 61.262 312.681 L 78.749 312.681 78.749 308.049 L 78.749 303.416 65.779 303.416 L 52.808 303.416 52.808 297.279 L 52.808 291.141 63.578 291.141 C 70.735 291.141,74.349 291.062,74.349 290.905 C 74.349 290.775,73.867 288.743,73.278 286.388 L 72.206 282.108 62.507 282.108 L 52.808 282.108 52.808 275.854 L 52.808 269.600 65.779 269.600 L 78.749 269.600 78.749 265.084 L 78.749 260.567 61.262 260.567 L 43.775 260.567 43.775 286.624 M93.323 286.423 C 86.900 300.644,81.609 312.372,81.566 312.485 C 81.521 312.601,83.666 312.663,86.531 312.628 L 91.575 312.565 93.567 308.164 L 95.558 303.764 106.262 303.704 C 112.149 303.670,116.966 303.555,116.966 303.447 C 116.966 303.339,116.100 301.334,115.042 298.991 L 113.118 294.731 106.472 294.669 C 102.817 294.635,99.826 294.531,99.826 294.438 C 99.826 294.159,109.891 271.925,110.017 271.925 C 110.115 271.926,115.737 284.315,126.307 307.817 L 128.443 312.565 133.495 312.628 C 136.336 312.663,138.513 312.601,138.469 312.486 C 138.426 312.374,133.134 300.647,126.709 286.425 L 115.027 260.567 110.014 260.567 L 105.002 260.567 93.323 286.423 M141.517 286.617 L 141.517 312.691 146.091 312.628 L 150.666 312.565 150.725 291.064 L 150.784 269.563 158.484 269.662 C 164.682 269.741,166.433 269.834,167.458 270.135 C 182.763 274.640,184.590 295.090,170.292 301.843 C 167.594 303.117,165.949 303.408,161.407 303.412 L 157.557 303.416 155.692 307.991 L 153.827 312.565 158.616 312.633 C 166.302 312.742,169.817 312.177,174.089 310.146 C 196.443 299.518,193.366 267.942,169.318 261.191 C 167.654 260.724,166.972 260.698,154.545 260.622 L 141.517 260.543 141.517 286.617 M193.399 286.612 L 193.399 312.681 198.031 312.681 L 202.664 312.681 202.664 291.124 L 202.664 269.567 208.975 269.642 L 215.287 269.716 216.856 270.459 C 223.202 273.466,224.500 281.486,219.418 286.292 C 217.335 288.261,216.106 288.691,212.276 288.787 L 209.033 288.869 207.236 293.305 C 206.248 295.745,205.440 297.820,205.441 297.915 C 205.442 298.011,206.824 298.091,208.512 298.092 L 211.581 298.096 216.231 305.330 L 220.881 312.565 226.248 312.627 C 229.200 312.662,231.616 312.601,231.616 312.493 C 231.616 312.384,229.276 308.662,226.416 304.221 L 221.216 296.147 222.735 295.237 C 235.057 287.858,234.444 269.527,221.647 262.689 C 217.857 260.663,218.181 260.704,205.038 260.619 L 193.399 260.544 193.399 286.612 M294.383 286.624 L 294.383 312.681 298.900 312.681 L 303.416 312.681 303.416 286.624 L 303.416 260.567 298.900 260.567 L 294.383 260.567 294.383 286.624 M307.585 265.084 L 307.585 269.600 315.229 269.600 L 322.872 269.600 322.872 291.141 L 322.872 312.681 327.504 312.681 L 332.137 312.681 332.137 291.141 L 332.137 269.600 339.664 269.600 L 347.192 269.600 347.192 265.084 L 347.192 260.567 327.389 260.567 L 307.585 260.567 307.585 265.084 M349.971 265.084 L 349.971 269.600 357.614 269.600 L 365.258 269.600 365.258 291.146 L 365.258 312.691 369.832 312.628 L 374.406 312.565 374.466 291.083 L 374.525 269.600 382.051 269.600 L 389.577 269.600 389.577 265.084 L 389.577 260.567 369.774 260.567 L 349.971 260.567 349.971 265.084 M265.103 268.691 C 274.680 270.023,281.731 279.122,280.493 288.551 C 278.124 306.604,253.944 310.347,246.318 293.841 C 240.485 281.215,251.275 266.768,265.103 268.691 " stroke="none" fill="#ffffff" fill-rule="evenodd"></path><path id="path1" d="M166.053 17.163 C 151.673 18.129,137.214 27.161,128.173 40.825 C 126.537 43.297,126.536 43.294,128.894 42.604 C 131.208 41.927,134.863 41.291,138.796 40.880 C 140.127 40.741,146.428 40.734,146.565 40.871 C 146.625 40.931,147.364 40.348,148.207 39.575 C 155.925 32.496,167.276 29.600,177.070 32.211 C 178.089 32.483,179.027 32.724,179.155 32.746 C 179.282 32.768,179.490 32.848,179.618 32.923 C 179.745 32.999,180.266 33.192,180.776 33.354 C 181.285 33.516,182.328 33.967,183.092 34.358 C 183.856 34.748,184.534 35.076,184.598 35.086 C 184.661 35.097,185.130 35.372,185.640 35.698 C 186.149 36.024,186.818 36.424,187.126 36.588 C 188.196 37.155,190.518 39.164,194.566 43.023 C 195.535 43.946,196.476 44.702,196.658 44.703 C 196.982 44.704,211.506 41.535,212.127 41.328 C 212.518 41.197,201.837 30.377,198.726 27.753 C 189.598 20.051,178.172 16.348,166.053 17.163 M228.810 17.000 C 228.761 17.043,227.574 17.139,226.173 17.213 C 218.887 17.597,211.049 20.196,204.676 24.339 L 203.103 25.362 208.268 30.379 L 213.434 35.396 214.360 34.862 C 214.870 34.568,215.365 34.318,215.461 34.306 C 215.558 34.294,216.027 34.110,216.504 33.897 C 216.981 33.684,217.423 33.499,217.487 33.486 C 217.551 33.472,217.724 33.384,217.872 33.290 C 218.166 33.103,220.812 32.261,221.548 32.120 C 221.798 32.072,222.160 31.973,222.351 31.899 C 222.542 31.826,223.219 31.689,223.856 31.595 C 224.493 31.501,225.171 31.386,225.362 31.340 C 226.723 31.011,232.429 31.175,234.974 31.616 C 235.229 31.660,235.854 31.766,236.364 31.852 C 236.873 31.937,237.420 32.114,237.580 32.245 C 237.739 32.376,237.869 32.425,237.869 32.355 C 237.869 32.284,238.186 32.318,238.574 32.429 C 239.127 32.588,241.400 32.159,249.163 30.432 C 258.433 28.369,259.822 28.025,258.874 28.025 C 258.665 28.025,258.323 27.765,258.114 27.446 C 257.906 27.128,257.635 26.867,257.513 26.867 C 257.391 26.867,257.145 26.737,256.967 26.578 C 256.376 26.052,255.599 25.470,254.792 24.949 C 254.355 24.667,253.776 24.279,253.507 24.088 C 252.724 23.532,251.197 22.584,251.071 22.575 C 251.008 22.571,250.017 22.091,248.871 21.509 C 246.181 20.143,240.411 18.191,238.332 17.945 C 238.141 17.922,237.620 17.836,237.174 17.753 C 235.433 17.430,234.914 17.364,233.237 17.248 C 232.281 17.182,230.915 17.081,230.200 17.025 C 229.485 16.968,228.859 16.957,228.810 17.000 M182.953 44.656 C 181.365 46.274,179.830 47.869,179.543 48.201 L 179.019 48.805 183.140 47.903 C 185.407 47.406,188.018 46.821,188.943 46.603 L 190.624 46.207 188.589 44.161 C 185.753 41.309,186.285 41.262,182.953 44.656 M138.969 45.467 C 138.906 45.533,138.124 45.648,137.232 45.724 C 132.230 46.146,125.377 48.176,120.725 50.613 C 118.217 51.927,114.292 54.278,113.955 54.670 C 113.891 54.743,113.622 54.954,113.356 55.138 C 112.904 55.451,111.640 56.495,109.942 57.958 C 109.537 58.306,109.129 58.593,109.033 58.595 C 108.937 58.597,108.859 58.682,108.859 58.784 C 108.859 58.886,107.342 60.513,105.487 62.399 C 103.632 64.285,102.147 65.857,102.187 65.893 C 102.243 65.944,165.375 52.717,167.419 52.225 C 167.884 52.113,167.755 51.994,166.492 51.369 C 165.686 50.969,164.962 50.548,164.884 50.432 C 164.806 50.316,164.673 50.236,164.588 50.254 C 164.503 50.272,163.942 50.058,163.340 49.779 C 161.782 49.055,160.663 48.637,160.359 48.665 C 160.279 48.673,160.148 48.572,160.067 48.442 C 159.987 48.311,159.662 48.154,159.347 48.093 C 159.031 48.031,158.095 47.769,157.267 47.509 C 155.719 47.023,153.370 46.450,151.940 46.208 C 151.494 46.133,150.816 46.016,150.434 45.950 C 150.052 45.883,149.427 45.775,149.045 45.709 C 148.047 45.539,139.108 45.324,138.969 45.467 M189.157 79.768 C 186.847 80.623,186.665 81.218,186.686 87.849 C 186.695 90.806,186.763 93.720,186.838 94.325 L 186.973 95.426 191.437 95.426 L 195.900 95.426 196.059 92.588 C 196.359 87.254,196.137 81.894,195.584 81.139 C 194.531 79.701,191.238 78.998,189.157 79.768 M204.099 86.525 C 203.666 86.829,203.633 87.059,203.699 89.346 C 203.739 90.715,203.783 92.643,203.797 93.631 L 203.822 95.426 215.518 95.426 L 227.215 95.426 227.222 93.978 C 227.226 93.182,227.270 91.315,227.321 89.830 C 227.387 87.884,227.330 87.017,227.117 86.726 C 226.707 86.164,204.887 85.974,204.099 86.525 M57.630 282.050 C 60.346 282.087,64.723 282.087,67.358 282.049 C 69.993 282.012,67.771 281.982,62.420 281.982 C 57.070 281.982,54.914 282.013,57.630 282.050 " stroke="none" fill="#dcc47b" fill-rule="evenodd"></path><path id="path2" d="M205.211 33.932 C 207.565 36.288,209.544 38.217,209.607 38.217 C 209.671 38.217,207.797 36.288,205.443 33.932 C 203.089 31.575,201.111 29.647,201.047 29.647 C 200.983 29.647,202.857 31.575,205.211 33.932 M147.409 40.359 L 146.728 41.112 147.481 40.431 C 147.895 40.057,148.234 39.719,148.234 39.679 C 148.234 39.500,148.043 39.657,147.409 40.359 M256.695 54.413 C 256.746 54.978,218.912 63.880,217.661 63.598 C 217.410 63.541,217.035 63.786,216.681 64.237 L 216.106 64.968 221.138 70.006 C 223.905 72.776,226.227 75.043,226.299 75.043 C 226.371 75.043,226.997 74.295,227.691 73.381 C 234.169 64.841,244.524 59.716,255.413 59.659 C 259.450 59.638,259.278 59.760,258.404 57.542 C 257.595 55.490,256.632 53.727,256.695 54.413 M167.340 60.046 L 162.247 65.200 167.400 60.106 C 170.235 57.305,172.554 54.986,172.554 54.953 C 172.554 54.788,172.073 55.258,167.340 60.046 M289.751 58.715 C 290.183 59.160,290.589 59.525,290.653 59.525 C 290.716 59.525,290.415 59.160,289.983 58.715 C 289.550 58.269,289.145 57.904,289.081 57.904 C 289.017 57.904,289.319 58.269,289.751 58.715 M293.122 62.153 C 294.389 63.470,295.582 64.622,295.773 64.711 C 295.964 64.801,294.976 63.723,293.577 62.316 C 292.178 60.908,290.984 59.757,290.925 59.757 C 290.866 59.757,291.855 60.835,293.122 62.153 M219.183 61.204 C 218.925 61.491,218.631 61.882,218.529 62.073 C 218.428 62.264,218.673 62.063,219.074 61.626 C 219.475 61.189,219.803 60.798,219.803 60.757 C 219.803 60.585,219.624 60.714,219.183 61.204 M271.757 65.254 L 264.996 66.774 265.029 68.468 C 265.048 69.400,264.990 70.235,264.900 70.325 C 264.810 70.415,264.736 70.914,264.736 71.434 C 264.733 73.917,263.509 79.156,262.206 82.258 L 261.559 83.798 266.828 89.063 L 272.097 94.329 272.457 93.777 C 276.283 87.908,279.104 77.445,279.086 69.196 C 279.082 67.253,279.088 65.220,279.098 64.679 C 279.122 63.478,279.941 63.414,271.757 65.254 M296.819 66.076 C 297.042 66.430,297.284 66.661,297.355 66.590 C 297.426 66.519,297.243 66.229,296.948 65.946 L 296.412 65.431 296.819 66.076 M291.257 68.360 C 287.690 69.105,284.530 69.677,284.236 69.629 C 283.780 69.556,283.708 69.634,283.755 70.151 C 283.785 70.485,283.730 71.103,283.632 71.525 C 283.468 72.235,283.557 72.407,284.845 73.856 C 294.015 84.174,295.751 97.764,289.448 109.893 C 287.635 113.383,286.052 115.166,274.271 126.980 C 267.292 133.979,262.872 138.579,263.008 138.702 C 263.131 138.813,264.065 139.609,265.084 140.472 C 267.354 142.393,269.248 144.316,271.195 146.674 C 272.008 147.659,272.738 148.466,272.817 148.466 C 273.151 148.466,296.095 125.242,297.581 123.400 C 308.361 110.039,310.506 90.590,302.901 75.159 C 301.667 72.656,299.861 69.739,299.632 69.881 C 299.508 69.957,299.473 69.914,299.552 69.785 C 299.661 69.609,298.252 67.404,297.809 67.057 C 297.772 67.028,294.823 67.615,291.257 68.360 M240.593 79.542 C 236.550 80.462,233.168 81.288,233.078 81.378 C 232.988 81.468,232.179 80.837,231.281 79.975 C 230.382 79.113,239.424 88.204,251.375 100.177 L 273.102 121.946 277.952 117.015 C 280.620 114.304,282.803 111.962,282.803 111.811 C 282.803 111.540,264.777 93.354,254.366 83.121 C 250.437 79.259,248.836 77.829,248.460 77.846 C 248.176 77.859,244.636 78.622,240.593 79.542 M234.511 82.918 C 235.267 83.683,235.834 84.308,235.770 84.308 C 235.706 84.308,235.035 83.683,234.279 82.918 C 233.523 82.154,232.956 81.529,233.020 81.529 C 233.083 81.529,233.754 82.154,234.511 82.918 M160.265 87.261 L 159.467 88.130 160.336 87.332 C 161.144 86.589,161.311 86.393,161.134 86.393 C 161.095 86.393,160.704 86.783,160.265 87.261 M147.192 90.330 C 148.077 91.222,148.853 91.951,148.916 91.951 C 148.980 91.951,148.308 91.222,147.423 90.330 C 146.538 89.438,145.762 88.709,145.699 88.709 C 145.635 88.709,146.307 89.438,147.192 90.330 M133.526 92.086 C 125.812 93.839,126.578 93.782,125.999 92.646 C 125.739 92.137,125.470 91.720,125.402 91.720 C 125.333 91.720,125.609 92.343,126.015 93.105 C 126.431 93.885,126.859 94.425,126.994 94.341 C 127.144 94.248,127.178 94.341,127.084 94.586 C 126.991 94.830,127.064 95.030,127.275 95.111 C 127.464 95.183,127.570 95.320,127.511 95.415 C 127.452 95.510,127.609 95.807,127.860 96.076 C 128.110 96.344,128.315 96.638,128.315 96.727 C 128.315 96.989,130.672 100.046,132.398 102.024 C 134.030 103.892,138.826 108.164,139.292 108.164 C 139.548 108.164,149.392 98.440,149.392 98.187 C 149.392 98.116,148.553 97.397,147.528 96.589 C 146.502 95.781,144.688 94.095,143.496 92.841 C 140.892 90.102,141.915 90.180,133.526 92.086 M154.830 92.704 L 152.750 94.847 154.893 92.767 C 156.883 90.835,157.141 90.562,156.973 90.562 C 156.938 90.562,155.974 91.526,154.830 92.704 M128.084 104.111 C 128.402 104.493,128.688 104.849,128.720 104.903 C 128.752 104.956,128.829 104.948,128.892 104.886 C 128.954 104.823,128.668 104.467,128.256 104.094 L 127.506 103.416 128.084 104.111 M113.353 114.135 C 101.247 126.138,99.497 128.212,96.452 134.159 C 88.160 150.354,90.215 169.890,101.673 183.787 C 102.699 185.031,110.030 192.338,110.969 193.052 C 111.472 193.434,112.010 193.854,112.166 193.986 C 113.479 195.095,113.988 195.299,115.039 195.142 C 116.614 194.906,116.766 194.818,116.490 194.302 C 116.361 194.060,116.301 193.862,116.358 193.862 C 116.415 193.862,116.322 193.263,116.152 192.530 C 115.981 191.798,115.774 190.573,115.692 189.809 C 115.609 189.045,115.487 188.159,115.420 187.840 C 115.353 187.522,115.259 185.087,115.211 182.431 L 115.123 177.600 113.613 175.876 C 104.013 164.913,103.028 149.559,111.132 137.232 C 111.886 136.085,115.675 132.117,124.078 123.674 C 130.612 117.108,135.958 111.675,135.958 111.601 C 135.958 111.377,131.858 107.941,131.736 108.063 C 131.674 108.125,131.478 107.991,131.301 107.765 C 131.003 107.385,131.014 107.378,131.442 107.675 C 131.697 107.851,131.265 107.368,130.484 106.601 L 129.062 105.206 125.735 105.874 C 123.906 106.241,122.096 106.604,121.714 106.681 C 121.054 106.814,121.089 106.749,122.402 105.408 C 123.162 104.631,123.735 103.998,123.675 104.002 C 123.616 104.006,118.971 108.565,113.353 114.135 M108.483 108.454 C 108.554 108.677,108.548 108.859,108.467 108.859 C 108.387 108.859,105.312 109.494,101.634 110.270 C 96.293 111.397,94.878 111.625,94.607 111.401 C 94.331 111.172,94.341 111.314,94.661 112.176 C 94.876 112.757,95.152 113.170,95.275 113.094 C 95.397 113.019,95.426 113.073,95.338 113.214 C 95.142 113.532,96.936 117.147,98.503 119.593 L 99.667 121.409 104.900 116.166 C 109.410 111.647,110.082 110.884,109.763 110.643 C 109.559 110.490,109.375 110.261,109.355 110.133 C 109.243 109.448,109.029 109.102,108.803 109.241 C 108.645 109.339,108.600 109.266,108.683 109.050 C 108.756 108.858,108.712 108.555,108.584 108.375 C 108.401 108.117,108.380 108.133,108.483 108.454 M186.690 124.841 C 186.634 137.512,186.629 141.721,186.663 146.555 L 186.682 149.160 191.297 149.160 L 195.911 149.160 195.989 147.250 C 196.032 146.199,196.099 138.929,196.137 131.094 C 196.189 120.427,196.276 116.779,196.484 116.567 C 196.871 116.171,202.783 116.121,203.252 116.510 C 203.526 116.738,203.590 117.591,203.590 121.001 C 203.590 123.967,203.672 125.294,203.868 125.489 C 204.077 125.698,206.993 125.767,215.570 125.767 L 226.995 125.767 227.221 125.173 C 227.345 124.846,227.446 122.889,227.446 120.824 C 227.446 115.733,227.718 116.039,223.195 116.039 C 219.177 116.039,219.108 116.011,219.108 114.372 L 219.108 113.260 203.027 113.260 L 186.946 113.260 186.846 112.739 C 186.790 112.452,186.720 117.898,186.690 124.841 M120.829 133.154 C 118.195 135.815,116.039 138.134,116.039 138.308 C 116.039 138.481,125.671 148.254,137.443 160.025 L 158.846 181.428 159.642 181.050 C 162.101 179.883,169.079 172.971,169.079 171.702 C 169.079 171.490,125.961 128.315,125.750 128.315 C 125.678 128.315,123.463 130.492,120.829 133.154 M293.872 133.964 L 288.844 139.086 289.527 140.244 C 290.676 142.189,292.357 146.802,292.651 148.813 C 292.707 149.195,292.805 149.768,292.869 150.087 C 293.151 151.488,293.235 152.283,293.268 153.854 L 293.303 155.531 300.322 154.038 C 306.919 152.634,307.334 152.516,307.241 152.069 C 307.186 151.807,307.081 150.915,307.008 150.087 C 306.665 146.227,306.039 143.320,304.782 139.738 C 303.558 136.249,299.587 128.689,299.043 128.810 C 298.964 128.828,296.637 131.147,293.872 133.964 M254.425 146.849 C 251.346 149.931,249.436 152.008,249.572 152.129 C 249.696 152.239,250.475 152.837,251.303 153.458 C 255.649 156.722,262.709 165.951,262.235 167.748 C 262.209 167.843,262.282 167.921,262.395 167.921 C 262.509 167.921,262.663 168.166,262.738 168.464 L 262.874 169.008 269.422 167.538 C 273.023 166.730,276.135 166.106,276.338 166.153 C 277.672 166.458,271.371 153.691,268.837 150.956 C 268.684 150.790,268.093 150.084,267.524 149.386 C 265.488 146.888,262.583 144.103,259.861 142.041 C 259.559 141.812,258.690 142.581,254.425 146.849 M239.183 162.187 C 235.550 165.913,232.608 168.991,232.645 169.027 C 232.711 169.094,254.838 164.218,254.954 164.111 C 255.117 163.961,252.483 160.790,250.721 159.016 C 249.341 157.627,246.449 155.414,246.014 155.414 C 245.889 155.414,242.815 158.462,239.183 162.187 M126.385 156.367 C 124.694 158.961,122.049 165.639,121.020 169.908 C 119.415 176.571,119.323 185.595,120.803 191.292 C 120.982 191.980,121.155 192.570,121.189 192.603 C 121.223 192.636,124.221 191.964,127.852 191.108 C 135.311 189.351,134.656 189.747,134.209 187.261 C 133.271 182.050,134.289 173.693,136.571 167.876 L 137.201 166.270 131.973 161.042 L 126.745 155.814 126.385 156.367 M171.627 176.088 C 165.705 184.831,152.394 191.284,141.807 190.544 C 139.677 190.395,139.674 190.398,140.214 191.922 C 141.308 195.005,144.122 199.735,144.749 199.545 C 146.444 199.032,174.563 192.946,174.807 193.040 C 174.982 193.107,175.067 193.067,174.995 192.951 C 174.923 192.834,175.017 192.705,175.204 192.664 C 176.077 192.470,182.513 185.883,182.513 185.184 C 182.513 185.050,180.246 182.680,177.475 179.916 L 172.438 174.891 171.627 176.088 M135.616 339.954 C 135.162 341.099,133.585 345.458,131.447 351.477 C 127.061 363.824,127.048 363.847,124.320 364.659 C 123.212 364.989,124.257 365.142,127.619 365.142 C 131.320 365.142,132.230 364.925,130.573 364.437 C 129.326 364.070,129.471 362.871,131.401 357.558 L 132.137 355.533 135.652 355.531 L 139.168 355.530 139.628 356.746 C 139.882 357.415,140.567 359.191,141.150 360.694 C 142.424 363.971,142.425 363.993,141.401 364.331 C 139.794 364.862,140.615 365.026,144.876 365.026 C 148.926 365.026,150.290 364.803,148.240 364.475 C 145.873 364.096,143.609 359.740,138.084 344.934 C 136.063 339.519,135.910 339.211,135.616 339.954 M176.612 339.838 C 175.408 343.455,175.499 345.325,176.789 343.462 C 177.717 342.120,178.522 341.865,181.811 341.865 L 184.598 341.865 184.598 352.734 L 184.598 363.603 183.987 364.083 C 183.652 364.347,183.189 364.563,182.959 364.563 C 182.729 364.563,182.479 364.662,182.403 364.784 C 182.250 365.033,190.609 365.238,190.930 364.993 C 191.038 364.911,190.756 364.723,190.305 364.574 C 189.854 364.425,189.167 363.941,188.778 363.498 L 188.072 362.694 188.072 352.255 L 188.072 341.817 190.950 341.899 C 194.202 341.991,194.785 342.230,195.560 343.790 C 196.135 344.946,196.349 344.865,196.526 343.428 C 196.763 341.505,196.597 339.872,196.178 340.012 C 195.163 340.350,178.590 340.255,177.754 339.906 C 176.722 339.475,176.732 339.476,176.612 339.838 M270.859 340.880 C 269.952 343.932,270.179 345.196,271.322 343.468 C 272.222 342.107,272.996 341.865,276.426 341.865 L 279.328 341.865 279.328 352.253 C 279.328 364.195,279.269 364.563,277.349 364.563 C 277.164 364.563,277.012 364.667,277.012 364.794 C 277.012 364.939,278.354 365.026,280.573 365.026 C 282.532 365.026,284.474 365.094,284.889 365.177 C 285.852 365.369,285.762 364.791,284.789 364.531 C 282.606 363.947,282.571 363.748,282.571 352.043 L 282.571 341.817 285.408 341.901 C 288.686 341.998,289.511 342.324,290.150 343.772 C 290.833 345.319,291.133 344.694,291.138 341.715 L 291.141 339.829 290.272 340.030 C 288.648 340.408,273.177 340.292,272.228 339.896 C 271.771 339.705,271.365 339.548,271.326 339.548 C 271.287 339.548,271.077 340.148,270.859 340.880 M107.625 339.954 C 100.538 340.023,99.910 340.143,102.257 340.982 C 103.845 341.551,103.772 340.971,103.707 352.560 C 103.642 364.224,103.644 364.208,102.139 364.564 C 100.352 364.986,101.965 365.142,108.107 365.142 C 115.710 365.142,115.232 365.258,115.448 363.352 C 115.538 362.553,115.669 361.613,115.739 361.262 C 115.926 360.324,115.524 360.499,115.029 361.571 C 113.919 363.979,110.470 364.521,107.937 362.686 L 107.006 362.012 107.006 357.265 L 107.006 352.519 109.149 352.546 C 112.340 352.587,112.589 352.674,113.207 353.966 C 113.925 355.470,114.074 355.366,114.383 353.156 C 114.864 349.713,114.826 349.642,112.982 350.579 C 112.559 350.795,111.492 350.898,109.681 350.898 L 107.006 350.898 107.006 346.265 L 107.006 341.633 109.380 341.633 C 112.371 341.634,113.217 341.984,113.716 343.428 C 114.179 344.766,114.287 344.686,114.730 342.669 C 115.233 340.376,115.229 339.764,114.708 339.834 C 114.485 339.864,111.298 339.918,107.625 339.954 M67.863 340.218 C 67.863 340.332,68.112 340.487,68.417 340.563 C 68.721 340.640,69.294 341.072,69.690 341.523 L 70.411 342.344 70.410 352.353 C 70.409 363.476,70.454 363.137,68.813 364.351 C 67.828 365.079,68.057 365.200,69.993 364.976 C 70.924 364.869,72.805 364.847,74.175 364.929 C 76.584 365.072,77.606 364.806,76.002 364.454 C 74.195 364.057,73.654 362.602,73.654 358.137 L 73.654 354.835 74.870 354.840 C 77.769 354.854,78.664 355.501,81.736 359.809 C 84.765 364.055,86.711 365.544,89.288 365.584 C 91.852 365.623,94.111 364.555,91.817 364.387 C 89.217 364.197,84.325 359.492,80.982 353.967 C 80.874 353.788,81.224 353.170,81.898 352.346 C 86.096 347.218,85.024 341.412,79.668 340.263 C 78.260 339.961,67.863 339.922,67.863 340.218 M157.141 340.218 C 156.949 340.404,157.311 340.706,157.726 340.706 C 157.964 340.706,158.479 340.976,158.870 341.306 L 159.583 341.906 159.583 352.134 C 159.582 363.531,159.572 363.612,158.025 364.331 C 156.728 364.934,157.117 364.976,163.810 364.960 C 167.409 364.952,170.688 365.023,171.096 365.118 C 171.995 365.326,172.427 364.549,172.687 362.256 C 172.911 360.275,172.697 359.887,171.970 360.958 C 169.743 364.239,164.956 364.655,163.343 361.707 C 162.981 361.044,162.942 360.056,162.942 351.553 L 162.942 342.134 163.502 341.536 C 163.811 341.208,164.410 340.814,164.834 340.660 C 165.258 340.507,165.605 340.317,165.605 340.237 C 165.605 340.084,157.299 340.064,157.141 340.218 M251.616 340.303 C 251.555 340.399,251.694 340.537,251.925 340.609 C 253.389 341.066,253.830 341.406,254.067 342.260 C 254.393 343.435,254.398 361.125,254.072 362.297 C 253.799 363.281,252.810 364.563,252.325 364.563 C 252.145 364.563,251.998 364.655,251.998 364.768 C 251.998 364.883,254.783 364.968,258.309 364.961 C 261.781 364.954,265.048 365.025,265.571 365.118 L 266.520 365.287 266.889 363.940 C 267.293 362.467,267.477 360.405,267.206 360.390 C 267.112 360.385,266.699 360.822,266.287 361.362 C 264.121 364.201,259.399 364.443,257.986 361.787 C 257.588 361.039,257.556 360.289,257.556 351.569 C 257.556 341.004,257.506 341.321,259.301 340.672 C 259.743 340.513,260.104 340.313,260.104 340.230 C 260.104 340.016,251.751 340.088,251.616 340.303 M299.310 340.316 C 299.353 340.444,299.872 340.691,300.464 340.863 C 301.903 341.283,301.786 340.281,301.800 352.287 C 301.813 364.165,301.857 363.814,300.296 364.329 C 298.893 364.792,299.554 364.949,303.814 365.165 C 315.891 365.777,320.357 364.276,322.994 358.722 C 326.490 351.354,323.576 343.620,316.189 340.661 C 314.742 340.081,299.125 339.762,299.310 340.316 M204.751 340.452 C 204.753 340.528,205.094 340.811,205.509 341.080 C 207.302 342.240,211.765 348.252,213.906 352.391 L 215.171 354.834 215.171 358.668 C 215.171 362.973,215.035 363.485,213.671 364.328 C 213.222 364.605,212.855 364.876,212.855 364.929 C 212.855 364.982,214.835 365.026,217.255 365.026 C 221.335 365.026,222.724 364.815,220.897 364.472 C 220.480 364.394,219.750 364.010,219.276 363.619 L 218.413 362.908 218.413 358.460 L 218.413 354.011 219.241 352.281 C 221.016 348.569,225.168 343.149,227.664 341.285 L 228.906 340.359 225.596 340.295 C 222.067 340.226,221.743 340.284,222.539 340.841 C 223.515 341.524,223.154 342.499,220.349 346.757 C 219.477 348.079,218.390 349.869,217.932 350.735 L 217.100 352.311 214.771 348.419 C 211.124 342.328,210.725 341.456,211.349 340.938 C 211.985 340.410,211.718 340.359,208.222 340.336 C 206.311 340.323,204.749 340.376,204.751 340.452 M77.459 341.395 C 81.507 342.934,82.575 350.653,78.990 352.461 C 77.953 352.984,75.659 353.172,74.406 352.836 L 73.885 352.696 73.885 347.066 C 73.885 340.730,73.718 341.248,75.781 341.197 C 76.378 341.182,77.133 341.271,77.459 341.395 M312.651 341.968 C 317.975 343.392,321.027 347.589,321.043 353.508 C 321.062 360.309,316.701 364.128,309.267 363.820 C 305.155 363.649,305.277 364.017,305.273 351.784 L 305.269 341.900 306.485 341.663 C 307.978 341.373,310.980 341.521,312.651 341.968 M137.118 349.276 C 137.788 351.506,138.385 353.460,138.445 353.619 C 138.530 353.841,137.871 353.909,135.611 353.909 C 133.350 353.909,132.692 353.841,132.777 353.619 C 132.838 353.460,133.494 351.426,134.236 349.100 C 134.977 346.774,135.655 344.950,135.742 345.047 C 135.830 345.144,136.449 347.047,137.118 349.276 M195.021 382.133 C 192.395 383.541,192.281 390.353,194.852 392.221 C 197.570 394.195,200.449 391.708,200.458 387.377 C 200.468 382.806,198.073 380.496,195.021 382.133 M206.601 382.108 C 203.417 383.699,203.965 391.692,207.320 392.595 C 210.262 393.387,212.051 391.317,212.037 387.141 C 212.022 382.885,209.577 380.622,206.601 382.108 M163.056 383.210 L 161.796 384.485 162.543 385.233 L 163.291 385.980 163.927 385.294 L 164.563 384.608 164.626 388.598 L 164.690 392.588 165.726 392.588 L 166.763 392.588 166.763 387.261 L 166.763 381.934 165.539 381.934 C 164.362 381.934,164.267 381.983,163.056 383.210 M171.792 384.079 C 170.853 387.188,171.128 387.724,173.660 387.724 C 175.762 387.724,176.767 389.069,175.565 390.272 C 174.741 391.096,173.017 390.548,173.017 389.461 C 173.017 389.203,172.745 389.114,171.956 389.114 L 170.895 389.114 171.047 389.867 C 171.883 394.005,177.956 393.446,177.956 389.230 C 177.956 387.322,176.690 386.008,174.580 385.727 C 173.402 385.570,173.362 385.518,173.702 384.622 C 173.912 384.070,174.033 384.034,175.845 383.970 L 177.765 383.903 177.836 382.918 L 177.907 381.934 175.173 381.937 L 172.438 381.939 171.792 384.079 M183.330 382.224 C 183.277 382.383,182.964 383.390,182.634 384.461 L 182.034 386.409 182.664 387.067 C 183.210 387.636,183.469 387.724,184.589 387.724 C 186.231 387.724,186.914 388.160,186.914 389.207 C 186.914 390.827,185.131 391.275,184.253 389.876 C 183.524 388.713,181.928 388.736,182.118 389.906 C 182.634 393.085,186.587 393.746,188.477 390.969 C 189.876 388.913,188.518 386.279,185.799 385.774 L 184.450 385.524 184.646 384.771 L 184.842 384.019 186.805 384.019 L 188.767 384.019 188.767 382.976 L 188.767 381.934 186.096 381.934 C 184.164 381.934,183.399 382.014,183.330 382.224 M217.857 384.966 C 215.129 389.574,215.454 392.126,218.842 392.698 C 222.940 393.391,224.580 386.769,220.513 385.956 C 219.641 385.781,219.638 385.861,220.585 384.280 C 222.076 381.792,222.064 381.934,220.778 381.934 L 219.652 381.934 217.857 384.966 M228.737 384.917 C 226.846 388.097,226.539 389.042,226.971 390.351 C 228.198 394.069,233.704 393.170,233.699 389.254 C 233.696 387.573,232.391 385.878,231.094 385.873 C 230.584 385.871,230.587 385.696,231.112 384.829 C 231.344 384.447,231.822 383.639,232.175 383.034 L 232.818 381.934 231.664 381.934 L 230.511 381.934 228.737 384.917 M198.089 384.713 C 199.610 387.758,197.274 392.744,195.555 390.122 C 194.951 389.200,194.951 385.325,195.555 384.401 C 196.194 383.425,197.527 383.589,198.089 384.713 M209.527 384.380 C 210.406 385.721,210.130 389.979,209.129 390.514 C 207.229 391.531,205.721 387.752,206.847 384.791 C 207.306 383.585,208.851 383.348,209.527 384.380 M220.489 388.231 C 221.388 389.197,220.753 390.735,219.456 390.735 C 219.137 390.735,218.668 390.527,218.413 390.272 C 217.500 389.358,218.162 387.724,219.447 387.724 C 219.760 387.724,220.229 387.952,220.489 388.231 M231.367 388.335 C 231.971 389.103,231.973 389.586,231.375 390.228 C 230.436 391.237,228.836 390.608,228.836 389.230 C 228.836 387.793,230.483 387.211,231.367 388.335 " stroke="none" fill="#c9b06a" fill-rule="evenodd"></path><path id="path3" d="M254.063 24.399 C 254.395 24.812,255.240 25.354,255.240 25.154 C 255.240 25.095,254.902 24.808,254.488 24.518 C 253.953 24.144,253.830 24.109,254.063 24.399 M258.251 27.678 C 258.410 27.869,258.644 28.025,258.771 28.025 C 258.900 28.025,258.875 27.872,258.715 27.678 C 258.556 27.487,258.322 27.331,258.195 27.331 C 258.065 27.331,258.090 27.484,258.251 27.678 M248.937 30.463 C 241.062 32.230,239.138 32.591,238.530 32.417 C 237.255 32.051,238.141 32.538,239.606 33.009 C 250.688 36.565,263.089 51.089,264.415 62.065 C 264.484 62.634,264.583 63.171,264.637 63.257 C 264.690 63.343,264.793 64.126,264.865 64.997 C 264.938 65.867,265.034 66.617,265.079 66.662 C 265.148 66.731,277.227 64.129,278.441 63.785 C 278.722 63.705,278.808 63.471,278.752 62.932 C 277.755 53.188,273.855 44.112,267.336 36.364 C 264.810 33.362,259.560 28.252,259.026 28.276 C 258.791 28.286,254.251 29.270,248.937 30.463 M210.404 32.585 L 213.396 35.638 214.268 35.194 C 214.747 34.949,215.214 34.628,215.305 34.480 C 215.397 34.333,215.013 34.485,214.453 34.820 L 213.434 35.428 210.423 32.480 L 207.412 29.531 210.404 32.585 M226.173 31.268 L 225.246 31.434 226.101 31.467 C 226.571 31.485,227.020 31.395,227.099 31.268 C 227.178 31.141,227.210 31.051,227.171 31.069 C 227.131 31.087,226.682 31.177,226.173 31.268 M232.252 31.432 C 232.539 31.487,233.008 31.487,233.295 31.432 C 233.581 31.376,233.347 31.331,232.774 31.331 C 232.200 31.331,231.966 31.376,232.252 31.432 M222.261 31.921 C 222.197 32.025,222.451 32.066,222.826 32.011 C 223.202 31.955,223.509 31.870,223.509 31.821 C 223.509 31.644,222.376 31.735,222.261 31.921 M236.367 31.969 C 236.425 32.063,236.732 32.189,237.048 32.249 C 237.365 32.310,237.576 32.283,237.518 32.189 C 237.460 32.095,237.154 31.969,236.837 31.908 C 236.521 31.848,236.309 31.875,236.367 31.969 M218.052 33.250 C 217.610 33.604,217.610 33.606,218.066 33.397 C 218.321 33.280,218.686 33.126,218.877 33.055 C 219.177 32.944,219.175 32.923,218.863 32.908 C 218.664 32.898,218.300 33.051,218.052 33.250 M187.145 36.659 C 187.145 36.704,187.484 36.988,187.898 37.291 C 188.364 37.632,188.526 37.688,188.322 37.438 C 188.014 37.058,187.145 36.483,187.145 36.659 M207.991 36.899 C 207.991 36.939,208.329 37.278,208.743 37.652 L 209.496 38.332 208.816 37.580 C 208.182 36.878,207.991 36.720,207.991 36.899 M202.031 50.858 L 212.863 61.726 213.609 60.799 C 215.010 59.058,219.437 54.654,221.239 53.209 L 223.038 51.766 217.773 46.505 L 212.507 41.243 204.757 42.973 C 195.638 45.007,196.499 44.936,195.357 43.755 C 194.853 43.235,193.712 42.175,192.820 41.399 C 191.928 40.624,196.073 44.880,202.031 50.858 M185.995 41.633 C 185.999 41.728,186.285 42.007,186.631 42.251 L 187.261 42.696 186.700 42.078 C 186.110 41.428,185.983 41.348,185.995 41.633 M187.377 42.728 C 187.377 42.852,188.113 43.695,189.014 44.601 L 190.650 46.249 185.018 47.477 C 181.921 48.153,179.282 48.760,179.155 48.826 C 179.027 48.892,179.180 48.642,179.493 48.271 C 179.807 47.900,171.710 55.928,161.501 66.110 C 143.143 84.419,142.941 84.630,143.246 85.218 C 144.267 87.190,148.360 91.566,150.956 93.463 L 152.681 94.722 156.074 91.478 C 157.940 89.694,167.753 79.953,177.881 69.831 L 196.294 51.428 191.836 46.966 C 189.383 44.511,187.377 42.604,187.377 42.728 M142.501 45.325 C 142.724 45.383,143.089 45.383,143.312 45.325 C 143.535 45.266,143.353 45.219,142.907 45.219 C 142.461 45.219,142.279 45.266,142.501 45.325 M248.408 45.793 C 237.544 47.276,226.139 53.508,218.655 62.050 C 216.991 63.949,216.982 63.936,219.518 63.344 C 220.757 63.054,229.589 61.072,239.143 58.939 C 248.697 56.806,256.601 54.983,256.706 54.889 C 256.988 54.637,255.322 51.245,254.546 50.492 C 254.481 50.428,254.128 49.975,253.763 49.485 C 253.397 48.995,252.474 47.927,251.711 47.111 C 250.272 45.573,250.206 45.547,248.408 45.793 M163.289 49.677 C 163.289 49.724,163.602 49.919,163.984 50.110 C 164.366 50.301,164.679 50.371,164.679 50.265 C 164.679 50.160,164.366 49.965,163.984 49.832 C 163.602 49.699,163.289 49.629,163.289 49.677 M164.916 50.419 C 164.923 50.627,167.453 51.964,167.587 51.830 C 167.633 51.784,167.049 51.405,166.290 50.988 C 165.531 50.571,164.913 50.314,164.916 50.419 M167.574 52.133 C 167.319 52.240,152.675 55.358,135.032 59.061 C 117.389 62.764,102.758 65.854,102.519 65.927 C 102.236 66.014,102.140 65.970,102.243 65.804 C 102.330 65.663,102.350 65.547,102.287 65.547 C 102.096 65.547,98.639 70.220,98.357 70.858 C 98.213 71.186,97.967 71.587,97.811 71.751 C 96.527 73.097,93.544 80.597,92.540 85.003 C 91.118 91.241,91.185 101.725,92.672 105.557 C 92.809 105.908,92.965 106.433,93.020 106.722 C 93.246 107.910,94.331 111.081,94.611 111.374 C 94.865 111.638,96.001 111.459,101.689 110.259 C 107.107 109.116,108.504 108.890,108.659 109.134 C 108.964 109.615,108.891 109.228,108.537 108.490 C 101.769 94.360,106.432 78.848,120.933 67.259 C 121.872 66.509,122.675 65.816,122.718 65.721 C 122.760 65.625,122.889 65.547,123.003 65.547 C 123.118 65.547,123.917 65.114,124.779 64.584 C 126.051 63.803,129.454 62.074,129.936 61.965 C 130.000 61.950,130.730 61.710,131.558 61.432 C 139.872 58.633,148.688 59.019,157.445 62.566 L 158.203 62.873 163.425 57.650 C 168.498 52.578,169.413 51.361,167.574 52.133 M281.760 54.140 C 282.057 55.127,282.422 56.561,282.570 57.325 C 282.718 58.089,282.930 59.131,283.039 59.641 C 283.319 60.942,283.718 65.045,283.803 67.502 C 283.849 68.824,283.974 69.605,284.148 69.663 C 284.367 69.736,297.343 67.204,297.577 67.042 C 297.901 66.818,289.335 58.100,286.972 56.249 C 286.271 55.701,285.646 55.184,285.582 55.102 C 285.428 54.902,281.491 52.345,281.338 52.345 C 281.273 52.345,281.462 53.153,281.760 54.140 M105.895 61.679 C 104.341 63.237,103.069 64.600,103.069 64.708 C 103.069 64.817,104.367 63.569,105.954 61.935 C 107.541 60.301,108.813 58.938,108.780 58.906 C 108.747 58.873,107.449 60.121,105.895 61.679 M132.198 66.004 C 128.246 67.473,123.895 70.244,121.172 73.025 L 119.936 74.289 120.209 76.114 C 121.058 81.779,125.144 92.939,126.570 93.486 C 126.722 93.544,129.913 92.916,133.661 92.090 C 137.408 91.264,140.664 90.556,140.895 90.517 C 141.289 90.450,141.285 90.413,140.837 89.934 C 140.574 89.653,140.359 89.314,140.359 89.182 C 140.359 89.049,140.281 88.940,140.185 88.939 C 139.838 88.936,137.604 84.738,136.524 82.058 C 134.803 77.790,134.026 73.716,134.005 68.848 C 133.997 66.906,133.990 65.321,133.990 65.327 C 133.990 65.333,133.184 65.638,132.198 66.004 M237.868 69.864 C 234.347 72.512,231.629 75.306,230.180 77.765 L 229.787 78.433 232.842 81.428 C 234.522 83.076,235.238 83.735,234.432 82.893 C 233.463 81.880,233.071 81.322,233.275 81.245 C 233.445 81.180,236.999 80.365,241.173 79.433 L 248.763 77.739 249.627 78.528 C 250.103 78.962,248.096 76.897,245.167 73.938 C 242.238 70.979,239.788 68.558,239.723 68.558 C 239.657 68.558,238.823 69.146,237.868 69.864 M212.797 86.324 C 213.083 86.380,213.552 86.380,213.839 86.324 C 214.126 86.269,213.891 86.224,213.318 86.224 C 212.745 86.224,212.510 86.269,212.797 86.324 M215.000 86.327 C 215.352 86.380,215.873 86.379,216.158 86.324 C 216.443 86.269,216.155 86.225,215.518 86.227 C 214.881 86.229,214.648 86.274,215.000 86.327 M217.197 86.324 C 217.484 86.380,217.953 86.380,218.240 86.324 C 218.526 86.269,218.292 86.224,217.719 86.224 C 217.145 86.224,216.911 86.269,217.197 86.324 M219.401 86.327 C 219.753 86.380,220.274 86.379,220.559 86.324 C 220.844 86.269,220.556 86.225,219.919 86.227 C 219.282 86.229,219.049 86.274,219.401 86.327 M227.284 90.793 C 227.284 91.494,227.328 91.781,227.381 91.430 C 227.434 91.080,227.434 90.507,227.381 90.156 C 227.328 89.806,227.284 90.093,227.284 90.793 M203.637 93.507 C 203.578 95.892,203.583 95.889,199.828 95.889 C 196.354 95.889,196.226 95.821,196.115 93.920 L 196.034 92.530 195.991 93.978 L 195.947 95.426 191.445 95.426 L 186.943 95.426 186.850 94.673 C 186.798 94.259,186.740 97.946,186.719 102.866 C 186.699 107.787,186.747 112.138,186.827 112.536 L 186.972 113.260 203.040 113.260 L 219.108 113.260 219.108 105.057 C 219.108 100.545,219.172 96.688,219.249 96.487 C 219.369 96.175,219.915 96.120,222.929 96.120 C 227.371 96.120,227.513 96.047,227.388 93.804 L 227.304 92.299 227.259 93.862 L 227.215 95.426 215.528 95.426 L 203.840 95.426 203.762 93.515 L 203.684 91.604 203.637 93.507 M123.461 104.227 C 122.158 105.628,121.138 106.775,121.193 106.775 C 121.249 106.775,122.848 106.459,124.747 106.074 C 126.646 105.689,128.440 105.353,128.733 105.328 C 129.144 105.292,129.197 105.227,128.964 105.044 C 128.797 104.913,128.192 104.233,127.620 103.532 C 125.756 101.249,126.318 101.155,123.461 104.227 " stroke="none" fill="#dcbc74" fill-rule="evenodd"></path><path id="path4" d="M208.570 31.036 C 211.115 33.584,213.250 35.669,213.314 35.669 C 213.377 35.669,211.347 33.584,208.801 31.036 C 206.256 28.489,204.121 26.404,204.058 26.404 C 203.994 26.404,206.024 28.489,208.570 31.036 M216.213 44.933 C 219.906 48.628,222.979 51.650,223.043 51.650 C 223.106 51.650,220.137 48.628,216.445 44.933 C 212.752 41.239,209.679 38.217,209.615 38.217 C 209.551 38.217,212.520 41.239,216.213 44.933 M253.735 42.849 C 255.132 44.250,256.327 45.397,256.390 45.397 C 256.454 45.397,255.363 44.250,253.966 42.849 C 252.569 41.448,251.374 40.301,251.311 40.301 C 251.247 40.301,252.338 41.448,253.735 42.849 M179.153 48.234 L 172.438 55.009 179.213 48.293 C 182.939 44.600,185.987 41.551,185.987 41.519 C 185.987 41.355,185.394 41.938,179.153 48.234 M251.187 46.555 C 251.685 47.064,252.144 47.481,252.208 47.481 C 252.271 47.481,251.916 47.064,251.419 46.555 C 250.921 46.045,250.462 45.628,250.398 45.628 C 250.334 45.628,250.689 46.045,251.187 46.555 M152.518 74.870 L 142.791 84.655 152.577 74.929 C 157.959 69.579,162.362 65.175,162.362 65.143 C 162.362 64.980,161.558 65.774,152.518 74.870 M249.566 78.286 C 254.915 83.636,259.344 88.014,259.407 88.014 C 259.471 88.014,255.147 83.636,249.797 78.286 C 244.448 72.936,240.019 68.558,239.956 68.558 C 239.892 68.558,244.217 72.936,249.566 78.286 M230.559 70.006 L 229.878 70.759 230.631 70.078 C 231.045 69.704,231.384 69.365,231.384 69.326 C 231.384 69.147,231.193 69.304,230.559 70.006 M116.149 71.627 L 114.534 73.306 116.213 71.691 C 117.137 70.803,117.892 70.047,117.892 70.012 C 117.892 69.842,117.649 70.067,116.149 71.627 M120.777 73.248 L 119.861 74.233 120.845 73.317 C 121.761 72.466,121.936 72.264,121.761 72.264 C 121.723 72.264,121.280 72.707,120.777 73.248 M266.589 89.056 C 269.454 91.922,271.849 94.268,271.913 94.268 C 271.976 94.268,269.685 91.922,266.821 89.056 C 263.957 86.190,261.561 83.845,261.498 83.845 C 261.434 83.845,263.725 86.190,266.589 89.056 M271.686 100.405 C 277.864 106.647,282.966 111.724,283.024 111.687 C 283.083 111.650,278.028 106.543,271.792 100.338 L 260.454 89.056 271.686 100.405 M119.165 108.222 L 112.449 114.997 119.224 108.282 C 122.950 104.588,125.999 101.540,125.999 101.507 C 125.999 101.343,125.405 101.926,119.165 108.222 M225.420 125.927 C 225.643 125.985,226.008 125.985,226.230 125.927 C 226.453 125.869,226.271 125.821,225.825 125.821 C 225.379 125.821,225.197 125.869,225.420 125.927 M186.547 133.063 C 186.547 135.483,186.582 136.442,186.623 135.194 C 186.665 133.945,186.665 131.965,186.623 130.793 C 186.581 129.621,186.547 130.643,186.547 133.063 M289.389 138.332 L 288.709 139.085 289.461 138.405 C 290.163 137.771,290.321 137.580,290.142 137.580 C 290.102 137.580,289.763 137.918,289.389 138.332 M186.517 139.317 C 186.518 139.954,186.563 140.187,186.617 139.835 C 186.670 139.483,186.669 138.961,186.614 138.677 C 186.559 138.392,186.515 138.680,186.517 139.317 M186.517 142.096 C 186.518 142.733,186.563 142.966,186.617 142.614 C 186.670 142.262,186.669 141.741,186.614 141.456 C 186.559 141.171,186.515 141.459,186.517 142.096 M254.207 146.836 C 251.411 149.633,249.171 151.952,249.229 151.989 C 249.287 152.026,251.625 149.737,254.424 146.902 C 257.223 144.068,259.463 141.749,259.402 141.749 C 259.340 141.749,257.002 144.038,254.207 146.836 M267.516 142.791 C 267.948 143.237,268.354 143.602,268.417 143.602 C 268.481 143.602,268.180 143.237,267.748 142.791 C 267.315 142.345,266.910 141.980,266.846 141.980 C 266.782 141.980,267.084 142.345,267.516 142.791 M196.005 144.412 C 196.008 144.922,196.055 145.103,196.111 144.815 C 196.166 144.527,196.164 144.110,196.106 143.888 C 196.048 143.667,196.003 143.903,196.005 144.412 M186.500 161.207 L 186.450 178.696 191.161 183.401 L 195.871 188.107 196.024 176.587 C 196.175 165.296,196.162 143.826,196.006 147.365 L 195.927 149.160 191.312 149.160 L 186.697 149.160 186.623 146.439 C 186.583 144.942,186.528 151.588,186.500 161.207 M307.185 151.245 C 307.185 151.818,307.230 152.053,307.286 151.766 C 307.341 151.479,307.341 151.010,307.286 150.724 C 307.230 150.437,307.185 150.672,307.185 151.245 M293.047 152.403 C 293.047 152.849,293.095 153.031,293.153 152.808 C 293.212 152.585,293.212 152.221,293.153 151.998 C 293.095 151.775,293.047 151.957,293.047 152.403 M299.942 154.101 L 293.341 155.530 293.342 156.261 C 293.343 156.663,293.264 156.944,293.168 156.884 C 293.072 156.825,292.994 157.188,292.994 157.691 C 292.994 168.227,281.826 182.584,269.631 187.725 C 260.995 191.367,250.915 191.411,242.279 187.845 L 240.551 187.131 235.388 192.290 C 232.549 195.127,230.226 197.556,230.226 197.688 C 230.226 198.040,234.333 200.138,237.406 201.356 C 248.531 205.766,262.474 205.885,273.422 201.665 C 288.866 195.711,302.238 181.370,305.966 166.763 C 307.466 160.884,308.028 152.598,306.922 152.654 C 306.714 152.664,303.573 153.315,299.942 154.101 M254.545 156.456 C 255.237 157.157,255.856 157.730,255.919 157.730 C 255.983 157.730,255.469 157.157,254.777 156.456 C 254.085 155.756,253.467 155.182,253.403 155.182 C 253.340 155.182,253.854 155.756,254.545 156.456 M132.023 161.089 C 134.888 164.019,137.280 166.385,137.338 166.349 C 137.396 166.312,135.052 163.914,132.129 161.021 L 126.815 155.761 132.023 161.089 M251.234 159.460 C 251.463 159.774,251.747 160.035,251.864 160.039 C 251.982 160.043,251.834 159.786,251.534 159.467 C 250.840 158.728,250.699 158.725,251.234 159.460 M252.489 160.962 C 252.767 161.337,253.161 161.709,253.365 161.786 C 253.568 161.864,253.376 161.556,252.937 161.103 C 251.965 160.099,251.817 160.052,252.489 160.962 M275.159 161.971 C 275.159 162.010,275.476 162.909,275.863 163.970 C 276.249 165.030,276.536 165.921,276.500 165.951 C 276.463 165.981,273.382 166.680,269.654 167.506 L 262.874 169.006 262.738 168.464 C 262.663 168.165,262.522 167.921,262.424 167.921 C 262.326 167.921,262.412 168.383,262.615 168.946 C 262.818 169.510,263.055 169.927,263.144 169.872 C 263.232 169.818,263.249 169.982,263.182 170.237 C 263.112 170.507,263.175 170.701,263.333 170.701 C 263.483 170.701,263.559 170.779,263.501 170.874 C 263.444 170.970,263.642 172.133,263.941 173.459 C 264.640 176.558,265.065 180.986,264.870 183.139 L 264.718 184.826 266.406 184.223 C 270.399 182.796,274.882 179.967,277.679 177.110 L 278.924 175.837 278.651 173.906 C 278.297 171.403,277.064 166.438,276.772 166.338 C 276.648 166.295,276.600 166.173,276.666 166.067 C 276.783 165.876,275.436 161.899,275.253 161.899 C 275.201 161.899,275.159 161.931,275.159 161.971 M253.627 162.157 C 253.623 162.235,253.933 162.694,254.317 163.177 C 254.701 163.660,254.987 164.080,254.954 164.111 C 254.878 164.181,232.844 169.079,232.606 169.079 C 232.511 169.079,233.734 167.750,235.323 166.126 C 236.913 164.502,230.189 171.177,220.381 180.960 L 202.548 198.747 207.592 203.732 L 212.636 208.717 221.566 199.913 C 226.477 195.070,236.229 185.318,243.237 178.241 L 255.980 165.374 255.390 164.389 C 254.762 163.341,253.641 161.921,253.627 162.157 M261.494 166.300 C 261.880 167.064,262.241 167.690,262.297 167.690 C 262.415 167.690,262.007 166.741,261.425 165.663 C 260.710 164.338,260.766 164.859,261.494 166.300 M165.710 176.086 L 164.794 177.070 165.779 176.154 C 166.694 175.303,166.870 175.101,166.694 175.101 C 166.657 175.101,166.214 175.544,165.710 176.086 M113.955 176.332 C 113.955 176.372,114.294 176.710,114.708 177.085 L 115.460 177.765 114.780 177.012 C 114.146 176.310,113.955 176.153,113.955 176.332 M163.740 178.054 L 162.942 178.923 163.810 178.125 C 164.288 177.686,164.679 177.295,164.679 177.256 C 164.679 177.079,164.483 177.246,163.740 178.054 M159.249 181.247 C 159.002 181.434,158.904 181.587,159.031 181.587 C 159.159 181.587,159.465 181.434,159.713 181.247 C 159.960 181.059,160.058 180.906,159.931 180.906 C 159.803 180.906,159.497 181.059,159.249 181.247 M133.932 184.250 C 133.935 184.760,133.982 184.941,134.038 184.653 C 134.093 184.365,134.091 183.948,134.033 183.726 C 133.975 183.505,133.930 183.741,133.932 184.250 M115.167 184.598 C 115.167 185.043,115.214 185.226,115.273 185.003 C 115.331 184.780,115.331 184.415,115.273 184.192 C 115.214 183.969,115.167 184.152,115.167 184.598 M106.244 188.760 C 108.182 190.727,109.798 192.289,109.834 192.231 C 109.871 192.173,108.286 190.563,106.312 188.655 L 102.721 185.184 106.244 188.760 M184.709 189.746 C 183.060 191.785,179.933 194.904,177.687 196.750 L 175.756 198.337 187.299 209.896 C 199.248 221.863,200.795 223.284,204.550 225.750 C 219.397 235.502,239.527 235.465,254.430 225.660 C 260.048 221.963,268.097 213.738,271.450 208.269 C 272.403 206.714,272.506 206.749,269.369 207.562 C 265.006 208.693,261.224 209.174,256.249 209.233 L 251.816 209.285 250.373 210.620 C 240.638 219.633,225.589 221.363,214.129 214.786 C 210.585 212.752,208.966 211.302,197.448 199.845 L 185.862 188.321 184.709 189.746 M178.460 189.891 C 175.313 192.955,177.246 192.302,159.906 196.158 L 144.442 199.597 144.004 199.104 C 143.764 198.832,143.910 199.131,144.329 199.768 C 144.748 200.405,145.883 201.749,146.850 202.755 L 148.610 204.583 150.564 204.299 C 155.099 203.640,160.558 201.924,165.009 199.759 C 168.843 197.894,174.561 194.068,174.255 193.573 C 174.168 193.432,174.213 193.395,174.361 193.486 C 174.614 193.643,177.334 191.369,179.144 189.487 C 180.504 188.073,180.055 188.338,178.460 189.891 M134.544 189.105 C 134.431 189.652,121.380 192.870,121.102 192.420 C 121.020 192.286,120.878 191.748,120.787 191.225 C 120.696 190.701,120.579 190.383,120.526 190.520 C 120.326 191.034,122.060 197.168,123.241 200.127 C 126.369 207.959,132.501 216.042,140.240 222.536 C 153.753 233.875,173.217 236.298,189.141 228.624 C 191.860 227.313,195.715 225.013,195.715 224.701 C 195.715 224.616,193.433 222.267,190.643 219.479 L 185.572 214.412 183.405 215.472 C 174.511 219.824,164.346 219.865,155.761 215.582 C 147.983 211.702,139.637 202.598,136.485 194.557 C 136.010 193.347,135.567 192.305,135.501 192.241 C 135.434 192.177,135.346 191.812,135.305 191.430 C 135.264 191.048,135.140 190.703,135.029 190.663 C 134.917 190.622,134.872 190.466,134.928 190.315 C 134.984 190.164,134.941 189.728,134.834 189.346 C 134.676 188.788,134.619 188.740,134.544 189.105 M112.334 194.344 C 113.311 195.182,116.699 197.480,117.291 197.707 C 117.704 197.866,117.649 196.987,117.224 196.642 C 117.146 196.578,117.052 196.166,117.017 195.727 C 116.934 194.709,117.051 194.758,115.417 195.062 C 113.960 195.333,113.385 195.133,112.143 193.928 C 111.975 193.764,111.766 193.635,111.680 193.640 C 111.594 193.645,111.888 193.962,112.334 194.344 M206.369 341.980 C 206.802 342.426,207.207 342.791,207.271 342.791 C 207.335 342.791,207.033 342.426,206.601 341.980 C 206.169 341.534,205.763 341.170,205.700 341.170 C 205.636 341.170,205.937 341.534,206.369 341.980 " stroke="none" fill="#b49c5b" fill-rule="evenodd"></path></g></svg>