<?xml version="1.0" encoding="UTF-8"?>
<!DOCTYPE svg PUBLIC "-//W3C//DTD SVG 1.1//EN" "http://www.w3.org/Graphics/SVG/1.1/DTD/svg11.dtd">
<svg xmlns="http://www.w3.org/2000/svg" version="1.1" width="3000px" height="3000px" style="shape-rendering:geometricPrecision; text-rendering:geometricPrecision; image-rendering:optimizeQuality; fill-rule:evenodd; clip-rule:evenodd" xmlns:xlink="http://www.w3.org/1999/xlink">
<g><path style="opacity:0.994" fill="#dec37a" d="M 1528.5,867.5 C 1490,876.791 1451.33,885.791 1412.5,894.5C 1337.75,849.703 1262.08,848.203 1185.5,890C 1169.39,899.765 1154.73,911.431 1141.5,925C 1094.83,922.209 1049.16,927.709 1004.5,941.5C 1003.59,940.21 1003.76,938.877 1005,937.5C 1016.18,919.988 1028.51,903.322 1042,887.5C 1062.26,866.238 1083.42,846.072 1105.5,827C 1175.43,774.932 1253.77,754.599 1340.5,766C 1415.38,777.828 1478.05,811.662 1528.5,867.5 Z"/></g>
<g><path style="opacity:0.994" fill="#dcc279" d="M 1827.5,788.5 C 1736.76,809.452 1645.76,829.785 1554.5,849.5C 1544.37,839.869 1534.37,830.036 1524.5,820C 1586.28,776.718 1654.94,758.052 1730.5,764C 1764.27,766.693 1796.61,774.86 1827.5,788.5 Z"/></g>
<g><path style="opacity:0.997" fill="#dac078" d="M 1827.5,788.5 C 1870.03,807.021 1906.7,833.688 1937.5,868.5C 1936.32,870.067 1934.65,870.901 1932.5,871C 1895.4,879.177 1858.74,887.343 1822.5,895.5C 1747.89,849.946 1672.05,847.946 1595,889.5C 1581.01,876.673 1567.51,863.34 1554.5,849.5C 1645.76,829.785 1736.76,809.452 1827.5,788.5 Z"/></g>
<g><path style="opacity:0.994" fill="#d6bc74" d="M 1937.5,868.5 C 1973.55,901.902 2000.55,941.569 2018.5,987.5C 1986.63,995.007 1954.63,1002.01 1922.5,1008.5C 1904.74,974.874 1881.41,945.374 1852.5,920C 1842.89,911.212 1832.89,903.046 1822.5,895.5C 1858.74,887.343 1895.4,879.177 1932.5,871C 1934.65,870.901 1936.32,870.067 1937.5,868.5 Z"/></g>
<g><path style="opacity:0.997" fill="#dabf77" d="M 1528.5,867.5 C 1560.5,898.833 1592.17,930.5 1623.5,962.5C 1623.59,963.496 1623.25,964.329 1622.5,965C 1586.08,972.982 1549.75,981.149 1513.5,989.5C 1487.37,963.868 1461.37,938.035 1435.5,912C 1428.12,905.661 1420.46,899.828 1412.5,894.5C 1451.33,885.791 1490,876.791 1528.5,867.5 Z"/></g>
<g><path style="opacity:0.995" fill="#d7bd75" d="M 1623.5,962.5 C 1636.15,974.479 1648.48,986.812 1660.5,999.5C 1634.87,1019.46 1611.87,1042.13 1591.5,1067.5C 1565.15,1041.81 1539.15,1015.81 1513.5,989.5C 1549.75,981.149 1586.08,972.982 1622.5,965C 1623.25,964.329 1623.59,963.496 1623.5,962.5 Z"/></g>
<g><path style="opacity:0.997" fill="#d3b972" d="M 1895.5,1025.5 C 1804.44,1045.34 1713.44,1065.51 1622.5,1086C 1620.61,1086.78 1618.95,1086.61 1617.5,1085.5C 1668.87,1020.28 1735.54,979.112 1817.5,962C 1827.15,960.112 1836.82,958.778 1846.5,958C 1867.72,977.038 1884.05,999.538 1895.5,1025.5 Z"/></g>
<g><path style="opacity:0.995" fill="#d2b871" d="M 2018.5,987.5 C 2032.94,1022.69 2041.27,1059.36 2043.5,1097.5C 2042.73,1098.17 2042.07,1099.01 2041.5,1100C 2009.88,1107.16 1978.22,1113.99 1946.5,1120.5C 1947.06,1081.28 1939.06,1043.95 1922.5,1008.5C 1954.63,1002.01 1986.63,995.007 2018.5,987.5 Z"/></g>
<g><path style="opacity:0.997" fill="#dabf77" d="M 950.5,1116.5 C 901.486,1126.7 852.486,1137.04 803.5,1147.5C 802.287,1147.25 801.62,1146.59 801.5,1145.5C 812.471,1125.02 825.638,1106.02 841,1088.5C 856.5,1073 872,1057.5 887.5,1042C 980.927,963.238 1087.26,938.572 1206.5,968C 1235.99,975.936 1263.66,987.936 1289.5,1004C 1265.65,1028.01 1241.65,1051.85 1217.5,1075.5C 1148.44,1044.7 1079.44,1044.87 1010.5,1076C 988.571,1086.79 968.571,1100.29 950.5,1116.5 Z"/></g>
<g><path style="opacity:0.996" fill="#d7bd75" d="M 1342.5,1132.5 C 1284.73,1144.65 1227.06,1157.32 1169.5,1170.5C 1168.89,1170.38 1168.56,1170.04 1168.5,1169.5C 1247.84,1089.33 1327.67,1009.66 1408,930.5C 1411.77,932.597 1415.27,935.097 1418.5,938C 1438.35,957.68 1458.01,977.514 1477.5,997.5C 1432.81,1042.85 1387.81,1087.85 1342.5,1132.5 Z"/></g>
<g><path style="opacity:0.998" fill="#ceb56e" d="M 1895.5,1025.5 C 1899.73,1034.16 1903.39,1043.16 1906.5,1052.5C 1812.95,1048.53 1738.45,1083.87 1683,1158.5C 1659.54,1136.04 1636.37,1113.21 1613.5,1090C 1614.33,1088.01 1615.66,1086.51 1617.5,1085.5C 1618.95,1086.61 1620.61,1086.78 1622.5,1086C 1713.44,1065.51 1804.44,1045.34 1895.5,1025.5 Z"/></g>
<g><path style="opacity:0.99" fill="#d6bc74" d="M 1064.5,1191.5 C 1064.59,1192.5 1064.25,1193.33 1063.5,1194C 1032.5,1200.9 1001.5,1207.73 970.5,1214.5C 964.104,1194.26 959.937,1173.59 958,1152.5C 984.14,1124.22 1015.64,1104.22 1052.5,1092.5C 1050.83,1126.16 1054.83,1159.16 1064.5,1191.5 Z"/></g>
<g><path style="opacity:0.996" fill="#cfb56f" d="M 2043.5,1097.5 C 2043.65,1113.85 2043.15,1130.19 2042,1146.5C 2041.22,1156.42 2039.72,1166.09 2037.5,1175.5C 2002.1,1182.85 1966.76,1190.52 1931.5,1198.5C 1940.59,1173.32 1945.59,1147.32 1946.5,1120.5C 1978.22,1113.99 2009.88,1107.16 2041.5,1100C 2042.07,1099.01 2042.73,1098.17 2043.5,1097.5 Z"/></g>
<g><path style="opacity:0.996" fill="#d0b670" d="M 2217.5,1189.5 C 2217.5,1190.5 2217.5,1191.5 2217.5,1192.5C 2185.86,1198.96 2154.19,1205.29 2122.5,1211.5C 2110.56,1185.3 2094.39,1161.97 2074,1141.5C 2076.93,1094.81 2071.43,1049.15 2057.5,1004.5C 2057.83,1004.17 2058.17,1003.83 2058.5,1003.5C 2077.43,1014.59 2095.09,1027.43 2111.5,1042C 2129.36,1059.53 2146.86,1077.36 2164,1095.5C 2187.24,1123.63 2205.07,1154.97 2217.5,1189.5 Z"/></g>
<g><path style="opacity:0.995" fill="#d6bc74" d="M 950.5,1116.5 C 932.094,1133.07 915.261,1151.07 900,1170.5C 876.433,1203.69 863.266,1240.69 860.5,1281.5C 859.17,1282.83 857.503,1283.67 855.5,1284C 824.52,1290.66 793.52,1297.16 762.5,1303.5C 761.416,1247.17 774.416,1194.5 801.5,1145.5C 801.62,1146.59 802.287,1147.25 803.5,1147.5C 852.486,1137.04 901.486,1126.7 950.5,1116.5 Z"/></g>
<g><path style="opacity:0.99" fill="#ccb36d" d="M 2037.5,1175.5 C 2030.95,1216.56 2016.62,1254.56 1994.5,1289.5C 1970.85,1266.35 1947.35,1243.01 1924,1219.5C 1925.89,1212.37 1928.39,1205.37 1931.5,1198.5C 1966.76,1190.52 2002.1,1182.85 2037.5,1175.5 Z"/></g>
<g><path style="opacity:0.998" fill="#d0b66f" d="M 1917.5,1256.5 C 1880.46,1265.01 1843.46,1273.68 1806.5,1282.5C 1772.52,1249.19 1738.85,1215.52 1705.5,1181.5C 1723.24,1153.26 1746.4,1130.6 1775,1113.5C 1822.7,1161.03 1870.2,1208.7 1917.5,1256.5 Z"/></g>
<g><path style="opacity:0.995" fill="#d3b972" d="M 1342.5,1132.5 C 1289.19,1186.48 1235.52,1240.15 1181.5,1293.5C 1153.26,1275.76 1130.6,1252.6 1113.5,1224C 1131.7,1205.63 1150.03,1187.46 1168.5,1169.5C 1168.56,1170.04 1168.89,1170.38 1169.5,1170.5C 1227.06,1157.32 1284.73,1144.65 1342.5,1132.5 Z"/></g>
<g><path style="opacity:0.983" fill="#dec37a" d="M 1477.5,1265.5 C 1456.24,1266.49 1434.91,1266.82 1413.5,1266.5C 1413.78,1264.59 1413.45,1262.92 1412.5,1261.5C 1412.33,1243.83 1412.5,1226.16 1413,1208.5C 1415.16,1198.34 1421.32,1192.18 1431.5,1190C 1444.89,1186.8 1457.55,1188.47 1469.5,1195C 1472.53,1197.56 1474.7,1200.73 1476,1204.5C 1477.45,1224.78 1477.95,1245.11 1477.5,1265.5 Z"/></g>
<g><path style="opacity:0.995" fill="#cbb26c" d="M 2217.5,1189.5 C 2237.63,1245.94 2241.47,1303.61 2229,1362.5C 2227.61,1369.09 2225.77,1375.42 2223.5,1381.5C 2186.67,1388.77 2149.84,1396.1 2113,1403.5C 2111.93,1403.47 2111.1,1403.14 2110.5,1402.5C 2144.1,1340.72 2148.1,1277.05 2122.5,1211.5C 2154.19,1205.29 2185.86,1198.96 2217.5,1192.5C 2217.5,1191.5 2217.5,1190.5 2217.5,1189.5 Z"/></g>
<g><path style="opacity:0.995" fill="#d2b871" d="M 1064.5,1191.5 C 1075.3,1220.6 1090.3,1247.27 1109.5,1271.5C 1075.17,1278.83 1040.83,1286.17 1006.5,1293.5C 990.666,1269.03 978.666,1242.7 970.5,1214.5C 1001.5,1207.73 1032.5,1200.9 1063.5,1194C 1064.25,1193.33 1064.59,1192.5 1064.5,1191.5 Z"/></g>
<g><path style="opacity:0.996" fill="#cbb16c" d="M 1917.5,1256.5 C 1967.8,1306.3 2017.97,1356.3 2068,1406.5C 2068.67,1407.5 2068.67,1408.5 2068,1409.5C 2046.71,1432.96 2024.55,1455.62 2001.5,1477.5C 1936.15,1412.81 1871.15,1347.81 1806.5,1282.5C 1843.46,1273.68 1880.46,1265.01 1917.5,1256.5 Z"/></g>
<g><path style="opacity:0.996" fill="#d2b871" d="M 860.5,1281.5 C 857.695,1325.15 867.362,1365.81 889.5,1403.5C 866.152,1427.01 842.985,1450.68 820,1474.5C 784.001,1423.34 764.835,1366.34 762.5,1303.5C 793.52,1297.16 824.52,1290.66 855.5,1284C 857.503,1283.67 859.17,1282.83 860.5,1281.5 Z"/></g>
<g><path style="opacity:0.994" fill="#dac077" d="M 1633.5,1313.5 C 1559.76,1313.83 1486.1,1313.5 1412.5,1312.5C 1412.5,1295.5 1412.5,1278.5 1412.5,1261.5C 1413.45,1262.92 1413.78,1264.59 1413.5,1266.5C 1434.91,1266.82 1456.24,1266.49 1477.5,1265.5C 1477.33,1275.84 1477.5,1286.17 1478,1296.5C 1478.37,1297.42 1478.87,1298.25 1479.5,1299C 1494.1,1300.62 1508.76,1300.95 1523.5,1300C 1525.29,1299.22 1526.79,1298.05 1528,1296.5C 1528.33,1277.17 1528.67,1257.83 1529,1238.5C 1530.21,1236.95 1531.71,1235.78 1533.5,1235C 1584.5,1235.01 1635.5,1235.34 1686.5,1236C 1688.72,1236.65 1689.89,1238.15 1690,1240.5C 1690.96,1259.9 1690.63,1279.23 1689,1298.5C 1688.17,1299.33 1687.33,1300.17 1686.5,1301C 1670.17,1301.33 1653.83,1301.67 1637.5,1302C 1634.03,1305 1632.7,1308.83 1633.5,1313.5 Z"/></g>
<g><path style="opacity:0.997" fill="#d6bc74" d="M 1412.5,1312.5 C 1486.1,1313.5 1559.76,1313.83 1633.5,1313.5C 1633.5,1333.83 1633.5,1354.17 1633.5,1374.5C 1559.76,1374.83 1486.1,1374.5 1412.5,1373.5C 1412.5,1353.17 1412.5,1332.83 1412.5,1312.5 Z"/></g>
<g><path style="opacity:0.982" fill="#ceb46e" d="M 1109.5,1271.5 C 1123.97,1288.31 1140.31,1302.98 1158.5,1315.5C 1135.83,1338.83 1112.83,1361.83 1089.5,1384.5C 1062.15,1364.65 1038.65,1340.98 1019,1313.5C 1014.19,1307.2 1010.02,1300.53 1006.5,1293.5C 1040.83,1286.17 1075.17,1278.83 1109.5,1271.5 Z"/></g>
<g><path style="opacity:0.997" fill="#d2b871" d="M 1412.5,1373.5 C 1486.1,1374.5 1559.76,1374.83 1633.5,1374.5C 1633.5,1390.5 1633.5,1406.5 1633.5,1422.5C 1560.05,1424.49 1486.38,1425.16 1412.5,1424.5C 1412.5,1407.5 1412.5,1390.5 1412.5,1373.5 Z"/></g>
<g><path style="opacity:0.997" fill="#cfb56f" d="M 1010.5,1464.5 C 954.194,1475.26 898.028,1486.59 842,1498.5C 841.601,1498.27 841.435,1497.94 841.5,1497.5C 893.437,1444.06 945.937,1391.06 999,1338.5C 1019.32,1363.98 1042.15,1386.98 1067.5,1407.5C 1048.81,1426.85 1029.81,1445.85 1010.5,1464.5 Z"/></g>
<g><path style="opacity:0.997" fill="#c8af69" d="M 2223.5,1381.5 C 2218.8,1399.92 2212.14,1417.59 2203.5,1434.5C 2155.56,1444.16 2107.89,1453.49 2060.5,1462.5C 2070.83,1452.01 2080.99,1441.34 2091,1430.5C 2097.77,1421.27 2104.27,1411.94 2110.5,1402.5C 2111.1,1403.14 2111.93,1403.47 2113,1403.5C 2149.84,1396.1 2186.67,1388.77 2223.5,1381.5 Z"/></g>
<g><path style="opacity:0.996" fill="#cfb56f" d="M 1633.5,1422.5 C 1633.33,1426.51 1633.5,1430.51 1634,1434.5C 1634.5,1436.33 1635.67,1437.5 1637.5,1438C 1654.26,1438.03 1670.92,1438.7 1687.5,1440C 1688,1440.5 1688.5,1441 1689,1441.5C 1689.5,1447.49 1689.67,1453.49 1689.5,1459.5C 1635.83,1459.5 1582.17,1459.5 1528.5,1459.5C 1528.67,1454.49 1528.5,1449.49 1528,1444.5C 1527.69,1443.23 1527.19,1442.07 1526.5,1441C 1518.6,1439.86 1510.6,1439.36 1502.5,1439.5C 1494.79,1439.52 1487.12,1439.85 1479.5,1440.5C 1478.42,1441.67 1477.58,1443 1477,1444.5C 1476.5,1449.49 1476.33,1454.49 1476.5,1459.5C 1455.17,1459.5 1433.83,1459.5 1412.5,1459.5C 1412.5,1447.83 1412.5,1436.17 1412.5,1424.5C 1486.38,1425.16 1560.05,1424.49 1633.5,1422.5 Z"/></g>
<g><path style="opacity:0.995" fill="#c4ab67" d="M 2203.5,1434.5 C 2190.01,1461.16 2173.17,1485.49 2153,1507.5C 2102,1558.5 2051,1609.5 2000,1660.5C 1979.73,1634.77 1956.9,1611.61 1931.5,1591C 1974.37,1547.97 2017.37,1505.13 2060.5,1462.5C 2107.89,1453.49 2155.56,1444.16 2203.5,1434.5 Z"/></g>
<g><path style="opacity:0.995" fill="#cbb16c" d="M 1412.5,1459.5 C 1433.83,1459.5 1455.17,1459.5 1476.5,1459.5C 1476.5,1492.17 1476.5,1524.83 1476.5,1557.5C 1455.17,1557.5 1433.83,1557.5 1412.5,1557.5C 1412.5,1524.83 1412.5,1492.17 1412.5,1459.5 Z"/></g>
<g><path style="opacity:0.993" fill="#ccb36d" d="M 1528.5,1459.5 C 1582.17,1459.5 1635.83,1459.5 1689.5,1459.5C 1689.67,1473.5 1689.5,1487.5 1689,1501.5C 1688.17,1502.33 1687.33,1503.17 1686.5,1504C 1634.83,1504.67 1583.17,1504.67 1531.5,1504C 1530.67,1503.17 1529.83,1502.33 1529,1501.5C 1528.5,1487.5 1528.33,1473.5 1528.5,1459.5 Z"/></g>
<g><path style="opacity:0.995" fill="#cbb16c" d="M 1010.5,1464.5 C 977.868,1497.63 945.035,1530.63 912,1563.5C 871.001,1612.8 854.168,1669.47 861.5,1733.5C 829.803,1739.71 798.137,1746.04 766.5,1752.5C 754.612,1669.06 772.445,1592.73 820,1523.5C 826.654,1514.35 833.82,1505.69 841.5,1497.5C 841.435,1497.94 841.601,1498.27 842,1498.5C 898.028,1486.59 954.194,1475.26 1010.5,1464.5 Z"/></g>
<g><path style="opacity:0.994" fill="#c9b06b" d="M 1145.5,1669.5 C 1108.17,1677.83 1070.83,1686.17 1033.5,1694.5C 998.701,1660.2 964.035,1625.7 929.5,1591C 951.288,1567.04 973.954,1543.88 997.5,1521.5C 1047.19,1570.52 1096.52,1619.85 1145.5,1669.5 Z"/></g>
<g><path style="opacity:0.994" fill="#c1a965" d="M 2231.5,1651.5 C 2199.79,1658.01 2168.13,1664.68 2136.5,1671.5C 2132.45,1644.24 2123.45,1618.74 2109.5,1595C 2132.96,1571.87 2156.13,1548.37 2179,1524.5C 2206.38,1562.61 2223.88,1604.94 2231.5,1651.5 Z"/></g>
<g><path style="opacity:0.996" fill="#c4ab66" d="M 1412.5,1557.5 C 1433.83,1557.5 1455.17,1557.5 1476.5,1557.5C 1476.5,1580.83 1476.5,1604.17 1476.5,1627.5C 1455.17,1627.5 1433.83,1627.5 1412.5,1627.5C 1412.74,1626.21 1412.4,1625.21 1411.5,1624.5C 1412.05,1602.17 1412.38,1579.84 1412.5,1557.5 Z"/></g>
<g><path style="opacity:0.991" fill="#c4ab66" d="M 2001.5,1720.5 C 2001.42,1721.75 2000.76,1722.58 1999.5,1723C 1967.19,1730.33 1934.85,1737.5 1902.5,1744.5C 1884.99,1720.49 1863.99,1699.99 1839.5,1683C 1862.68,1659.65 1886.01,1636.49 1909.5,1613.5C 1948.16,1642.48 1978.82,1678.14 2001.5,1720.5 Z"/></g>
<g><path style="opacity:0.994" fill="#bea562" d="M 1411.5,1624.5 C 1412.4,1625.21 1412.74,1626.21 1412.5,1627.5C 1433.83,1627.5 1455.17,1627.5 1476.5,1627.5C 1476.5,1650.83 1476.5,1674.17 1476.5,1697.5C 1454.91,1698.49 1433.24,1698.82 1411.5,1698.5C 1411.5,1673.83 1411.5,1649.17 1411.5,1624.5 Z"/></g>
<g><path style="opacity:0.996" fill="#bda561" d="M 2231.5,1651.5 C 2238.88,1693.2 2237.54,1734.53 2227.5,1775.5C 2191.96,1782.59 2156.46,1789.93 2121,1797.5C 2119.93,1797.47 2119.1,1797.14 2118.5,1796.5C 2136.76,1756.59 2142.76,1714.93 2136.5,1671.5C 2168.13,1664.68 2199.79,1658.01 2231.5,1651.5 Z"/></g>
<g><path style="opacity:0.996" fill="#c4ab67" d="M 1145.5,1669.5 C 1192.5,1715.83 1239.17,1762.5 1285.5,1809.5C 1284.77,1811.05 1283.44,1811.88 1281.5,1812C 1246.61,1819.6 1211.78,1827.43 1177,1835.5C 1171.29,1830.28 1165.45,1825.28 1159.5,1820.5C 1117.17,1778.83 1075.17,1736.83 1033.5,1694.5C 1070.83,1686.17 1108.17,1677.83 1145.5,1669.5 Z"/></g>
<g><path style="opacity:0.994" fill="#c3aa65" d="M 1053.5,1905.5 C 1021.79,1912.68 990.127,1920.01 958.5,1927.5C 949.714,1855.26 962.214,1786.93 996,1722.5C 998.349,1717.79 1001.18,1713.45 1004.5,1709.5C 1028.69,1732.86 1052.36,1756.69 1075.5,1781C 1057.29,1820.56 1049.95,1862.06 1053.5,1905.5 Z"/></g>
<g><path style="opacity:0.994" fill="#c4ab66" d="M 861.5,1733.5 C 869.203,1781.91 890.37,1823.24 925,1857.5C 924.895,1869.16 924.728,1880.82 924.5,1892.5C 896.527,1897.96 868.527,1903.29 840.5,1908.5C 800.897,1863.95 776.23,1811.95 766.5,1752.5C 798.137,1746.04 829.803,1739.71 861.5,1733.5 Z"/></g>
<g><path style="opacity:0.996" fill="#bda561" d="M 1786.5,1873.5 C 1728.73,1885.86 1671.06,1898.36 1613.5,1911C 1615.83,1908.67 1618.17,1906.33 1620.5,1904C 1620.27,1903.6 1619.94,1903.43 1619.5,1903.5C 1685.15,1837.19 1751.15,1771.19 1817.5,1705.5C 1845.74,1723.24 1868.4,1746.4 1885.5,1775C 1852.63,1808.03 1819.63,1840.87 1786.5,1873.5 Z"/></g>
<g><path style="opacity:0.989" fill="#b79f5c" d="M 1476.5,1697.5 C 1476.5,1725.83 1476.5,1754.17 1476.5,1782.5C 1455.24,1783.49 1433.91,1783.82 1412.5,1783.5C 1412.77,1781.9 1412.43,1780.57 1411.5,1779.5C 1411.5,1752.5 1411.5,1725.5 1411.5,1698.5C 1433.24,1698.82 1454.91,1698.49 1476.5,1697.5 Z"/></g>
<g><path style="opacity:0.995" fill="#bea562" d="M 2001.5,1720.5 C 2021.34,1756.37 2034.01,1794.7 2039.5,1835.5C 2038.32,1837.07 2036.65,1837.9 2034.5,1838C 2004.85,1844.66 1975.19,1851.16 1945.5,1857.5C 1945.77,1855.9 1945.43,1854.57 1944.5,1853.5C 1939.11,1813.75 1925.11,1777.41 1902.5,1744.5C 1934.85,1737.5 1967.19,1730.33 1999.5,1723C 2000.76,1722.58 2001.42,1721.75 2001.5,1720.5 Z"/></g>
<g><path style="opacity:0.995" fill="#b9a15e" d="M 2227.5,1775.5 C 2218.45,1815.25 2202.12,1851.59 2178.5,1884.5C 2115.12,1897.24 2051.79,1910.24 1988.5,1923.5C 2036.55,1897.63 2076.05,1861.96 2107,1816.5C 2110.61,1809.61 2114.44,1802.94 2118.5,1796.5C 2119.1,1797.14 2119.93,1797.47 2121,1797.5C 2156.46,1789.93 2191.96,1782.59 2227.5,1775.5 Z"/></g>
<g><path style="opacity:0.994" fill="#c0a763" d="M 1285.5,1809.5 C 1288.48,1811.81 1291.15,1814.48 1293.5,1817.5C 1276.04,1845.63 1253.04,1867.96 1224.5,1884.5C 1202.2,1863.87 1180.54,1842.54 1159.5,1820.5C 1165.45,1825.28 1171.29,1830.28 1177,1835.5C 1211.78,1827.43 1246.61,1819.6 1281.5,1812C 1283.44,1811.88 1284.77,1811.05 1285.5,1809.5 Z"/></g>
<g><path style="opacity:0.983" fill="#af9856" d="M 1411.5,1779.5 C 1412.43,1780.57 1412.77,1781.9 1412.5,1783.5C 1433.91,1783.82 1455.24,1783.49 1476.5,1782.5C 1476.83,1831.17 1476.5,1879.84 1475.5,1928.5C 1454.18,1907.68 1433.01,1886.68 1412,1865.5C 1411.5,1836.84 1411.33,1808.17 1411.5,1779.5 Z"/></g>
<g><path style="opacity:0.982" fill="#b9a15e" d="M 2039.5,1835.5 C 2040.56,1839.01 2041.06,1842.67 2041,1846.5C 2014.79,1875.03 1983.12,1895.03 1946,1906.5C 1946.92,1888.81 1946.42,1871.14 1944.5,1853.5C 1945.43,1854.57 1945.77,1855.9 1945.5,1857.5C 1975.19,1851.16 2004.85,1844.66 2034.5,1838C 2036.65,1837.9 2038.32,1837.07 2039.5,1835.5 Z"/></g>
<g><path style="opacity:0.993" fill="#c3ab66" d="M 1373.5,1923.5 C 1284.77,1942.52 1196.1,1961.85 1107.5,1981.5C 1101.45,1970.19 1096.45,1958.35 1092.5,1946C 1186.52,1950.57 1261.02,1915.07 1316,1839.5C 1339.17,1862.67 1362.33,1885.83 1385.5,1909C 1382.01,1914.31 1378.01,1919.15 1373.5,1923.5 Z"/></g>
<g><path style="opacity:0.997" fill="#b69e5c" d="M 2178.5,1884.5 C 2172.26,1893.58 2165.43,1902.25 2158,1910.5C 2142.5,1926 2127,1941.5 2111.5,1957C 2030.18,2026.76 1936.18,2054.09 1829.5,2039C 1787.58,2032.14 1748.25,2018.14 1711.5,1997C 1710.64,1996.31 1709.98,1995.48 1709.5,1994.5C 1732.86,1970.31 1756.69,1946.64 1781,1923.5C 1850.17,1954.13 1919.34,1954.13 1988.5,1923.5C 2051.79,1910.24 2115.12,1897.24 2178.5,1884.5 Z"/></g>
<g><path style="opacity:0.991" fill="#bfa763" d="M 924.5,1892.5 C 925.412,1927.3 931.078,1961.3 941.5,1994.5C 941.167,1994.83 940.833,1995.17 940.5,1995.5C 924.532,1986.36 909.532,1975.86 895.5,1964C 876.276,1946.28 857.942,1927.78 840.5,1908.5C 868.527,1903.29 896.527,1897.96 924.5,1892.5 Z"/></g>
<g><path style="opacity:0.995" fill="#bda561" d="M 1053.5,1905.5 C 1057.28,1944.84 1069.61,1981.17 1090.5,2014.5C 1057.74,2021.86 1025.07,2029.52 992.5,2037.5C 974.558,2003 963.225,1966.33 958.5,1927.5C 990.127,1920.01 1021.79,1912.68 1053.5,1905.5 Z"/></g>
<g><path style="opacity:0.996" fill="#b9a15e" d="M 1786.5,1873.5 C 1721.83,1939.01 1656.66,2004.01 1591,2068.5C 1586.56,2065.73 1582.39,2062.56 1578.5,2059C 1559.32,2039.99 1540.32,2020.82 1521.5,2001.5C 1553.85,1968.48 1586.52,1935.81 1619.5,1903.5C 1619.94,1903.43 1620.27,1903.6 1620.5,1904C 1618.17,1906.33 1615.83,1908.67 1613.5,1911C 1671.06,1898.36 1728.73,1885.86 1786.5,1873.5 Z"/></g>
<g><path style="opacity:0.996" fill="#bda562" d="M 1373.5,1923.5 C 1315.56,1991.48 1241.89,2030.65 1152.5,2041C 1133.47,2024.07 1118.47,2004.23 1107.5,1981.5C 1196.1,1961.85 1284.77,1942.52 1373.5,1923.5 Z"/></g>
<g><path style="opacity:0.998" fill="#b9a15e" d="M 1506.5,2030.5 C 1503.5,2032.26 1500.16,2033.43 1496.5,2034C 1463.22,2042.15 1429.89,2049.99 1396.5,2057.5C 1376.85,2038.52 1357.52,2019.19 1338.5,1999.5C 1364.13,1979.54 1387.13,1956.87 1407.5,1931.5C 1440.85,1964.19 1473.85,1997.19 1506.5,2030.5 Z"/></g>
<g><path style="opacity:0.997" fill="#b69e5c" d="M 1506.5,2030.5 C 1524.97,2048.46 1543.3,2066.63 1561.5,2085C 1572.53,2094.5 1584.19,2103 1596.5,2110.5C 1596.38,2111.59 1595.71,2112.25 1594.5,2112.5C 1556.11,2121.68 1517.78,2131.01 1479.5,2140.5C 1451.5,2113.17 1423.83,2085.5 1396.5,2057.5C 1429.89,2049.99 1463.22,2042.15 1496.5,2034C 1500.16,2033.43 1503.5,2032.26 1506.5,2030.5 Z"/></g>
<g><path style="opacity:0.995" fill="#b9a15e" d="M 1090.5,2014.5 C 1097.45,2024.62 1104.61,2034.62 1112,2044.5C 1127.76,2060.76 1143.92,2076.43 1160.5,2091.5C 1123.48,2101.04 1086.15,2109.71 1048.5,2117.5C 1025.56,2093.88 1006.89,2067.21 992.5,2037.5C 1025.07,2029.52 1057.74,2021.86 1090.5,2014.5 Z"/></g>
<g><path style="opacity:0.995" fill="#b19a58" d="M 1936.5,2131.5 C 1822.02,2159.37 1707.69,2187.37 1593.5,2215.5C 1549.63,2199.27 1511.63,2174.27 1479.5,2140.5C 1517.78,2131.01 1556.11,2121.68 1594.5,2112.5C 1595.71,2112.25 1596.38,2111.59 1596.5,2110.5C 1666.04,2148.13 1736.04,2148.97 1806.5,2113C 1825.21,2102.3 1842.21,2089.3 1857.5,2074C 1904.17,2076.79 1949.84,2071.29 1994.5,2057.5C 1994.83,2057.83 1995.17,2058.17 1995.5,2058.5C 1979.41,2085.65 1959.74,2109.98 1936.5,2131.5 Z"/></g>
<g><path style="opacity:0.996" fill="#b59d5b" d="M 1160.5,2091.5 C 1225.78,2140.99 1297.11,2151.82 1374.5,2124C 1384.55,2119.56 1394.38,2114.73 1404,2109.5C 1412.33,2116.66 1420.16,2124.33 1427.5,2132.5C 1427.41,2133.5 1427.75,2134.33 1428.5,2135C 1336.01,2156.71 1243.68,2178.54 1151.5,2200.5C 1128.76,2188.93 1107.76,2174.76 1088.5,2158C 1074.96,2144.63 1061.63,2131.13 1048.5,2117.5C 1086.15,2109.71 1123.48,2101.04 1160.5,2091.5 Z"/></g>
<g><path style="opacity:0.997" fill="#af9756" d="M 1936.5,2131.5 C 1866.63,2207.24 1779.97,2241.74 1676.5,2235C 1647.71,2232.72 1620.05,2226.22 1593.5,2215.5C 1707.69,2187.37 1822.02,2159.37 1936.5,2131.5 Z"/></g>
<g><path style="opacity:0.995" fill="#b29b59" d="M 1427.5,2132.5 C 1443.3,2147.8 1458.97,2163.3 1474.5,2179C 1401.13,2229.61 1320.47,2246.61 1232.5,2230C 1203.8,2224.38 1176.8,2214.55 1151.5,2200.5C 1243.68,2178.54 1336.01,2156.71 1428.5,2135C 1427.75,2134.33 1427.41,2133.5 1427.5,2132.5 Z"/></g>
</svg>
